<svg width="23" height="24" viewBox="0 0 23 24" fill="none" xmlns="http://www.w3.org/2000/svg">
<g clip-path="url(#clip0_454_658)">
<path d="M9.85803 9.61717C10.3682 9.61717 10.8574 9.41453 11.2181 9.05381C11.5788 8.69309 11.7815 8.20385 11.7815 7.69372C11.7815 7.18359 11.5788 6.69435 11.2181 6.33363C10.8574 5.97291 10.3682 5.77026 9.85803 5.77026C9.34789 5.77026 8.85866 5.97291 8.49794 6.33363C8.13722 6.69435 7.93457 7.18359 7.93457 7.69372C7.93457 8.20385 8.13722 8.69309 8.49794 9.05381C8.85866 9.41453 9.34789 9.61717 9.85803 9.61717Z" stroke="#9E9E9E" stroke-width="1.5" stroke-linecap="round" stroke-linejoin="round"/>
<path d="M13.705 1.92285H9.85807C5.04943 1.92285 3.12598 3.84631 3.12598 8.65494V14.4253C3.12598 19.2339 5.04943 21.1574 9.85807 21.1574H15.6284C20.4371 21.1574 22.3605 19.2339 22.3605 14.4253V9.61667" stroke="#9E9E9E" stroke-width="1.5" stroke-linecap="round" stroke-linejoin="round"/>
<path d="M18.5148 1.92285V7.69322M18.5148 7.69322L20.4382 5.76976M18.5148 7.69322L16.5913 5.76976M3.77148 18.2241L8.5128 15.0408C9.27257 14.5311 10.3689 14.5888 11.0518 15.1755L11.3691 15.4544C12.1193 16.0987 13.3311 16.0987 14.0812 15.4544L18.082 12.021C18.8321 11.3766 20.0439 11.3766 20.7941 12.021L22.3617 13.3674" stroke="#9E9E9E" stroke-width="1.5" stroke-linecap="round" stroke-linejoin="round"/>
</g>
<defs>
<clipPath id="clip0_454_658">
<rect width="22.6919" height="23.0815" fill="white"/>
</clipPath>
</defs>
</svg>
