<svg width="16" height="16" viewBox="0 0 16 16" fill="none" xmlns="http://www.w3.org/2000/svg">
<path d="M9.99988 15.1668H5.99988C2.91988 15.1668 2.34655 13.7335 2.19988 12.3402L1.69988 8.34683C1.62655 7.62683 1.59988 6.5935 2.29988 5.82016C2.89988 5.1535 3.89321 4.8335 5.33321 4.8335H10.6665C12.1132 4.8335 13.1065 5.16016 13.6999 5.82016C14.3932 6.5935 14.3732 7.62683 14.2999 8.3335L13.7999 12.3402C13.6532 13.7335 13.0799 15.1668 9.99988 15.1668ZM5.33321 5.8335C4.20655 5.8335 3.43321 6.0535 3.03988 6.4935C2.71321 6.8535 2.60655 7.40683 2.69321 8.2335L3.19321 12.2268C3.30655 13.2935 3.59988 14.1735 5.99988 14.1735H9.99988C12.3999 14.1735 12.6932 13.3002 12.8065 12.2402L13.3065 8.2335C13.3932 7.42016 13.2865 6.86683 12.9599 6.50016C12.5665 6.0535 11.7932 5.8335 10.6665 5.8335H5.33321Z" fill="#292D32"/>
<path d="M11 5.75337C10.7267 5.75337 10.5 5.5267 10.5 5.25337V4.33337C10.5 3.63337 10.2 2.95337 9.68 2.48004C9.15333 2.00004 8.46667 1.78004 7.75333 1.8467C6.55333 1.96004 5.5 3.1867 5.5 4.4667V5.11337C5.5 5.3867 5.27333 5.61337 5 5.61337C4.72667 5.61337 4.5 5.3867 4.5 5.11337V4.46004C4.5 2.6667 5.94667 1.01337 7.66 0.846703C8.66 0.75337 9.62 1.0667 10.3533 1.74004C11.08 2.40004 11.5 3.3467 11.5 4.33337V5.25337C11.5 5.5267 11.2733 5.75337 11 5.75337Z" fill="#292D32"/>
</svg>
