<svg width="14" height="14" viewBox="0 0 14 14" fill="none" xmlns="http://www.w3.org/2000/svg">
<mask id="path-1-inside-1_576_545" fill="white">
<path d="M9.33398 3.35425C9.57315 3.35425 9.77148 3.15591 9.77148 2.91675V1.16675C9.77148 0.927581 9.57315 0.729248 9.33398 0.729248C9.09482 0.729248 8.89648 0.927581 8.89648 1.16675V2.91675C8.89648 3.15591 9.09482 3.35425 9.33398 3.35425Z"/>
</mask>
<path d="M9.33398 3.35425C9.57315 3.35425 9.77148 3.15591 9.77148 2.91675V1.16675C9.77148 0.927581 9.57315 0.729248 9.33398 0.729248C9.09482 0.729248 8.89648 0.927581 8.89648 1.16675V2.91675C8.89648 3.15591 9.09482 3.35425 9.33398 3.35425Z" fill="#808080"/>
<path d="M9.33398 1.85425C8.74472 1.85425 8.27148 2.32749 8.27148 2.91675H11.2715C11.2715 3.98434 10.4016 4.85425 9.33398 4.85425V1.85425ZM8.27148 2.91675V1.16675H11.2715V2.91675H8.27148ZM8.27148 1.16675C8.27148 1.75601 8.74472 2.22925 9.33398 2.22925V-0.770752C10.4016 -0.770752 11.2715 0.0991542 11.2715 1.16675H8.27148ZM9.33398 2.22925C9.92324 2.22925 10.3965 1.75601 10.3965 1.16675H7.39648C7.39648 0.0991542 8.26639 -0.770752 9.33398 -0.770752V2.22925ZM10.3965 1.16675V2.91675H7.39648V1.16675H10.3965ZM10.3965 2.91675C10.3965 2.32749 9.92324 1.85425 9.33398 1.85425V4.85425C8.26639 4.85425 7.39648 3.98434 7.39648 2.91675H10.3965Z" fill="#808080" mask="url(#path-1-inside-1_576_545)"/>
<mask id="path-3-inside-2_576_545" fill="white">
<path d="M4.66602 3.35425C4.90518 3.35425 5.10352 3.15591 5.10352 2.91675V1.16675C5.10352 0.927581 4.90518 0.729248 4.66602 0.729248C4.42685 0.729248 4.22852 0.927581 4.22852 1.16675V2.91675C4.22852 3.15591 4.42685 3.35425 4.66602 3.35425Z"/>
</mask>
<path d="M4.66602 3.35425C4.90518 3.35425 5.10352 3.15591 5.10352 2.91675V1.16675C5.10352 0.927581 4.90518 0.729248 4.66602 0.729248C4.42685 0.729248 4.22852 0.927581 4.22852 1.16675V2.91675C4.22852 3.15591 4.42685 3.35425 4.66602 3.35425Z" fill="#808080"/>
<path d="M4.66602 1.85425C4.07676 1.85425 3.60352 2.32749 3.60352 2.91675H6.60352C6.60352 3.98434 5.73361 4.85425 4.66602 4.85425V1.85425ZM3.60352 2.91675V1.16675H6.60352V2.91675H3.60352ZM3.60352 1.16675C3.60352 1.75601 4.07676 2.22925 4.66602 2.22925V-0.770752C5.73361 -0.770752 6.60352 0.0991542 6.60352 1.16675H3.60352ZM4.66602 2.22925C5.25528 2.22925 5.72852 1.75601 5.72852 1.16675H2.72852C2.72852 0.0991542 3.59842 -0.770752 4.66602 -0.770752V2.22925ZM5.72852 1.16675V2.91675H2.72852V1.16675H5.72852ZM5.72852 2.91675C5.72852 2.32749 5.25528 1.85425 4.66602 1.85425V4.85425C3.59842 4.85425 2.72852 3.98434 2.72852 2.91675H5.72852Z" fill="#808080" mask="url(#path-3-inside-2_576_545)"/>
<path d="M9.06641 7.9375L8.9873 8.00098M9.06641 7.9375L9.10449 8.0293M9.06641 7.9375L9.10449 8.0293M9.06641 7.9375L9.07715 7.92969L9.14941 7.99805C9.13367 8.01236 9.11855 8.02246 9.10449 8.0293M8.9873 8.00098L8.97559 8.0293M8.9873 8.00098L8.97559 8.0293M8.9873 8.00098L8.96191 8.02148C8.9658 8.02385 8.97072 8.0268 8.97559 8.0293M8.97559 8.0293H8.97461C8.97642 8.03022 8.97871 8.03041 8.98047 8.03125C9.01715 8.04545 9.04607 8.04674 9.06641 8.04297C9.07669 8.04103 9.08988 8.03641 9.10449 8.0293M8.88086 7.9082L8.99512 7.85156M8.88086 7.9082C8.87946 7.89885 8.875 7.88812 8.875 7.875C8.87501 7.8243 8.89595 7.78954 8.91113 7.77344L8.99512 7.85156M8.88086 7.9082C8.88164 7.91338 8.88188 7.91784 8.88281 7.92188L8.95703 7.91016L9.00781 7.86426L8.99512 7.85156M8.88086 7.9082L8.99512 7.85156M8.99609 7.71582L9.03809 7.82324M8.99609 7.71582C9.00731 7.71331 9.0224 7.70801 9.04199 7.70801C9.0711 7.70805 9.09228 7.71429 9.10547 7.71973C9.11817 7.72499 9.13066 7.73212 9.14258 7.74316L9.04492 7.83105L9.03809 7.82324M8.99609 7.71582L9.03809 7.82324M8.99609 7.71582C8.98841 7.71754 8.98232 7.71734 8.97852 7.71875C8.97761 7.71919 8.9765 7.71926 8.97559 7.71973M9.03809 7.82324L9.00195 7.7832M8.97559 7.71973L9.00195 7.7832M8.97559 7.71973L9.00195 7.7832M8.97559 7.71973L8.97461 7.7207C8.96786 7.72417 8.96182 7.72736 8.95703 7.73047C8.9474 7.73674 8.94532 7.73935 8.9541 7.73145L9.00195 7.7832M9.11426 7.89941L9.10938 7.90332L9.17383 7.97461C9.18449 7.96291 9.19212 7.95095 9.19727 7.93848C9.20201 7.92692 9.20482 7.9093 9.20605 7.88574L9.11426 7.89941ZM8.94141 7.92383L8.88477 7.93164C8.88603 7.93574 8.88494 7.93946 8.88574 7.94141C8.88775 7.94623 8.89095 7.95098 8.89355 7.95508C8.89614 7.95914 8.89779 7.96217 8.89844 7.96289L8.94141 7.92383ZM9.13867 7.87988L9.20801 7.86816C9.20795 7.86483 9.20811 7.86188 9.20801 7.85938C9.20606 7.84906 9.20364 7.83932 9.20117 7.83008L9.13867 7.87988Z" fill="#808080" stroke="#808080" stroke-width="1.5"/>
<path d="M7.00065 8.45826C7.07648 8.45826 7.15232 8.44077 7.22232 8.4116C7.29815 8.38243 7.35648 8.34159 7.41482 8.28909C7.51982 8.17825 7.58398 8.03243 7.58398 7.87493C7.58398 7.79909 7.56648 7.72326 7.53732 7.65326C7.50815 7.58326 7.46732 7.5191 7.41482 7.46076C7.35648 7.40826 7.29815 7.36742 7.22232 7.33825C7.01232 7.24492 6.74982 7.29743 6.58648 7.46076C6.48148 7.5716 6.41732 7.72326 6.41732 7.87493C6.41732 7.90993 6.42315 7.95077 6.42898 7.9916C6.43482 8.0266 6.44649 8.0616 6.46399 8.0966C6.47565 8.1316 6.49315 8.16659 6.51648 8.20159C6.53398 8.23076 6.56315 8.25992 6.58648 8.28909C6.69732 8.39409 6.84898 8.45826 7.00065 8.45826Z" fill="#808080"/>
<path d="M4.95768 8.45826C5.03352 8.45826 5.10935 8.44077 5.17935 8.4116C5.25518 8.38243 5.31352 8.34159 5.37185 8.28909C5.39518 8.25992 5.41852 8.23076 5.44185 8.20159C5.46518 8.16659 5.48268 8.1316 5.49435 8.0966C5.51185 8.0616 5.52352 8.0266 5.52935 7.9916C5.53518 7.95077 5.54102 7.90993 5.54102 7.87493C5.54102 7.72326 5.47685 7.5716 5.37185 7.46076C5.31352 7.40826 5.25518 7.36742 5.17935 7.33825C4.96352 7.24492 4.70685 7.29743 4.54352 7.46076C4.43852 7.5716 4.37435 7.72326 4.37435 7.87493C4.37435 7.90993 4.38018 7.95077 4.38602 7.9916C4.39185 8.0266 4.40352 8.0616 4.42102 8.0966C4.43268 8.1316 4.45018 8.16659 4.47351 8.20159C4.49101 8.23076 4.52018 8.25992 4.54352 8.28909C4.65435 8.39409 4.80602 8.45826 4.95768 8.45826Z" fill="#808080"/>
<path d="M9.04167 10.4999C9.1175 10.4999 9.19333 10.4825 9.26333 10.4533C9.33333 10.4241 9.3975 10.3833 9.45583 10.3308C9.56083 10.2199 9.625 10.0683 9.625 9.91661C9.625 9.84078 9.6075 9.76494 9.57833 9.69494C9.54917 9.61911 9.50833 9.55495 9.45583 9.50245C9.24 9.28662 8.84333 9.28662 8.6275 9.50245C8.5225 9.61328 8.45833 9.76495 8.45833 9.91661C8.45833 10.0683 8.5225 10.2199 8.6275 10.3308C8.73833 10.4358 8.89 10.4999 9.04167 10.4999Z" fill="#808080"/>
<path d="M7.00065 10.4999C7.15232 10.4999 7.30398 10.4358 7.41482 10.3308C7.51982 10.2199 7.58398 10.0683 7.58398 9.91661C7.58398 9.84078 7.56648 9.76494 7.53732 9.69494C7.50815 9.61911 7.46732 9.55495 7.41482 9.50245C7.19898 9.28662 6.80232 9.28662 6.58648 9.50245C6.53398 9.55495 6.49315 9.61911 6.46399 9.69494C6.43482 9.76494 6.41732 9.84078 6.41732 9.91661C6.41732 10.0683 6.48148 10.2199 6.58648 10.3308C6.69732 10.4358 6.84898 10.4999 7.00065 10.4999Z" fill="#808080"/>
<path d="M4.95768 10.4999C5.10935 10.4999 5.26102 10.4358 5.37185 10.3308C5.42435 10.2783 5.46518 10.2141 5.49435 10.1383C5.52351 10.0683 5.54102 9.99245 5.54102 9.91662C5.54102 9.84078 5.52351 9.76495 5.49435 9.69495C5.46518 9.61911 5.42435 9.55495 5.37185 9.50245C5.23768 9.36829 5.03352 9.30411 4.84685 9.34494C4.80602 9.35078 4.77101 9.36244 4.73601 9.37994C4.70101 9.39161 4.66601 9.40912 4.63101 9.43246C4.60185 9.44996 4.57268 9.47912 4.54352 9.50245C4.43852 9.61329 4.37435 9.76495 4.37435 9.91662C4.37435 10.0683 4.43852 10.2199 4.54352 10.3308C4.65435 10.4358 4.80602 10.4999 4.95768 10.4999Z" fill="#808080"/>
<path d="M2.04232 5.73999H11.959C12.1982 5.73999 12.3965 5.54166 12.3965 5.30249C12.3965 5.06332 12.1982 4.86499 11.959 4.86499H2.04232C1.80315 4.86499 1.60482 5.06332 1.60482 5.30249C1.60482 5.54166 1.80315 5.73999 2.04232 5.73999Z" fill="#808080"/>
<path d="M4.66667 13.2709H9.33333C11.4625 13.2709 12.6875 12.0459 12.6875 9.91675V4.95841C12.6875 2.82925 11.4625 1.60425 9.33333 1.60425H4.66667C2.5375 1.60425 1.3125 2.82925 1.3125 4.95841V9.91675C1.3125 12.0459 2.5375 13.2709 4.66667 13.2709ZM9.33333 2.47925C11.0017 2.47925 11.8125 3.29008 11.8125 4.95841V9.91675C11.8125 11.5851 11.0017 12.3959 9.33333 12.3959H4.66667C2.99833 12.3959 2.1875 11.5851 2.1875 9.91675V4.95841C2.1875 3.29008 2.99833 2.47925 4.66667 2.47925H9.33333Z" fill="#808080"/>
</svg>
