<svg width="16" height="16" viewBox="0 0 16 16" fill="none" xmlns="http://www.w3.org/2000/svg">
<path d="M11.634 15.1668C10.8807 15.1668 10.0873 14.9868 9.26732 14.6402C8.46732 14.3002 7.66065 13.8335 6.87398 13.2668C6.09398 12.6935 5.34065 12.0535 4.62732 11.3535C3.92065 10.6402 3.28065 9.88683 2.71398 9.1135C2.14065 8.3135 1.68065 7.5135 1.35398 6.74016C1.00732 5.9135 0.833984 5.1135 0.833984 4.36016C0.833984 3.84016 0.927318 3.34683 1.10732 2.88683C1.29398 2.4135 1.59398 1.9735 2.00065 1.5935C2.51398 1.08683 3.10065 0.833496 3.72732 0.833496C3.98732 0.833496 4.25398 0.893496 4.48065 1.00016C4.74065 1.12016 4.96065 1.30016 5.12065 1.54016L6.66732 3.72016C6.80732 3.9135 6.91398 4.10016 6.98732 4.28683C7.07398 4.48683 7.12065 4.68683 7.12065 4.88016C7.12065 5.1335 7.04732 5.38016 6.90732 5.6135C6.80732 5.7935 6.65398 5.98683 6.46065 6.18016L6.00732 6.6535C6.01398 6.6735 6.02065 6.68683 6.02732 6.70016C6.10732 6.84016 6.26732 7.08016 6.57398 7.44016C6.90065 7.8135 7.20732 8.1535 7.51398 8.46683C7.90732 8.8535 8.23398 9.16016 8.54065 9.4135C8.92065 9.7335 9.16732 9.8935 9.31398 9.96683L9.30065 10.0002L9.78732 9.52016C9.99399 9.3135 10.194 9.16016 10.3873 9.06016C10.754 8.8335 11.2207 8.7935 11.6873 8.98683C11.8607 9.06016 12.0473 9.16016 12.2473 9.30016L14.4607 10.8735C14.7073 11.0402 14.8873 11.2535 14.994 11.5068C15.094 11.7602 15.1407 11.9935 15.1407 12.2268C15.1407 12.5468 15.0673 12.8668 14.9273 13.1668C14.7873 13.4668 14.614 13.7268 14.394 13.9668C14.014 14.3868 13.6007 14.6868 13.1207 14.8802C12.6607 15.0668 12.1607 15.1668 11.634 15.1668ZM3.72732 1.8335C3.36065 1.8335 3.02065 1.9935 2.69398 2.3135C2.38732 2.60016 2.17398 2.9135 2.04065 3.2535C1.90065 3.60016 1.83398 3.96683 1.83398 4.36016C1.83398 4.98016 1.98065 5.6535 2.27398 6.34683C2.57398 7.0535 2.99398 7.78683 3.52732 8.52016C4.06065 9.2535 4.66732 9.96683 5.33398 10.6402C6.00065 11.3002 6.72065 11.9135 7.46065 12.4535C8.18065 12.9802 8.92065 13.4068 9.65398 13.7135C10.794 14.2002 11.8607 14.3135 12.7407 13.9468C13.0807 13.8068 13.3807 13.5935 13.654 13.2868C13.8073 13.1202 13.9273 12.9402 14.0273 12.7268C14.1073 12.5602 14.1473 12.3868 14.1473 12.2135C14.1473 12.1068 14.1273 12.0002 14.074 11.8802C14.054 11.8402 14.014 11.7668 13.8873 11.6802L11.674 10.1068C11.5407 10.0135 11.4207 9.94683 11.3073 9.90016C11.1607 9.84016 11.1007 9.78016 10.874 9.92016C10.7407 9.98683 10.6207 10.0868 10.4873 10.2202L9.98065 10.7202C9.72065 10.9735 9.32065 11.0335 9.01398 10.9202L8.83398 10.8402C8.56065 10.6935 8.24065 10.4668 7.88732 10.1668C7.56732 9.8935 7.22065 9.5735 6.80065 9.16016C6.47398 8.82683 6.14732 8.4735 5.80732 8.08016C5.49398 7.7135 5.26732 7.40016 5.12732 7.14016L5.04732 6.94016C5.00732 6.78683 4.99398 6.70016 4.99398 6.60683C4.99398 6.36683 5.08065 6.1535 5.24732 5.98683L5.74732 5.46683C5.88065 5.3335 5.98065 5.20683 6.04732 5.0935C6.10065 5.00683 6.12065 4.9335 6.12065 4.86683C6.12065 4.8135 6.10065 4.7335 6.06732 4.6535C6.02065 4.54683 5.94732 4.42683 5.85398 4.30016L4.30732 2.1135C4.24065 2.02016 4.16065 1.9535 4.06065 1.90683C3.95398 1.86016 3.84065 1.8335 3.72732 1.8335ZM9.30065 10.0068L9.19398 10.4602L9.37399 9.9935C9.34065 9.98683 9.31398 9.9935 9.30065 10.0068Z" fill="#292D32"/>
</svg>
