<svg width="16" height="16" viewBox="0 0 16 16" fill="none" xmlns="http://www.w3.org/2000/svg">
<path d="M11.633 15.1668C10.8797 15.1668 10.0863 14.9868 9.26634 14.6402C8.46634 14.3002 7.65968 13.8335 6.87301 13.2668C6.09301 12.6935 5.33967 12.0535 4.62634 11.3535C3.91967 10.6402 3.27967 9.88683 2.71301 9.1135C2.13967 8.3135 1.67967 7.5135 1.35301 6.74016C1.00634 5.9135 0.833008 5.1135 0.833008 4.36016C0.833008 3.84016 0.926341 3.34683 1.10634 2.88683C1.29301 2.4135 1.59301 1.9735 1.99967 1.5935C2.51301 1.08683 3.09967 0.833496 3.72634 0.833496C3.98634 0.833496 4.25301 0.893496 4.47967 1.00016C4.73967 1.12016 4.95967 1.30016 5.11967 1.54016L6.66634 3.72016C6.80634 3.9135 6.91301 4.10016 6.98634 4.28683C7.07301 4.48683 7.11967 4.68683 7.11967 4.88016C7.11967 5.1335 7.04634 5.38016 6.90634 5.6135C6.80634 5.7935 6.65301 5.98683 6.45967 6.18016L6.00634 6.6535C6.01301 6.6735 6.01967 6.68683 6.02634 6.70016C6.10634 6.84016 6.26634 7.08016 6.57301 7.44016C6.89967 7.8135 7.20634 8.1535 7.51301 8.46683C7.90634 8.8535 8.23301 9.16016 8.53967 9.4135C8.91967 9.7335 9.16634 9.8935 9.31301 9.96683L9.29967 10.0002L9.78634 9.52016C9.99301 9.3135 10.193 9.16016 10.3863 9.06016C10.753 8.8335 11.2197 8.7935 11.6863 8.98683C11.8597 9.06016 12.0463 9.16016 12.2463 9.30016L14.4597 10.8735C14.7063 11.0402 14.8863 11.2535 14.993 11.5068C15.093 11.7602 15.1397 11.9935 15.1397 12.2268C15.1397 12.5468 15.0663 12.8668 14.9263 13.1668C14.7863 13.4668 14.613 13.7268 14.393 13.9668C14.013 14.3868 13.5997 14.6868 13.1197 14.8802C12.6597 15.0668 12.1597 15.1668 11.633 15.1668ZM3.72634 1.8335C3.35967 1.8335 3.01967 1.9935 2.69301 2.3135C2.38634 2.60016 2.17301 2.9135 2.03967 3.2535C1.89967 3.60016 1.83301 3.96683 1.83301 4.36016C1.83301 4.98016 1.97967 5.6535 2.27301 6.34683C2.57301 7.0535 2.99301 7.78683 3.52634 8.52016C4.05967 9.2535 4.66634 9.96683 5.33301 10.6402C5.99967 11.3002 6.71967 11.9135 7.45967 12.4535C8.17967 12.9802 8.91967 13.4068 9.65301 13.7135C10.793 14.2002 11.8597 14.3135 12.7397 13.9468C13.0797 13.8068 13.3797 13.5935 13.653 13.2868C13.8063 13.1202 13.9263 12.9402 14.0263 12.7268C14.1063 12.5602 14.1463 12.3868 14.1463 12.2135C14.1463 12.1068 14.1263 12.0002 14.073 11.8802C14.053 11.8402 14.013 11.7668 13.8863 11.6802L11.673 10.1068C11.5397 10.0135 11.4197 9.94683 11.3063 9.90016C11.1597 9.84016 11.0997 9.78016 10.873 9.92016C10.7397 9.98683 10.6197 10.0868 10.4863 10.2202L9.97968 10.7202C9.71968 10.9735 9.31968 11.0335 9.01301 10.9202L8.83301 10.8402C8.55967 10.6935 8.23967 10.4668 7.88634 10.1668C7.56634 9.8935 7.21967 9.5735 6.79967 9.16016C6.47301 8.82683 6.14634 8.4735 5.80634 8.08016C5.49301 7.7135 5.26634 7.40016 5.12634 7.14016L5.04634 6.94016C5.00634 6.78683 4.99301 6.70016 4.99301 6.60683C4.99301 6.36683 5.07967 6.1535 5.24634 5.98683L5.74634 5.46683C5.87967 5.3335 5.97967 5.20683 6.04634 5.0935C6.09967 5.00683 6.11967 4.9335 6.11967 4.86683C6.11967 4.8135 6.09967 4.7335 6.06634 4.6535C6.01967 4.54683 5.94634 4.42683 5.85301 4.30016L4.30634 2.1135C4.23967 2.02016 4.15967 1.9535 4.05967 1.90683C3.95301 1.86016 3.83967 1.8335 3.72634 1.8335ZM9.29967 10.0068L9.19301 10.4602L9.37301 9.9935C9.33967 9.98683 9.31301 9.9935 9.29967 10.0068Z" fill="#0C5137"/>
<path d="M12.3333 6.49984C12.06 6.49984 11.8333 6.27317 11.8333 5.99984C11.8333 5.75984 11.5933 5.25984 11.1933 4.83317C10.8 4.41317 10.3667 4.1665 10 4.1665C9.72667 4.1665 9.5 3.93984 9.5 3.6665C9.5 3.39317 9.72667 3.1665 10 3.1665C10.6467 3.1665 11.3267 3.51317 11.92 4.1465C12.4733 4.73984 12.8333 5.4665 12.8333 5.99984C12.8333 6.27317 12.6067 6.49984 12.3333 6.49984Z" fill="#0C5137"/>
<path d="M14.6667 6.50016C14.3933 6.50016 14.1667 6.2735 14.1667 6.00016C14.1667 3.70016 12.3 1.8335 10 1.8335C9.72667 1.8335 9.5 1.60683 9.5 1.3335C9.5 1.06016 9.72667 0.833496 10 0.833496C12.8467 0.833496 15.1667 3.1535 15.1667 6.00016C15.1667 6.2735 14.94 6.50016 14.6667 6.50016Z" fill="#0C5137"/>
</svg>
