<svg width="14" height="14" viewBox="0 0 14 14" fill="none" xmlns="http://www.w3.org/2000/svg">
<path d="M10.5 3.49999C10.1442 3.49999 9.81752 3.29582 9.65418 2.98082L9.23418 2.13499C8.96585 1.60416 8.26585 1.16666 7.67085 1.16666H6.33502C5.73418 1.16666 5.03418 1.60416 4.76585 2.13499L4.34585 2.98082C4.18252 3.29582 3.85585 3.49999 3.50002 3.49999C2.23418 3.49999 1.23085 4.56749 1.31252 5.82749L1.61585 10.6458C1.68585 11.8475 2.33335 12.8333 3.94335 12.8333H10.0567C11.6667 12.8333 12.3083 11.8475 12.3842 10.6458L12.6875 5.82749C12.7692 4.56749 11.7658 3.49999 10.5 3.49999ZM6.12502 4.22916H7.87502C8.11418 4.22916 8.31252 4.42749 8.31252 4.66666C8.31252 4.90582 8.11418 5.10416 7.87502 5.10416H6.12502C5.88585 5.10416 5.68752 4.90582 5.68752 4.66666C5.68752 4.42749 5.88585 4.22916 6.12502 4.22916ZM7.00002 10.57C5.91502 10.57 5.02835 9.68916 5.02835 8.59832C5.02835 7.50749 5.90918 6.62666 7.00002 6.62666C8.09085 6.62666 8.97168 7.50749 8.97168 8.59832C8.97168 9.68916 8.08502 10.57 7.00002 10.57Z" fill="white"/>
</svg>
