<svg width="20" height="20" viewBox="0 0 20 20" fill="none" xmlns="http://www.w3.org/2000/svg">
<path d="M5.19262 14.5674L7.30762 16.6824" stroke="#FF3B30" stroke-width="1.5" stroke-linecap="round" stroke-linejoin="round"/>
<path d="M5.19262 16.6824L7.30762 14.5674" stroke="#FF3B30" stroke-width="1.5" stroke-linecap="round" stroke-linejoin="round"/>
<path d="M9.88008 9.1525C9.95508 9.145 10.0451 9.145 10.1276 9.1525C11.9126 9.0925 13.3301 7.63 13.3301 5.83C13.3301 3.9925 11.8451 2.5 10.0001 2.5C8.16258 2.5 6.67008 3.9925 6.67008 5.83C6.67758 7.63 8.09508 9.0925 9.88008 9.1525Z" stroke="#FF3B30" stroke-width="1.5" stroke-linecap="round" stroke-linejoin="round"/>
<path d="M10.0004 17.3573C11.3654 17.3573 12.7229 17.0123 13.7579 16.3223C15.5729 15.1073 15.5729 13.1273 13.7579 11.9198C11.6954 10.5398 8.31289 10.5398 6.25039 11.9198" stroke="#FF3B30" stroke-width="1.5" stroke-linecap="round" stroke-linejoin="round"/>
</svg>
