<svg width="16" height="16" viewBox="0 0 16 16" fill="none" xmlns="http://www.w3.org/2000/svg">
<mask id="path-1-inside-1_2428_1999" fill="white">
<path d="M8.93344 11.6134H7.2601C6.16677 11.6134 5.2801 10.6934 5.2801 9.56005C5.2801 9.28672 5.50677 9.06005 5.7801 9.06005C6.05344 9.06005 6.2801 9.28672 6.2801 9.56005C6.2801 10.1401 6.7201 10.6134 7.2601 10.6134H8.93344C9.36677 10.6134 9.72677 10.2267 9.72677 9.76005C9.72677 9.18005 9.5201 9.06672 9.1801 8.94672L6.49344 8.00005C5.97344 7.82005 5.27344 7.43339 5.27344 6.24005C5.27344 5.21339 6.0801 4.38672 7.06677 4.38672H8.7401C9.83344 4.38672 10.7201 5.30672 10.7201 6.44005C10.7201 6.71339 10.4934 6.94005 10.2201 6.94005C9.94677 6.94005 9.7201 6.71339 9.7201 6.44005C9.7201 5.86005 9.2801 5.38672 8.7401 5.38672H7.06677C6.63344 5.38672 6.27344 5.77339 6.27344 6.24005C6.27344 6.82005 6.4801 6.93339 6.8201 7.05339L9.50677 8.00005C10.0268 8.18005 10.7268 8.56672 10.7268 9.76005C10.7201 10.7801 9.9201 11.6134 8.93344 11.6134Z"/>
</mask>
<path d="M8.93344 11.6134H7.2601C6.16677 11.6134 5.2801 10.6934 5.2801 9.56005C5.2801 9.28672 5.50677 9.06005 5.7801 9.06005C6.05344 9.06005 6.2801 9.28672 6.2801 9.56005C6.2801 10.1401 6.7201 10.6134 7.2601 10.6134H8.93344C9.36677 10.6134 9.72677 10.2267 9.72677 9.76005C9.72677 9.18005 9.5201 9.06672 9.1801 8.94672L6.49344 8.00005C5.97344 7.82005 5.27344 7.43339 5.27344 6.24005C5.27344 5.21339 6.0801 4.38672 7.06677 4.38672H8.7401C9.83344 4.38672 10.7201 5.30672 10.7201 6.44005C10.7201 6.71339 10.4934 6.94005 10.2201 6.94005C9.94677 6.94005 9.7201 6.71339 9.7201 6.44005C9.7201 5.86005 9.2801 5.38672 8.7401 5.38672H7.06677C6.63344 5.38672 6.27344 5.77339 6.27344 6.24005C6.27344 6.82005 6.4801 6.93339 6.8201 7.05339L9.50677 8.00005C10.0268 8.18005 10.7268 8.56672 10.7268 9.76005C10.7201 10.7801 9.9201 11.6134 8.93344 11.6134Z" fill="#0C5137"/>
<path d="M9.1801 8.94672L9.67933 7.53223L9.6786 7.53197L9.1801 8.94672ZM6.49344 8.00005L6.99194 6.58529L6.9841 6.58257L6.49344 8.00005ZM6.8201 7.05339L6.32087 8.46787L6.32161 8.46813L6.8201 7.05339ZM9.50677 8.00005L9.00827 9.41482L9.0161 9.41753L9.50677 8.00005ZM10.7268 9.76005L12.2268 9.76986V9.76005H10.7268ZM8.93344 10.1134H7.2601V13.1134H8.93344V10.1134ZM7.2601 10.1134C7.04638 10.1134 6.7801 9.91708 6.7801 9.56005H3.7801C3.7801 11.4697 5.28716 13.1134 7.2601 13.1134V10.1134ZM6.7801 9.56005C6.7801 10.1151 6.3352 10.5601 5.7801 10.5601V7.56005C4.67834 7.56005 3.7801 8.45829 3.7801 9.56005H6.7801ZM5.7801 10.5601C5.22501 10.5601 4.7801 10.1151 4.7801 9.56005H7.7801C7.7801 8.45829 6.88186 7.56005 5.7801 7.56005V10.5601ZM4.7801 9.56005C4.7801 10.8643 5.79121 12.1134 7.2601 12.1134V9.11339C7.44322 9.11339 7.58548 9.19612 7.66594 9.28262C7.74486 9.36747 7.7801 9.46846 7.7801 9.56005H4.7801ZM7.2601 12.1134H8.93344V9.11339H7.2601V12.1134ZM8.93344 12.1134C10.2957 12.1134 11.2268 10.9509 11.2268 9.76005H8.22677C8.22677 9.60586 8.2861 9.45641 8.39426 9.34014C8.50314 9.22307 8.69036 9.11339 8.93344 9.11339V12.1134ZM11.2268 9.76005C11.2268 9.32618 11.1561 8.74055 10.7449 8.23468C10.3565 7.757 9.83795 7.58821 9.67933 7.53223L8.68087 10.3612C8.7542 10.3871 8.73584 10.3843 8.69197 10.3604C8.63375 10.3287 8.5227 10.2571 8.41702 10.1271C8.19411 9.85289 8.22677 9.61392 8.22677 9.76005H11.2268ZM9.6786 7.53197L6.99193 6.58531L5.99494 9.4148L8.68161 10.3615L9.6786 7.53197ZM6.9841 6.58257C6.82745 6.52835 6.80008 6.4929 6.80648 6.50006C6.81361 6.50803 6.81118 6.51008 6.80384 6.48948C6.79531 6.46557 6.77344 6.39089 6.77344 6.24005H3.77344C3.77344 7.1563 4.05338 7.92199 4.57039 8.50004C5.0568 9.04387 5.63942 9.29176 6.00277 9.41753L6.9841 6.58257ZM6.77344 6.24005C6.77344 5.99864 6.95106 5.88672 7.06677 5.88672V2.88672C5.20915 2.88672 3.77344 4.42813 3.77344 6.24005H6.77344ZM7.06677 5.88672H8.7401V2.88672H7.06677V5.88672ZM8.7401 5.88672C8.95383 5.88672 9.2201 6.08302 9.2201 6.44005H12.2201C12.2201 4.53042 10.713 2.88672 8.7401 2.88672V5.88672ZM9.2201 6.44005C9.2201 5.88496 9.66501 5.44005 10.2201 5.44005V8.44005C11.3219 8.44005 12.2201 7.54181 12.2201 6.44005H9.2201ZM10.2201 5.44005C10.7752 5.44005 11.2201 5.88496 11.2201 6.44005H8.2201C8.2201 7.54181 9.11834 8.44005 10.2201 8.44005V5.44005ZM11.2201 6.44005C11.2201 5.1358 10.209 3.88672 8.7401 3.88672V6.88672C8.55699 6.88672 8.41473 6.80399 8.33427 6.71748C8.25535 6.63263 8.2201 6.53164 8.2201 6.44005H11.2201ZM8.7401 3.88672H7.06677V6.88672H8.7401V3.88672ZM7.06677 3.88672C5.70451 3.88672 4.77344 5.04916 4.77344 6.24005H7.77344C7.77344 6.39424 7.7141 6.54369 7.60595 6.65997C7.49707 6.77703 7.30985 6.88672 7.06677 6.88672V3.88672ZM4.77344 6.24005C4.77344 6.67392 4.84411 7.25956 5.25536 7.76542C5.64369 8.2431 6.16226 8.41189 6.32087 8.46787L7.31933 5.6389C7.24601 5.61302 7.26437 5.61582 7.30824 5.63969C7.36646 5.67138 7.47751 5.74302 7.58319 5.87302C7.8061 6.14721 7.77344 6.38618 7.77344 6.24005H4.77344ZM6.32161 8.46813L9.00828 9.4148L10.0053 6.58531L7.3186 5.63864L6.32161 8.46813ZM9.0161 9.41753C9.17276 9.47176 9.20013 9.5072 9.19373 9.50004C9.1866 9.49208 9.18903 9.49003 9.19637 9.51062C9.20489 9.53454 9.22677 9.60922 9.22677 9.76005H12.2268C12.2268 8.8438 11.9468 8.07811 11.4298 7.50006C10.9434 6.95624 10.3608 6.70835 9.99744 6.58257L9.0161 9.41753ZM9.2268 9.75025C9.22514 10.0053 9.03709 10.1134 8.93344 10.1134V13.1134C10.8031 13.1134 12.2151 11.5548 12.2267 9.76986L9.2268 9.75025Z" fill="#0C5137" mask="url(#path-1-inside-1_2428_1999)"/>
<mask id="path-3-inside-2_2428_1999" fill="white">
<path d="M8 12.5C7.72667 12.5 7.5 12.2733 7.5 12V4C7.5 3.72667 7.72667 3.5 8 3.5C8.27333 3.5 8.5 3.72667 8.5 4V12C8.5 12.2733 8.27333 12.5 8 12.5Z"/>
</mask>
<path d="M8 12.5C7.72667 12.5 7.5 12.2733 7.5 12V4C7.5 3.72667 7.72667 3.5 8 3.5C8.27333 3.5 8.5 3.72667 8.5 4V12C8.5 12.2733 8.27333 12.5 8 12.5Z" fill="#0C5137"/>
<path d="M8 11C8.55509 11 9 11.4449 9 12H6C6 13.1018 6.89824 14 8 14V11ZM9 12V4H6V12H9ZM9 4C9 4.55509 8.55509 5 8 5V2C6.89824 2 6 2.89824 6 4H9ZM8 5C7.44491 5 7 4.55509 7 4H10C10 2.89824 9.10176 2 8 2V5ZM7 4V12H10V4H7ZM7 12C7 11.4449 7.44491 11 8 11V14C9.10176 14 10 13.1018 10 12H7Z" fill="#0C5137" mask="url(#path-3-inside-2_2428_1999)"/>
<mask id="path-5-inside-3_2428_1999" fill="white">
<path d="M10.0007 15.1666H6.00065C2.38065 15.1666 0.833984 13.6199 0.833984 9.99992V5.99992C0.833984 2.37992 2.38065 0.833252 6.00065 0.833252H10.0007C13.6207 0.833252 15.1673 2.37992 15.1673 5.99992V9.99992C15.1673 13.6199 13.6207 15.1666 10.0007 15.1666ZM6.00065 1.83325C2.92732 1.83325 1.83398 2.92659 1.83398 5.99992V9.99992C1.83398 13.0733 2.92732 14.1666 6.00065 14.1666H10.0007C13.074 14.1666 14.1673 13.0733 14.1673 9.99992V5.99992C14.1673 2.92659 13.074 1.83325 10.0007 1.83325H6.00065Z"/>
</mask>
<path d="M10.0007 15.1666H6.00065C2.38065 15.1666 0.833984 13.6199 0.833984 9.99992V5.99992C0.833984 2.37992 2.38065 0.833252 6.00065 0.833252H10.0007C13.6207 0.833252 15.1673 2.37992 15.1673 5.99992V9.99992C15.1673 13.6199 13.6207 15.1666 10.0007 15.1666ZM6.00065 1.83325C2.92732 1.83325 1.83398 2.92659 1.83398 5.99992V9.99992C1.83398 13.0733 2.92732 14.1666 6.00065 14.1666H10.0007C13.074 14.1666 14.1673 13.0733 14.1673 9.99992V5.99992C14.1673 2.92659 13.074 1.83325 10.0007 1.83325H6.00065Z" fill="#0C5137"/>
<path d="M10.0007 13.6666H6.00065V16.6666H10.0007V13.6666ZM6.00065 13.6666C4.36284 13.6666 3.55126 13.3109 3.12048 12.8801C2.6897 12.4493 2.33398 11.6377 2.33398 9.99992H-0.666016C-0.666016 11.9821 -0.248398 13.7539 0.999158 15.0014C2.24671 16.249 4.01846 16.6666 6.00065 16.6666V13.6666ZM2.33398 9.99992V5.99992H-0.666016V9.99992H2.33398ZM2.33398 5.99992C2.33398 4.36211 2.6897 3.55052 3.12048 3.11975C3.55126 2.68897 4.36284 2.33325 6.00065 2.33325V-0.666748C4.01846 -0.666748 2.24671 -0.24913 0.999158 0.998425C-0.248398 2.24598 -0.666016 4.01773 -0.666016 5.99992H2.33398ZM6.00065 2.33325H10.0007V-0.666748H6.00065V2.33325ZM10.0007 2.33325C11.6385 2.33325 12.45 2.68897 12.8808 3.11975C13.3116 3.55052 13.6673 4.36211 13.6673 5.99992H16.6673C16.6673 4.01773 16.2497 2.24598 15.0021 0.998425C13.7546 -0.24913 11.9828 -0.666748 10.0007 -0.666748V2.33325ZM13.6673 5.99992V9.99992H16.6673V5.99992H13.6673ZM13.6673 9.99992C13.6673 11.6377 13.3116 12.4493 12.8808 12.8801C12.45 13.3109 11.6385 13.6666 10.0007 13.6666V16.6666C11.9828 16.6666 13.7546 16.249 15.0021 15.0014C16.2497 13.7539 16.6673 11.9821 16.6673 9.99992H13.6673ZM6.00065 0.333252C4.35815 0.333252 2.79778 0.609798 1.70416 1.70343C0.61053 2.79705 0.333984 4.35742 0.333984 5.99992H3.33398C3.33398 4.56908 3.60411 4.04612 3.82548 3.82475C4.04685 3.60337 4.56981 3.33325 6.00065 3.33325V0.333252ZM0.333984 5.99992V9.99992H3.33398V5.99992H0.333984ZM0.333984 9.99992C0.333984 11.6424 0.61053 13.2028 1.70416 14.2964C2.79778 15.39 4.35815 15.6666 6.00065 15.6666V12.6666C4.56981 12.6666 4.04685 12.3965 3.82548 12.1751C3.60411 11.9537 3.33398 11.4308 3.33398 9.99992H0.333984ZM6.00065 15.6666H10.0007V12.6666H6.00065V15.6666ZM10.0007 15.6666C11.6431 15.6666 13.2035 15.39 14.2971 14.2964C15.3908 13.2028 15.6673 11.6424 15.6673 9.99992H12.6673C12.6673 11.4308 12.3972 11.9537 12.1758 12.1751C11.9545 12.3965 11.4315 12.6666 10.0007 12.6666V15.6666ZM15.6673 9.99992V5.99992H12.6673V9.99992H15.6673ZM15.6673 5.99992C15.6673 4.35742 15.3908 2.79705 14.2971 1.70343C13.2035 0.609798 11.6431 0.333252 10.0007 0.333252V3.33325C11.4315 3.33325 11.9545 3.60337 12.1758 3.82475C12.3972 4.04612 12.6673 4.56908 12.6673 5.99992H15.6673ZM10.0007 0.333252H6.00065V3.33325H10.0007V0.333252Z" fill="#0C5137" mask="url(#path-5-inside-3_2428_1999)"/>
</svg>
