<svg width="18" height="19" viewBox="0 0 18 19" fill="none" xmlns="http://www.w3.org/2000/svg">
<path d="M11.25 17.5625H6.75C2.6775 17.5625 0.9375 15.8225 0.9375 11.75V7.25C0.9375 3.1775 2.6775 1.4375 6.75 1.4375H8.25C8.5575 1.4375 8.8125 1.6925 8.8125 2C8.8125 2.3075 8.5575 2.5625 8.25 2.5625H6.75C3.2925 2.5625 2.0625 3.7925 2.0625 7.25V11.75C2.0625 15.2075 3.2925 16.4375 6.75 16.4375H11.25C14.7075 16.4375 15.9375 15.2075 15.9375 11.75V10.25C15.9375 9.9425 16.1925 9.6875 16.5 9.6875C16.8075 9.6875 17.0625 9.9425 17.0625 10.25V11.75C17.0625 15.8225 15.3225 17.5625 11.25 17.5625Z" fill="#0C5137"/>
<path d="M6.37549 13.7674C5.91799 13.7674 5.49799 13.6024 5.19049 13.3024C4.82299 12.9349 4.66549 12.4024 4.74799 11.8399L5.07049 9.58242C5.13049 9.14742 5.41549 8.58492 5.72299 8.27742L11.633 2.36742C13.1255 0.874922 14.6405 0.874922 16.133 2.36742C16.9505 3.18492 17.318 4.01742 17.243 4.84992C17.1755 5.52492 16.8155 6.18492 16.133 6.85992L10.223 12.7699C9.91549 13.0774 9.35299 13.3624 8.91799 13.4224L6.66049 13.7449C6.56299 13.7674 6.46549 13.7674 6.37549 13.7674ZM12.428 3.16242L6.51799 9.07242C6.37549 9.21492 6.21049 9.54492 6.18049 9.73992L5.85799 11.9974C5.82799 12.2149 5.87299 12.3949 5.98549 12.5074C6.09799 12.6199 6.27799 12.6649 6.49549 12.6349L8.75299 12.3124C8.94799 12.2824 9.28549 12.1174 9.42049 11.9749L15.3305 6.06492C15.818 5.57742 16.073 5.14242 16.1105 4.73742C16.1555 4.24992 15.9005 3.73242 15.3305 3.15492C14.1305 1.95492 13.3055 2.29242 12.428 3.16242Z" fill="#0C5137"/>
<path d="M14.8877 7.8727C14.8352 7.8727 14.7827 7.8652 14.7377 7.8502C12.7652 7.2952 11.1977 5.7277 10.6427 3.7552C10.5602 3.4552 10.7327 3.1477 11.0327 3.0577C11.3327 2.9752 11.6402 3.1477 11.7227 3.4477C12.1727 5.0452 13.4402 6.3127 15.0377 6.7627C15.3377 6.8452 15.5102 7.1602 15.4277 7.4602C15.3602 7.7152 15.1352 7.8727 14.8877 7.8727Z" fill="#0C5137"/>
</svg>
