<svg width="20" height="20" viewBox="0 0 20 20" fill="none" xmlns="http://www.w3.org/2000/svg">
<mask id="path-1-inside-1_1096_2857" fill="white">
<path d="M10.8918 18.9586C11.2918 18.9586 11.6918 18.8586 12.0585 18.6586C12.8001 18.2419 13.2419 17.5003 13.2419 16.6586V12.2003C13.2419 11.7753 13.5169 11.1503 13.7752 10.8253L16.9419 7.50027C17.4669 6.97527 17.8752 6.0586 17.8752 5.3836V3.45028C17.8752 2.10862 16.8585 1.05859 15.5668 1.05859H4.45019C3.17519 1.05859 2.14184 2.09194 2.14184 3.36694V5.21694C2.14184 6.09194 2.66683 7.10026 3.16683 7.59192C3.40849 7.83359 3.80849 7.83359 4.05016 7.59192C4.29183 7.35026 4.29183 6.95026 4.05016 6.70859C3.74183 6.40026 3.39184 5.70861 3.39184 5.21694V3.36694C3.39184 2.78361 3.86686 2.30859 4.45019 2.30859H15.5668C16.1585 2.30859 16.6252 2.80862 16.6252 3.45028V5.3836C16.6252 5.69193 16.3752 6.30028 16.0502 6.62528L12.8418 10.0003C12.4168 10.5253 12.0002 11.4086 12.0002 12.2003V16.6586C12.0002 17.2086 11.6252 17.4753 11.4585 17.5669C11.1002 17.7669 10.6752 17.7586 10.3418 17.5586L9.17518 16.8086C8.93351 16.6669 8.70017 16.2086 8.70017 15.9003C8.70017 15.5586 8.41684 15.2753 8.07517 15.2753C7.73351 15.2753 7.45017 15.5586 7.45017 15.9003C7.45017 16.6503 7.91686 17.5086 8.50852 17.8669L9.66682 18.6169C10.0418 18.8419 10.4668 18.9586 10.8918 18.9586Z"/>
</mask>
<path d="M10.8918 18.9586C11.2918 18.9586 11.6918 18.8586 12.0585 18.6586C12.8001 18.2419 13.2419 17.5003 13.2419 16.6586V12.2003C13.2419 11.7753 13.5169 11.1503 13.7752 10.8253L16.9419 7.50027C17.4669 6.97527 17.8752 6.0586 17.8752 5.3836V3.45028C17.8752 2.10862 16.8585 1.05859 15.5668 1.05859H4.45019C3.17519 1.05859 2.14184 2.09194 2.14184 3.36694V5.21694C2.14184 6.09194 2.66683 7.10026 3.16683 7.59192C3.40849 7.83359 3.80849 7.83359 4.05016 7.59192C4.29183 7.35026 4.29183 6.95026 4.05016 6.70859C3.74183 6.40026 3.39184 5.70861 3.39184 5.21694V3.36694C3.39184 2.78361 3.86686 2.30859 4.45019 2.30859H15.5668C16.1585 2.30859 16.6252 2.80862 16.6252 3.45028V5.3836C16.6252 5.69193 16.3752 6.30028 16.0502 6.62528L12.8418 10.0003C12.4168 10.5253 12.0002 11.4086 12.0002 12.2003V16.6586C12.0002 17.2086 11.6252 17.4753 11.4585 17.5669C11.1002 17.7669 10.6752 17.7586 10.3418 17.5586L9.17518 16.8086C8.93351 16.6669 8.70017 16.2086 8.70017 15.9003C8.70017 15.5586 8.41684 15.2753 8.07517 15.2753C7.73351 15.2753 7.45017 15.5586 7.45017 15.9003C7.45017 16.6503 7.91686 17.5086 8.50852 17.8669L9.66682 18.6169C10.0418 18.8419 10.4668 18.9586 10.8918 18.9586Z" fill="#292D32"/>
<path d="M12.0585 18.6586L12.7932 19.9664L12.785 19.971L12.7768 19.9755L12.0585 18.6586ZM13.7752 10.8253L12.601 9.8919L12.6427 9.83937L12.689 9.79078L13.7752 10.8253ZM16.9419 7.50027L15.8556 6.46579L15.8683 6.45254L15.8812 6.43961L16.9419 7.50027ZM3.16683 7.59192L4.21858 6.52235L4.22749 6.53126L3.16683 7.59192ZM16.0502 6.62528L14.963 5.5918L14.9761 5.57804L14.9895 5.56462L16.0502 6.62528ZM12.8418 10.0003L11.6759 9.05647L11.7135 9.01006L11.7547 8.96679L12.8418 10.0003ZM11.4585 17.5669L10.7274 16.2571L10.7356 16.2526L11.4585 17.5669ZM10.3418 17.5586L9.57007 18.8448L9.55018 18.8329L9.53067 18.8204L10.3418 17.5586ZM9.17518 16.8086L9.93376 15.5146L9.96038 15.5302L9.98633 15.5469L9.17518 16.8086ZM8.50852 17.8669L9.28558 16.5839L9.30486 16.5956L9.32379 16.6078L8.50852 17.8669ZM9.66682 18.6169L8.89507 19.9032L8.87308 19.89L8.85155 19.876L9.66682 18.6169ZM10.8918 17.4586C11.0402 17.4586 11.1933 17.4219 11.3402 17.3418L12.7768 19.9755C12.1903 20.2953 11.5434 20.4586 10.8918 20.4586V17.4586ZM11.3238 17.3509C11.6041 17.1934 11.7419 16.9452 11.7419 16.6586H14.7419C14.7419 18.0553 13.9962 19.2905 12.7932 19.9664L11.3238 17.3509ZM11.7419 16.6586V12.2003H14.7419V16.6586H11.7419ZM11.7419 12.2003C11.7419 11.7141 11.886 11.247 12.0209 10.9132C12.1619 10.5644 12.3615 10.1931 12.601 9.8919L14.9494 11.7586C14.9495 11.7586 14.9477 11.7608 14.9444 11.7653C14.9412 11.7699 14.9368 11.7762 14.9313 11.7845C14.9203 11.8012 14.9068 11.8232 14.8917 11.8502C14.8609 11.9053 14.8295 11.9701 14.8024 12.0374C14.7748 12.1054 14.7568 12.1631 14.7469 12.2041C14.7358 12.2502 14.7419 12.2463 14.7419 12.2003H11.7419ZM12.689 9.79078L15.8556 6.46579L18.0281 8.53475L14.8614 11.8597L12.689 9.79078ZM15.8812 6.43961C15.9872 6.33356 16.1245 6.13806 16.2336 5.89143C16.346 5.63717 16.3752 5.45018 16.3752 5.3836H19.3752C19.3752 5.99201 19.2002 6.60086 18.9772 7.10494C18.7509 7.61664 18.4215 8.14198 18.0025 8.56093L15.8812 6.43961ZM16.3752 5.3836V3.45028H19.3752V5.3836H16.3752ZM16.3752 3.45028C16.3752 2.88786 15.9817 2.55859 15.5668 2.55859V-0.441406C17.7353 -0.441406 19.3752 1.32937 19.3752 3.45028H16.3752ZM15.5668 2.55859H4.45019V-0.441406H15.5668V2.55859ZM4.45019 2.55859C4.00362 2.55859 3.64184 2.92037 3.64184 3.36694H0.641846C0.641846 1.26352 2.34677 -0.441406 4.45019 -0.441406V2.55859ZM3.64184 3.36694V5.21694H0.641846V3.36694H3.64184ZM3.64184 5.21694C3.64184 5.37609 3.69618 5.63015 3.83054 5.92344C3.96481 6.21651 4.12439 6.42981 4.21854 6.52239L2.11512 8.66146C1.70927 8.26237 1.35636 7.72568 1.10313 7.17293C0.850002 6.6204 0.641846 5.93279 0.641846 5.21694H3.64184ZM4.22749 6.53126C3.88337 6.18714 3.33362 6.18714 2.9895 6.53126L5.11082 8.65258C4.28337 9.48004 2.93362 9.48004 2.10617 8.65258L4.22749 6.53126ZM2.9895 6.53126C2.64538 6.87538 2.64538 7.42513 2.9895 7.76925L5.11082 5.64793C5.93827 6.47539 5.93827 7.82513 5.11082 8.65258L2.9895 6.53126ZM2.9895 7.76925C2.6738 7.45355 2.41851 7.03919 2.24359 6.66043C2.07262 6.29023 1.89184 5.76813 1.89184 5.21694H4.89184C4.89184 5.17124 4.88524 5.17051 4.89909 5.2216C4.91158 5.26767 4.93392 5.33062 4.96717 5.40261C5.00013 5.47399 5.03691 5.5393 5.07069 5.59068C5.10732 5.64641 5.12442 5.66153 5.11082 5.64793L2.9895 7.76925ZM1.89184 5.21694V3.36694H4.89184V5.21694H1.89184ZM1.89184 3.36694C1.89184 1.95518 3.03843 0.808594 4.45019 0.808594V3.80859C4.69529 3.80859 4.89184 3.61204 4.89184 3.36694H1.89184ZM4.45019 0.808594H15.5668V3.80859H4.45019V0.808594ZM15.5668 0.808594C17.0892 0.808594 18.1252 2.08625 18.1252 3.45028H15.1252C15.1252 3.49637 15.1438 3.57892 15.2189 3.6597C15.2967 3.74342 15.4236 3.80859 15.5668 3.80859V0.808594ZM18.1252 3.45028V5.3836H15.1252V3.45028H18.1252ZM18.1252 5.3836C18.1252 5.84512 17.9674 6.29992 17.8295 6.60911C17.6796 6.9453 17.444 7.35274 17.1108 7.68594L14.9895 5.56462C14.9777 5.57642 14.9892 5.56702 15.0154 5.52639C15.0399 5.48828 15.0662 5.43981 15.0896 5.38727C15.1134 5.33394 15.1272 5.29223 15.133 5.27049C15.1358 5.26032 15.1347 5.26218 15.1326 5.27558C15.1308 5.28697 15.1252 5.3249 15.1252 5.3836H18.1252ZM17.1373 7.65876L13.929 11.0338L11.7547 8.96679L14.963 5.5918L17.1373 7.65876ZM14.0077 10.9441C13.8937 11.0849 13.756 11.3082 13.6504 11.567C13.5431 11.83 13.5002 12.0525 13.5002 12.2003H10.5002C10.5002 10.9716 11.1019 9.76555 11.6759 9.05647L14.0077 10.9441ZM13.5002 12.2003V16.6586H10.5002V12.2003H13.5002ZM13.5002 16.6586C13.5002 18.0211 12.5379 18.6851 12.1814 18.8812L10.7356 16.2526C10.7085 16.2675 10.6598 16.297 10.6092 16.362C10.5806 16.3986 10.551 16.4474 10.5294 16.5067C10.5072 16.5679 10.5002 16.6217 10.5002 16.6586H13.5002ZM12.1896 18.8767C11.3721 19.333 10.3736 19.327 9.57007 18.8448L11.1136 16.2724C10.9767 16.1902 10.8282 16.2009 10.7275 16.2571L12.1896 18.8767ZM9.53067 18.8204L8.36403 18.0704L9.98633 15.5469L11.153 16.2968L9.53067 18.8204ZM8.4166 18.1027C7.94174 17.8243 7.65947 17.3853 7.51529 17.1072C7.36041 16.8083 7.20017 16.3752 7.20017 15.9003H10.2002C10.2002 15.7994 10.1831 15.7415 10.1812 15.7349C10.1776 15.7225 10.1764 15.7221 10.1788 15.7267C10.1817 15.7323 10.1771 15.7212 10.1561 15.6957C10.1417 15.6783 10.0728 15.5961 9.93376 15.5146L8.4166 18.1027ZM7.20017 15.9003C7.20017 16.387 7.58841 16.7753 8.07517 16.7753V13.7753C9.24527 13.7753 10.2002 14.7302 10.2002 15.9003H7.20017ZM8.07517 16.7753C8.56193 16.7753 8.95017 16.387 8.95017 15.9003H5.95017C5.95017 14.7302 6.90508 13.7753 8.07517 13.7753V16.7753ZM8.95017 15.9003C8.95017 15.9823 8.98201 16.1412 9.07743 16.3179C9.12158 16.3997 9.16982 16.467 9.21381 16.5164C9.259 16.5672 9.28666 16.5846 9.28558 16.5839L7.73147 19.15C7.15194 18.799 6.72048 18.2672 6.43752 17.743C6.15168 17.2135 5.95017 16.5683 5.95017 15.9003H8.95017ZM9.32379 16.6078L10.4821 17.3578L8.85155 19.876L7.69326 19.126L9.32379 16.6078ZM10.4386 17.3307C10.5817 17.4166 10.7402 17.4586 10.8918 17.4586V20.4586C10.1935 20.4586 9.50189 20.2673 8.89507 19.9032L10.4386 17.3307Z" fill="#0C5137" mask="url(#path-1-inside-1_1096_2857)"/>
<mask id="path-3-inside-2_1096_2857" fill="white">
<path d="M6.60823 14.3914C8.42489 14.3914 9.8999 12.9164 9.8999 11.0998C9.8999 9.28312 8.42489 7.80811 6.60823 7.80811C4.79156 7.80811 3.31655 9.28312 3.31655 11.0998C3.31655 12.9164 4.79156 14.3914 6.60823 14.3914ZM6.60823 9.05811C7.73323 9.05811 8.6499 9.97478 8.6499 11.0998C8.6499 12.2248 7.73323 13.1414 6.60823 13.1414C5.48323 13.1414 4.56655 12.2248 4.56655 11.0998C4.56655 9.97478 5.48323 9.05811 6.60823 9.05811Z"/>
</mask>
<path d="M6.60823 14.3914C8.42489 14.3914 9.8999 12.9164 9.8999 11.0998C9.8999 9.28312 8.42489 7.80811 6.60823 7.80811C4.79156 7.80811 3.31655 9.28312 3.31655 11.0998C3.31655 12.9164 4.79156 14.3914 6.60823 14.3914ZM6.60823 9.05811C7.73323 9.05811 8.6499 9.97478 8.6499 11.0998C8.6499 12.2248 7.73323 13.1414 6.60823 13.1414C5.48323 13.1414 4.56655 12.2248 4.56655 11.0998C4.56655 9.97478 5.48323 9.05811 6.60823 9.05811Z" fill="#292D32"/>
<path d="M6.60823 12.8914C7.59648 12.8914 8.3999 12.088 8.3999 11.0998H11.3999C11.3999 13.7449 9.2533 15.8914 6.60823 15.8914V12.8914ZM8.3999 11.0998C8.3999 10.1115 7.59647 9.30811 6.60823 9.30811V6.30811C9.25332 6.30811 11.3999 8.45469 11.3999 11.0998H8.3999ZM6.60823 9.30811C5.61999 9.30811 4.81655 10.1115 4.81655 11.0998H1.81655C1.81655 8.45469 3.96313 6.30811 6.60823 6.30811V9.30811ZM4.81655 11.0998C4.81655 12.088 5.61997 12.8914 6.60823 12.8914V15.8914C3.96315 15.8914 1.81655 13.7449 1.81655 11.0998H4.81655ZM6.60823 7.55811C8.56165 7.55811 10.1499 9.14636 10.1499 11.0998H7.1499C7.1499 10.8032 6.9048 10.5581 6.60823 10.5581V7.55811ZM10.1499 11.0998C10.1499 13.0532 8.56163 14.6414 6.60823 14.6414V11.6414C6.90482 11.6414 7.1499 11.3963 7.1499 11.0998H10.1499ZM6.60823 14.6414C4.65482 14.6414 3.06655 13.0532 3.06655 11.0998H6.06655C6.06655 11.3963 6.31163 11.6414 6.60823 11.6414V14.6414ZM3.06655 11.0998C3.06655 9.14636 4.6548 7.55811 6.60823 7.55811V10.5581C6.31165 10.5581 6.06655 10.8032 6.06655 11.0998H3.06655Z" fill="#0C5137" mask="url(#path-3-inside-2_1096_2857)"/>
<mask id="path-5-inside-3_1096_2857" fill="white">
<path d="M3.44166 14.8918C3.6 14.8918 3.7583 14.8335 3.8833 14.7085L4.71664 13.8751C4.9583 13.6335 4.9583 13.2335 4.71664 12.9918C4.47497 12.7501 4.07497 12.7501 3.83331 12.9918L2.99997 13.8251C2.75831 14.0668 2.75831 14.4668 2.99997 14.7085C3.11664 14.8251 3.28333 14.8918 3.44166 14.8918Z"/>
</mask>
<path d="M3.44166 14.8918C3.6 14.8918 3.7583 14.8335 3.8833 14.7085L4.71664 13.8751C4.9583 13.6335 4.9583 13.2335 4.71664 12.9918C4.47497 12.7501 4.07497 12.7501 3.83331 12.9918L2.99997 13.8251C2.75831 14.0668 2.75831 14.4668 2.99997 14.7085C3.11664 14.8251 3.28333 14.8918 3.44166 14.8918Z" fill="#292D32"/>
<path d="M3.8833 14.7085L4.94396 15.7691L3.8833 14.7085ZM4.71664 13.8751L3.65598 12.8145L4.71664 13.8751ZM3.83331 12.9918L4.89397 14.0525L3.83331 12.9918ZM2.99997 13.8251L1.93931 12.7645L2.99997 13.8251ZM3.44166 13.3918C3.22356 13.3918 2.99372 13.4767 2.82264 13.6478L4.94396 15.7691C4.52289 16.1902 3.97643 16.3918 3.44166 16.3918V13.3918ZM2.82264 13.6478L3.65598 12.8145L5.7773 14.9358L4.94396 15.7691L2.82264 13.6478ZM3.65598 12.8145C3.31186 13.1586 3.31186 13.7083 3.65598 14.0525L5.7773 11.9311C6.60475 12.7586 6.60475 14.1083 5.7773 14.9358L3.65598 12.8145ZM3.65598 14.0525C4.0001 14.3966 4.54985 14.3966 4.89397 14.0525L2.77265 11.9311C3.6001 11.1037 4.94984 11.1037 5.7773 11.9311L3.65598 14.0525ZM4.89397 14.0525L4.06063 14.8858L1.93931 12.7645L2.77265 11.9311L4.89397 14.0525ZM4.06063 14.8858C4.40475 14.5417 4.40475 13.9919 4.06063 13.6478L1.93931 15.7691C1.11186 14.9417 1.11186 13.5919 1.93931 12.7645L4.06063 14.8858ZM4.06063 13.6478C3.96922 13.5564 3.86999 13.4954 3.77533 13.4565C3.68118 13.4178 3.5693 13.3918 3.44166 13.3918V16.3918C2.8916 16.3918 2.34157 16.1714 1.93931 15.7691L4.06063 13.6478Z" fill="#0C5137" mask="url(#path-5-inside-3_1096_2857)"/>
</svg>
