<svg width="18" height="18" viewBox="0 0 18 18" fill="none" xmlns="http://www.w3.org/2000/svg">
<mask id="path-1-inside-1_1217_5596" fill="white">
<path d="M13.8222 17.0251C15.5772 17.0251 17.0622 15.5401 17.0622 13.7851V9.1651C17.0997 6.9751 16.2897 4.9126 14.7747 3.3676C13.2597 1.8301 11.2272 0.975098 9.03723 0.975098C4.56723 0.975098 0.937231 4.6126 0.937231 9.0751V13.6951C0.937231 15.4801 2.39223 16.9351 4.17723 16.9351C5.93223 16.9351 7.41723 15.4501 7.41723 13.6951V11.5876C7.41723 10.5001 6.56223 9.6451 5.47473 9.6451C4.38723 9.6451 3.53223 10.5001 3.53223 11.5876V13.8601C3.53223 14.1676 3.78723 14.4226 4.09473 14.4226C4.40223 14.4226 4.65723 14.1676 4.65723 13.8601V11.5876C4.65723 11.0776 5.06973 10.7701 5.47473 10.7701C5.98473 10.7701 6.29223 11.1826 6.29223 11.5876V13.6951C6.29223 14.8426 5.32473 15.8101 4.17723 15.8101C3.02973 15.8101 2.06223 14.8426 2.06223 13.6951V9.0751C2.06223 5.2276 5.18973 2.1001 9.03723 2.1001C10.9197 2.1001 12.6672 2.8276 13.9722 4.1551C15.2772 5.4826 15.9747 7.2601 15.9372 9.1501V13.7851C15.9372 14.9326 14.9697 15.9001 13.8222 15.9001C12.6747 15.9001 11.7072 14.9326 11.7072 13.7851V11.6776C11.7072 11.1676 12.1197 10.8601 12.5247 10.8601C13.0347 10.8601 13.3422 11.2726 13.3422 11.6776V13.8676C13.3422 14.1751 13.5972 14.4301 13.9047 14.4301C14.2122 14.4301 14.4672 14.1751 14.4672 13.8676V11.6776C14.4672 10.5901 13.6122 9.7351 12.5247 9.7351C11.4372 9.7351 10.5822 10.5901 10.5822 11.6776V13.7851C10.5822 15.5401 12.0672 17.0251 13.8222 17.0251Z"/>
</mask>
<path d="M13.8222 17.0251C15.5772 17.0251 17.0622 15.5401 17.0622 13.7851V9.1651C17.0997 6.9751 16.2897 4.9126 14.7747 3.3676C13.2597 1.8301 11.2272 0.975098 9.03723 0.975098C4.56723 0.975098 0.937231 4.6126 0.937231 9.0751V13.6951C0.937231 15.4801 2.39223 16.9351 4.17723 16.9351C5.93223 16.9351 7.41723 15.4501 7.41723 13.6951V11.5876C7.41723 10.5001 6.56223 9.6451 5.47473 9.6451C4.38723 9.6451 3.53223 10.5001 3.53223 11.5876V13.8601C3.53223 14.1676 3.78723 14.4226 4.09473 14.4226C4.40223 14.4226 4.65723 14.1676 4.65723 13.8601V11.5876C4.65723 11.0776 5.06973 10.7701 5.47473 10.7701C5.98473 10.7701 6.29223 11.1826 6.29223 11.5876V13.6951C6.29223 14.8426 5.32473 15.8101 4.17723 15.8101C3.02973 15.8101 2.06223 14.8426 2.06223 13.6951V9.0751C2.06223 5.2276 5.18973 2.1001 9.03723 2.1001C10.9197 2.1001 12.6672 2.8276 13.9722 4.1551C15.2772 5.4826 15.9747 7.2601 15.9372 9.1501V13.7851C15.9372 14.9326 14.9697 15.9001 13.8222 15.9001C12.6747 15.9001 11.7072 14.9326 11.7072 13.7851V11.6776C11.7072 11.1676 12.1197 10.8601 12.5247 10.8601C13.0347 10.8601 13.3422 11.2726 13.3422 11.6776V13.8676C13.3422 14.1751 13.5972 14.4301 13.9047 14.4301C14.2122 14.4301 14.4672 14.1751 14.4672 13.8676V11.6776C14.4672 10.5901 13.6122 9.7351 12.5247 9.7351C11.4372 9.7351 10.5822 10.5901 10.5822 11.6776V13.7851C10.5822 15.5401 12.0672 17.0251 13.8222 17.0251Z" fill="#292D32"/>
<path d="M17.0622 9.1651H15.5622V9.15226L15.5625 9.13942L17.0622 9.1651ZM14.7747 3.3676L15.8432 2.31478L15.8457 2.31739L14.7747 3.3676ZM15.9372 9.1501H14.4372V9.13522L14.4375 9.12034L15.9372 9.1501ZM13.8222 15.5251C14.7488 15.5251 15.5622 14.7117 15.5622 13.7851H18.5622C18.5622 16.3685 16.4057 18.5251 13.8222 18.5251V15.5251ZM15.5622 13.7851V9.1651H18.5622V13.7851H15.5622ZM15.5625 9.13942C15.5932 7.34262 14.9317 5.67013 13.7037 4.41781L15.8457 2.31739C17.6477 4.15507 18.6062 6.60757 18.562 9.19078L15.5625 9.13942ZM13.7063 4.42041C12.474 3.16978 10.8267 2.4751 9.03723 2.4751V-0.524902C11.6278 -0.524902 14.0455 0.490416 15.8432 2.31478L13.7063 4.42041ZM9.03723 2.4751C5.39656 2.4751 2.43723 5.44012 2.43723 9.0751H-0.562769C-0.562769 3.78507 3.7379 -0.524902 9.03723 -0.524902V2.4751ZM2.43723 9.0751V13.6951H-0.562769V9.0751H2.43723ZM2.43723 13.6951C2.43723 14.6517 3.22066 15.4351 4.17723 15.4351V18.4351C1.5638 18.4351 -0.562769 16.3085 -0.562769 13.6951H2.43723ZM4.17723 15.4351C5.1038 15.4351 5.91723 14.6217 5.91723 13.6951H8.91723C8.91723 16.2785 6.76066 18.4351 4.17723 18.4351V15.4351ZM5.91723 13.6951V11.5876H8.91723V13.6951H5.91723ZM5.91723 11.5876C5.91723 11.4464 5.86489 11.341 5.79313 11.2692C5.72137 11.1974 5.61591 11.1451 5.47473 11.1451V8.1451C7.39066 8.1451 8.91723 9.67167 8.91723 11.5876H5.91723ZM5.47473 11.1451C5.33355 11.1451 5.22809 11.1974 5.15633 11.2692C5.08457 11.341 5.03223 11.4464 5.03223 11.5876H2.03223C2.03223 9.67167 3.5588 8.1451 5.47473 8.1451V11.1451ZM5.03223 11.5876V13.8601H2.03223V11.5876H5.03223ZM5.03223 13.8601C5.03223 13.3392 4.61566 12.9226 4.09473 12.9226V15.9226C2.9588 15.9226 2.03223 14.996 2.03223 13.8601H5.03223ZM4.09473 12.9226C3.5738 12.9226 3.15723 13.3392 3.15723 13.8601H6.15723C6.15723 14.996 5.23066 15.9226 4.09473 15.9226V12.9226ZM3.15723 13.8601V11.5876H6.15723V13.8601H3.15723ZM3.15723 11.5876C3.15723 10.126 4.37009 9.2701 5.47473 9.2701V12.2701C5.6403 12.2701 5.79885 12.2112 5.92647 12.0944C6.07392 11.9596 6.15723 11.7663 6.15723 11.5876H3.15723ZM5.47473 9.2701C6.93633 9.2701 7.79223 10.483 7.79223 11.5876H4.79223C4.79223 11.7532 4.85116 11.9117 4.96788 12.0393C5.10275 12.1868 5.29602 12.2701 5.47473 12.2701V9.2701ZM7.79223 11.5876V13.6951H4.79223V11.5876H7.79223ZM7.79223 13.6951C7.79223 15.671 6.15316 17.3101 4.17723 17.3101V14.3101C4.4963 14.3101 4.79223 14.0142 4.79223 13.6951H7.79223ZM4.17723 17.3101C2.2013 17.3101 0.562231 15.671 0.562231 13.6951H3.56223C3.56223 14.0142 3.85816 14.3101 4.17723 14.3101V17.3101ZM0.562231 13.6951V9.0751H3.56223V13.6951H0.562231ZM0.562231 9.0751C0.562231 4.39917 4.3613 0.600098 9.03723 0.600098V3.6001C6.01816 3.6001 3.56223 6.05603 3.56223 9.0751H0.562231ZM9.03723 0.600098C11.3167 0.600098 13.4512 1.48544 15.0419 3.10354L12.9025 5.20665C11.8832 4.16975 10.5227 3.6001 9.03723 3.6001V0.600098ZM15.0419 3.10354C16.6359 4.72498 17.4823 6.89481 17.4369 9.17985L14.4375 9.12034C14.4672 7.62539 13.9186 6.24021 12.9025 5.20665L15.0419 3.10354ZM17.4372 9.1501V13.7851H14.4372V9.1501H17.4372ZM17.4372 13.7851C17.4372 15.761 15.7982 17.4001 13.8222 17.4001V14.4001C14.1413 14.4001 14.4372 14.1042 14.4372 13.7851H17.4372ZM13.8222 17.4001C11.8463 17.4001 10.2072 15.761 10.2072 13.7851H13.2072C13.2072 14.1042 13.5032 14.4001 13.8222 14.4001V17.4001ZM10.2072 13.7851V11.6776H13.2072V13.7851H10.2072ZM10.2072 11.6776C10.2072 10.216 11.4201 9.3601 12.5247 9.3601V12.3601C12.6903 12.3601 12.8489 12.3012 12.9765 12.1844C13.1239 12.0496 13.2072 11.8563 13.2072 11.6776H10.2072ZM12.5247 9.3601C13.9863 9.3601 14.8422 10.573 14.8422 11.6776H11.8422C11.8422 11.8432 11.9012 12.0017 12.0179 12.1293C12.1527 12.2768 12.346 12.3601 12.5247 12.3601V9.3601ZM14.8422 11.6776V13.8676H11.8422V11.6776H14.8422ZM14.8422 13.8676C14.8422 13.3467 14.4257 12.9301 13.9047 12.9301V15.9301C12.7688 15.9301 11.8422 15.0035 11.8422 13.8676H14.8422ZM13.9047 12.9301C13.3838 12.9301 12.9672 13.3467 12.9672 13.8676H15.9672C15.9672 15.0035 15.0407 15.9301 13.9047 15.9301V12.9301ZM12.9672 13.8676V11.6776H15.9672V13.8676H12.9672ZM12.9672 11.6776C12.9672 11.5364 12.9149 11.431 12.8431 11.3592C12.7714 11.2874 12.6659 11.2351 12.5247 11.2351V8.2351C14.4407 8.2351 15.9672 9.76167 15.9672 11.6776H12.9672ZM12.5247 11.2351C12.3836 11.2351 12.2781 11.2874 12.2063 11.3592C12.1346 11.431 12.0822 11.5364 12.0822 11.6776H9.08223C9.08223 9.76167 10.6088 8.2351 12.5247 8.2351V11.2351ZM12.0822 11.6776V13.7851H9.08223V11.6776H12.0822ZM12.0822 13.7851C12.0822 14.7117 12.8957 15.5251 13.8222 15.5251V18.5251C11.2388 18.5251 9.08223 16.3685 9.08223 13.7851H12.0822Z" fill="#0C5137" mask="url(#path-1-inside-1_1217_5596)"/>
</svg>
