<svg width="20" height="20" viewBox="0 0 20 20" fill="none" xmlns="http://www.w3.org/2000/svg">
<mask id="path-1-inside-1_2360_1313" fill="white">
<path d="M9.99169 18.9499C10.5167 18.9499 11.0334 18.7749 11.4417 18.4249L12.7584 17.2999C12.8917 17.1833 13.225 17.0666 13.4 17.0666H14.8584C16.0917 17.0666 17.0917 16.0666 17.0917 14.8333V13.4083C17.0917 13.2333 17.2084 12.8999 17.3167 12.7749L18.45 11.4416C19.1334 10.6333 19.1334 9.3666 18.45 8.54994L17.3167 7.2166C17.2084 7.0916 17.0917 6.75827 17.0917 6.58327V5.1666C17.0917 3.93327 16.0917 2.93327 14.8584 2.93327H13.4167C13.2417 2.93327 12.9167 2.80827 12.775 2.6916L11.4584 1.5666C10.6417 0.874935 9.36669 0.874935 8.55002 1.5666L7.23336 2.6916C7.10003 2.80827 6.75836 2.92493 6.58336 2.92493H5.16669C3.93336 2.92493 2.93336 3.92493 2.93336 5.15827V6.57493C2.93336 6.74993 2.80836 7.07493 2.69169 7.2166L1.56669 8.53327C0.866692 9.35827 0.875025 10.6333 1.56669 11.4416L2.69169 12.7583C2.80836 12.8999 2.92503 13.2249 2.92503 13.3999V14.8166C2.92503 16.0499 3.92503 17.0499 5.15836 17.0499H6.57502C6.75002 17.0499 7.07502 17.1749 7.22502 17.2916L8.54169 18.4166C8.95002 18.7749 9.47502 18.9499 9.99169 18.9499ZM14.8584 4.18327C15.4 4.18327 15.8417 4.62493 15.8417 5.1666V6.58327C15.8417 7.05827 16.0584 7.65827 16.3667 8.02494L17.5 9.35827C17.7834 9.69993 17.7834 10.2999 17.5 10.6333L16.375 11.9583C16.075 12.2999 15.85 12.9249 15.85 13.3999V14.8249C15.85 15.3666 15.4084 15.8083 14.8667 15.8083H13.4167C12.95 15.8083 12.3334 16.0333 11.9667 16.3416L10.6417 17.4749C10.3 17.7666 9.70002 17.7666 9.35836 17.4749L8.04169 16.3499C7.66669 16.0333 7.05836 15.8166 6.59169 15.8166H5.17502C4.63336 15.8166 4.19169 15.3749 4.19169 14.8333V13.4166C4.19169 12.9499 3.96669 12.3416 3.65836 11.9666L2.52503 10.6416C2.23336 10.2999 2.23336 9.69993 2.52503 9.35827L3.65002 8.0416C3.96669 7.6666 4.18336 7.05827 4.18336 6.5916V5.1666C4.18336 4.62493 4.62503 4.18327 5.16669 4.18327H6.58336C7.05836 4.18327 7.67502 3.95827 8.04169 3.64994L9.36669 2.5166C9.70836 2.22493 10.3 2.22493 10.65 2.5166L11.9584 3.64994C12.3334 3.95827 12.9417 4.18327 13.4167 4.18327H14.8584Z"/>
</mask>
<path d="M9.99169 18.9499C10.5167 18.9499 11.0334 18.7749 11.4417 18.4249L12.7584 17.2999C12.8917 17.1833 13.225 17.0666 13.4 17.0666H14.8584C16.0917 17.0666 17.0917 16.0666 17.0917 14.8333V13.4083C17.0917 13.2333 17.2084 12.8999 17.3167 12.7749L18.45 11.4416C19.1334 10.6333 19.1334 9.3666 18.45 8.54994L17.3167 7.2166C17.2084 7.0916 17.0917 6.75827 17.0917 6.58327V5.1666C17.0917 3.93327 16.0917 2.93327 14.8584 2.93327H13.4167C13.2417 2.93327 12.9167 2.80827 12.775 2.6916L11.4584 1.5666C10.6417 0.874935 9.36669 0.874935 8.55002 1.5666L7.23336 2.6916C7.10003 2.80827 6.75836 2.92493 6.58336 2.92493H5.16669C3.93336 2.92493 2.93336 3.92493 2.93336 5.15827V6.57493C2.93336 6.74993 2.80836 7.07493 2.69169 7.2166L1.56669 8.53327C0.866692 9.35827 0.875025 10.6333 1.56669 11.4416L2.69169 12.7583C2.80836 12.8999 2.92503 13.2249 2.92503 13.3999V14.8166C2.92503 16.0499 3.92503 17.0499 5.15836 17.0499H6.57502C6.75002 17.0499 7.07502 17.1749 7.22502 17.2916L8.54169 18.4166C8.95002 18.7749 9.47502 18.9499 9.99169 18.9499ZM14.8584 4.18327C15.4 4.18327 15.8417 4.62493 15.8417 5.1666V6.58327C15.8417 7.05827 16.0584 7.65827 16.3667 8.02494L17.5 9.35827C17.7834 9.69993 17.7834 10.2999 17.5 10.6333L16.375 11.9583C16.075 12.2999 15.85 12.9249 15.85 13.3999V14.8249C15.85 15.3666 15.4084 15.8083 14.8667 15.8083H13.4167C12.95 15.8083 12.3334 16.0333 11.9667 16.3416L10.6417 17.4749C10.3 17.7666 9.70002 17.7666 9.35836 17.4749L8.04169 16.3499C7.66669 16.0333 7.05836 15.8166 6.59169 15.8166H5.17502C4.63336 15.8166 4.19169 15.3749 4.19169 14.8333V13.4166C4.19169 12.9499 3.96669 12.3416 3.65836 11.9666L2.52503 10.6416C2.23336 10.2999 2.23336 9.69993 2.52503 9.35827L3.65002 8.0416C3.96669 7.6666 4.18336 7.05827 4.18336 6.5916V5.1666C4.18336 4.62493 4.62503 4.18327 5.16669 4.18327H6.58336C7.05836 4.18327 7.67502 3.95827 8.04169 3.64994L9.36669 2.5166C9.70836 2.22493 10.3 2.22493 10.65 2.5166L11.9584 3.64994C12.3334 3.95827 12.9417 4.18327 13.4167 4.18327H14.8584Z" fill="#292D32"/>
<path d="M11.4417 18.4249L10.4655 17.2861L10.4673 17.2845L11.4417 18.4249ZM12.7584 17.2999L13.7461 18.4288L13.7395 18.4346L13.7328 18.4403L12.7584 17.2999ZM17.3167 12.7749L18.4596 13.7464L18.4549 13.7519L18.4502 13.7573L17.3167 12.7749ZM18.45 11.4416L19.5956 12.41L19.5929 12.4131L18.45 11.4416ZM18.45 8.54994L19.593 7.57843L19.6004 7.58735L18.45 8.54994ZM17.3167 7.2166L18.4502 6.23421L18.4549 6.23965L18.4596 6.24513L17.3167 7.2166ZM12.775 2.6916L11.8215 3.8495L11.811 3.84085L11.8006 3.83201L12.775 2.6916ZM11.4584 1.5666L12.4278 0.421955L12.4328 0.42619L11.4584 1.5666ZM8.55002 1.5666L7.57561 0.426179L7.58059 0.421965L8.55002 1.5666ZM7.23336 2.6916L6.2456 1.56274L6.25224 1.55692L6.25896 1.55119L7.23336 2.6916ZM2.69169 7.2166L3.84959 8.17016L3.84094 8.18066L3.8321 8.191L2.69169 7.2166ZM1.56669 8.53327L0.42292 7.5628L0.426279 7.55887L1.56669 8.53327ZM1.56669 11.4416L2.70641 10.4664L2.7071 10.4672L1.56669 11.4416ZM2.69169 12.7583L3.8321 11.7839L3.84094 11.7942L3.84959 11.8047L2.69169 12.7583ZM7.22502 17.2916L8.14594 16.1076L8.17318 16.1288L8.19943 16.1512L7.22502 17.2916ZM8.54169 18.4166L9.51609 17.2762L9.52363 17.2826L9.53108 17.2892L8.54169 18.4166ZM16.3667 8.02494L15.2238 8.99642L15.2186 8.99034L16.3667 8.02494ZM17.5 9.35827L18.6429 8.3868L18.6488 8.39374L18.6547 8.40076L17.5 9.35827ZM17.5 10.6333L16.3566 9.66242L16.3571 9.6618L17.5 10.6333ZM16.375 11.9583L17.5185 12.9291L17.5104 12.9386L17.5022 12.948L16.375 11.9583ZM11.9667 16.3416L10.9917 15.2017L11.0013 15.1936L11.9667 16.3416ZM10.6417 17.4749L11.6167 18.6148L11.6156 18.6158L10.6417 17.4749ZM9.35836 17.4749L8.38446 18.6158L8.38396 18.6153L9.35836 17.4749ZM8.04169 16.3499L9.00948 15.2039L9.01609 15.2095L8.04169 16.3499ZM3.65836 11.9666L4.79825 10.9916L4.80773 11.0027L4.817 11.0139L3.65836 11.9666ZM2.52503 10.6416L1.38513 11.6166L1.38418 11.6155L2.52503 10.6416ZM2.52503 9.35827L1.38418 8.38438L1.38461 8.38387L2.52503 9.35827ZM3.65002 8.0416L4.79609 9.00939L4.79044 9.016L3.65002 8.0416ZM8.04169 3.64994L9.01673 4.78987L9.00709 4.79798L8.04169 3.64994ZM9.36669 2.5166L8.39168 1.3767L8.3928 1.37575L9.36669 2.5166ZM10.65 2.5166L11.6103 1.36427L11.6213 1.37345L11.6321 1.38283L10.65 2.5166ZM11.9584 3.64994L11.0057 4.80857L10.9908 4.79633L10.9762 4.78371L11.9584 3.64994ZM9.99169 18.9499V17.4499C10.1854 17.4499 10.3487 17.3862 10.4655 17.2861L11.4417 18.4249L12.4179 19.5638C11.718 20.1637 10.848 20.4499 9.99169 20.4499V18.9499ZM11.4417 18.4249L10.4673 17.2845L11.784 16.1595L12.7584 17.2999L13.7328 18.4403L12.4161 19.5653L11.4417 18.4249ZM12.7584 17.2999L11.7706 16.1711C12.0487 15.9277 12.3749 15.793 12.5568 15.7277C12.7455 15.66 13.0611 15.5666 13.4 15.5666V17.0666V18.5666C13.458 18.5666 13.5005 18.562 13.5223 18.5592C13.5457 18.5561 13.561 18.5529 13.5673 18.5516C13.5785 18.5491 13.5779 18.5486 13.5704 18.5513C13.5625 18.5541 13.5654 18.5538 13.5807 18.5459C13.5891 18.5416 13.6067 18.5321 13.6311 18.5163C13.6541 18.5015 13.6956 18.473 13.7461 18.4288L12.7584 17.2999ZM13.4 17.0666V15.5666H14.8584V17.0666V18.5666H13.4V17.0666ZM14.8584 17.0666V15.5666C15.2633 15.5666 15.5917 15.2382 15.5917 14.8333H17.0917H18.5917C18.5917 16.895 16.9201 18.5666 14.8584 18.5666V17.0666ZM17.0917 14.8333H15.5917V13.4083H17.0917H18.5917V14.8333H17.0917ZM17.0917 13.4083H15.5917C15.5917 13.0709 15.6844 12.7565 15.7493 12.573C15.8099 12.4015 15.9413 12.0716 16.1832 11.7925L17.3167 12.7749L18.4502 13.7573C18.4981 13.7021 18.5284 13.6568 18.5434 13.6331C18.5596 13.6075 18.5692 13.5892 18.5734 13.5809C18.5811 13.5658 18.5811 13.5636 18.5778 13.5727C18.5747 13.5815 18.5749 13.5832 18.577 13.5732C18.5783 13.5675 18.5813 13.5528 18.5843 13.5297C18.5871 13.5084 18.5917 13.4662 18.5917 13.4083H17.0917ZM17.3167 12.7749L16.1738 11.8035L17.3071 10.4701L18.45 11.4416L19.5929 12.4131L18.4596 13.7464L17.3167 12.7749ZM18.45 11.4416L17.3045 10.4732C17.5128 10.2268 17.5192 9.77499 17.2996 9.51252L18.45 8.54994L19.6004 7.58735C20.7475 8.95822 20.7539 11.0397 19.5956 12.41L18.45 11.4416ZM18.45 8.54994L17.3071 9.52141L16.1738 8.18807L17.3167 7.2166L18.4596 6.24513L19.5929 7.57846L18.45 8.54994ZM17.3167 7.2166L16.1832 8.199C15.9413 7.91995 15.8099 7.59002 15.7493 7.41855C15.6844 7.23505 15.5917 6.92068 15.5917 6.58327H17.0917H18.5917C18.5917 6.52532 18.5871 6.48311 18.5843 6.46179C18.5813 6.43878 18.5783 6.42402 18.577 6.41833C18.5749 6.40829 18.5747 6.41009 18.5778 6.41882C18.5811 6.42798 18.5811 6.42576 18.5734 6.4106C18.5692 6.40238 18.5596 6.38406 18.5434 6.35842C18.5284 6.33472 18.4981 6.28942 18.4502 6.23421L17.3167 7.2166ZM17.0917 6.58327H15.5917V5.1666H17.0917H18.5917V6.58327H17.0917ZM17.0917 5.1666H15.5917C15.5917 4.7617 15.2633 4.43327 14.8584 4.43327V2.93327V1.43327C16.9201 1.43327 18.5917 3.10484 18.5917 5.1666H17.0917ZM14.8584 2.93327V4.43327H13.4167V2.93327V1.43327H14.8584V2.93327ZM13.4167 2.93327V4.43327C13.0584 4.43327 12.7322 4.32726 12.5514 4.25868C12.3599 4.18604 12.0721 4.05593 11.8215 3.8495L12.775 2.6916L13.7286 1.53371C13.6905 1.50231 13.6605 1.48221 13.6447 1.47207C13.6278 1.46127 13.6165 1.45516 13.6123 1.4529C13.605 1.44902 13.607 1.45052 13.6153 1.45369C13.6241 1.45702 13.6228 1.45574 13.6076 1.45214C13.5992 1.45017 13.5809 1.44613 13.5537 1.4423C13.5281 1.4387 13.4806 1.43327 13.4167 1.43327V2.93327ZM12.775 2.6916L11.8006 3.83201L10.484 2.70701L11.4584 1.5666L12.4328 0.42619L13.7494 1.55119L12.775 2.6916ZM11.4584 1.5666L10.4889 2.71124C10.2317 2.49339 9.77668 2.49339 9.51946 2.71124L8.55002 1.5666L7.58059 0.421965C8.9567 -0.74352 11.0517 -0.74352 12.4278 0.421965L11.4584 1.5666ZM8.55002 1.5666L9.52443 2.70701L8.20776 3.83201L7.23336 2.6916L6.25896 1.55119L7.57562 0.42619L8.55002 1.5666ZM7.23336 2.6916L8.22112 3.82047C7.93718 4.06891 7.60178 4.20348 7.42321 4.2665C7.23465 4.33306 6.91918 4.42494 6.58336 4.42494V2.92493V1.42494C6.52557 1.42494 6.48372 1.42948 6.46311 1.43216C6.44072 1.43506 6.4266 1.43798 6.42149 1.43909C6.4126 1.44102 6.41541 1.44083 6.42475 1.43753C6.43457 1.43407 6.43265 1.43388 6.41766 1.44154C6.40948 1.44572 6.39139 1.45531 6.36611 1.47148C6.34247 1.4866 6.29875 1.51623 6.2456 1.56274L7.23336 2.6916ZM6.58336 2.92493V4.42494H5.16669V2.92493V1.42494H6.58336V2.92493ZM5.16669 2.92493V4.42494C4.76179 4.42494 4.43336 4.75336 4.43336 5.15827H2.93336H1.43336C1.43336 3.09651 3.10493 1.42494 5.16669 1.42494V2.92493ZM2.93336 5.15827H4.43336V6.57493H2.93336H1.43336V5.15827H2.93336ZM2.93336 6.57493H4.43336C4.43336 6.93319 4.32735 7.25946 4.25877 7.44025C4.18613 7.63175 4.05602 7.9195 3.84959 8.17016L2.69169 7.2166L1.5338 6.26304C1.5024 6.30117 1.4823 6.33112 1.47217 6.34695C1.46136 6.36383 1.45525 6.37509 1.45299 6.37935C1.44911 6.38667 1.45061 6.38464 1.45378 6.37629C1.45711 6.3675 1.45584 6.3688 1.45223 6.38406C1.45026 6.3924 1.44622 6.41071 1.44239 6.43794C1.43879 6.46352 1.43336 6.511 1.43336 6.57493H2.93336ZM2.69169 7.2166L3.8321 8.191L2.7071 9.50767L1.56669 8.53327L0.426279 7.55887L1.55128 6.2422L2.69169 7.2166ZM1.56669 8.53327L2.71045 9.50373C2.48681 9.76731 2.49374 10.2178 2.70641 10.4664L1.56669 11.4416L0.426977 12.4168C-0.743687 11.0487 -0.753431 8.94922 0.422928 7.5628L1.56669 8.53327ZM1.56669 11.4416L2.7071 10.4672L3.8321 11.7839L2.69169 12.7583L1.55128 13.7327L0.426279 12.416L1.56669 11.4416ZM2.69169 12.7583L3.84959 11.8047C4.06511 12.0664 4.19372 12.366 4.26251 12.5559C4.33006 12.7425 4.42503 13.058 4.42503 13.3999H2.92503H1.42503C1.42503 13.4582 1.42964 13.5012 1.43267 13.5241C1.43589 13.5485 1.43926 13.5647 1.44085 13.5719C1.44373 13.5848 1.44457 13.5852 1.44171 13.5773C1.43888 13.5694 1.43825 13.5696 1.44367 13.5802C1.4467 13.586 1.45387 13.5995 1.46608 13.6189C1.47762 13.6372 1.49965 13.6704 1.5338 13.7118L2.69169 12.7583ZM2.92503 13.3999H4.42503V14.8166H2.92503H1.42503V13.3999H2.92503ZM2.92503 14.8166H4.42503C4.42503 15.2215 4.75345 15.5499 5.15836 15.5499V17.0499V18.5499C3.0966 18.5499 1.42503 16.8784 1.42503 14.8166H2.92503ZM5.15836 17.0499V15.5499H6.57502V17.0499V18.5499H5.15836V17.0499ZM6.57502 17.0499V15.5499C6.93304 15.5499 7.25914 15.656 7.4374 15.723C7.63259 15.7964 7.90552 15.9206 8.14594 16.1076L7.22502 17.2916L6.30411 18.4756C6.33602 18.5004 6.36023 18.516 6.37231 18.5235C6.38524 18.5315 6.39307 18.5356 6.39487 18.5365C6.39734 18.5378 6.39167 18.5349 6.3814 18.531C6.37046 18.5269 6.3705 18.5278 6.38502 18.5312C6.39299 18.5331 6.41108 18.5371 6.43818 18.5409C6.46363 18.5445 6.51108 18.5499 6.57502 18.5499V17.0499ZM7.22502 17.2916L8.19943 16.1512L9.51609 17.2762L8.54169 18.4166L7.56729 19.557L6.25062 18.432L7.22502 17.2916ZM8.54169 18.4166L9.53108 17.2892C9.64095 17.3856 9.80468 17.4499 9.99169 17.4499V18.9499V20.4499C9.14537 20.4499 8.2591 20.1643 7.55231 19.544L8.54169 18.4166ZM14.8584 4.18327V2.68327C16.2285 2.68327 17.3417 3.79651 17.3417 5.1666H15.8417H14.3417C14.3417 5.45336 14.5716 5.68327 14.8584 5.68327V4.18327ZM15.8417 5.1666H17.3417V6.58327H15.8417H14.3417V5.1666H15.8417ZM15.8417 6.58327H17.3417C17.3417 6.70753 17.4353 6.96507 17.5147 7.05954L16.3667 8.02494L15.2186 8.99034C14.6814 8.35147 14.3417 7.40901 14.3417 6.58327H15.8417ZM16.3667 8.02494L17.5096 7.05346L18.6429 8.3868L17.5 9.35827L16.3571 10.3297L15.2238 8.99641L16.3667 8.02494ZM17.5 9.35827L18.6547 8.40076C19.0627 8.89282 19.2125 9.48905 19.2125 9.99889C19.2125 10.5073 19.0631 11.1104 18.6429 11.6047L17.5 10.6333L16.3571 9.6618C16.2202 9.82283 16.2125 9.95926 16.2125 9.99889C16.2125 10.04 16.2207 10.1654 16.3454 10.3158L17.5 9.35827ZM17.5 10.6333L18.6435 11.6041L17.5185 12.9291L16.375 11.9583L15.2316 10.9874L16.3566 9.66242L17.5 10.6333ZM16.375 11.9583L17.5022 12.948C17.5121 12.9367 17.501 12.9473 17.4781 12.9886C17.4564 13.0277 17.4322 13.0798 17.41 13.1408C17.388 13.2016 17.3717 13.261 17.3615 13.3126C17.351 13.3659 17.35 13.3956 17.35 13.3999H15.85H14.35C14.35 12.9485 14.4519 12.498 14.59 12.1174C14.7267 11.7407 14.94 11.3191 15.2479 10.9686L16.375 11.9583ZM15.85 13.3999H17.35V14.8249H15.85H14.35V13.3999H15.85ZM15.85 14.8249H17.35C17.35 16.195 16.2368 17.3083 14.8667 17.3083V15.8083V14.3083C14.5799 14.3083 14.35 14.5382 14.35 14.8249H15.85ZM14.8667 15.8083V17.3083H13.4167V15.8083V14.3083H14.8667V15.8083ZM13.4167 15.8083V17.3083C13.418 17.3083 13.4116 17.3082 13.3973 17.3098C13.3831 17.3113 13.3638 17.3141 13.3398 17.3189C13.2908 17.3288 13.2326 17.3449 13.1709 17.3675C13.0343 17.4176 12.9518 17.4731 12.9321 17.4896L11.9667 16.3416L11.0013 15.1936C11.6349 14.6608 12.5924 14.3083 13.4167 14.3083V15.8083ZM11.9667 16.3416L12.9417 17.4815L11.6167 18.6148L10.6417 17.4749L9.66669 16.335L10.9917 15.2017L11.9667 16.3416ZM10.6417 17.4749L11.6156 18.6158C11.1232 19.0361 10.5207 19.1937 10 19.1937C9.47936 19.1937 8.87686 19.0361 8.38446 18.6158L9.35836 17.4749L10.3323 16.3341C10.1815 16.2054 10.0499 16.1937 10 16.1937C9.9502 16.1937 9.81853 16.2054 9.6678 16.3341L10.6417 17.4749ZM9.35836 17.4749L8.38396 18.6153L7.06729 17.4903L8.04169 16.3499L9.01609 15.2095L10.3328 16.3345L9.35836 17.4749ZM8.04169 16.3499L7.07392 17.496C7.04974 17.4756 6.9683 17.4215 6.83753 17.3739C6.70582 17.3259 6.61269 17.3166 6.59169 17.3166V15.8166V14.3166C7.41005 14.3166 8.36183 14.657 9.00946 15.2039L8.04169 16.3499ZM6.59169 15.8166V17.3166H5.17502V15.8166V14.3166H6.59169V15.8166ZM5.17502 15.8166V17.3166C3.80493 17.3166 2.69169 16.2034 2.69169 14.8333H4.19169H5.69169C5.69169 14.5465 5.46179 14.3166 5.17502 14.3166V15.8166ZM4.19169 14.8333H2.69169V13.4166H4.19169H5.69169V14.8333H4.19169ZM4.19169 13.4166H2.69169C2.69169 13.4168 2.69127 13.3918 2.68131 13.3424C2.67167 13.2946 2.65579 13.2373 2.63314 13.1758C2.5837 13.0416 2.52611 12.9514 2.49972 12.9193L3.65836 11.9666L4.817 11.0139C5.33385 11.6426 5.69169 12.5837 5.69169 13.4166H4.19169ZM3.65836 11.9666L2.51846 12.9416L1.38513 11.6166L2.52503 10.6416L3.66492 9.6666L4.79825 10.9916L3.65836 11.9666ZM2.52503 10.6416L1.38418 11.6155C0.96384 11.1231 0.806276 10.5206 0.806276 9.99994C0.806276 9.47927 0.96384 8.87677 1.38418 8.38438L2.52503 9.35827L3.66587 10.3322C3.79454 10.1814 3.80628 10.0498 3.80628 9.99994C3.80628 9.95011 3.79454 9.81844 3.66587 9.66771L2.52503 10.6416ZM2.52503 9.35827L1.38461 8.38387L2.50961 7.0672L3.65002 8.0416L4.79044 9.016L3.66544 10.3327L2.52503 9.35827ZM3.65002 8.0416L2.50398 7.07383C2.5244 7.04965 2.57844 6.96821 2.62609 6.83744C2.67408 6.70574 2.68336 6.6126 2.68336 6.5916H4.18336H5.68336C5.68336 7.40996 5.34296 8.36174 4.79607 9.00937L3.65002 8.0416ZM4.18336 6.5916H2.68336V5.1666H4.18336H5.68336V6.5916H4.18336ZM4.18336 5.1666H2.68336C2.68336 3.79651 3.7966 2.68327 5.16669 2.68327V4.18327V5.68327C5.45345 5.68327 5.68336 5.45336 5.68336 5.1666H4.18336ZM5.16669 4.18327V2.68327H6.58336V4.18327V5.68327H5.16669V4.18327ZM6.58336 4.18327V2.68327C6.60501 2.68327 6.70131 2.67341 6.83826 2.62336C6.97486 2.57344 7.05683 2.51825 7.07629 2.50189L8.04169 3.64994L9.00709 4.79798C8.37138 5.33255 7.41323 5.68327 6.58336 5.68327V4.18327ZM8.04169 3.64994L7.06668 2.51004L8.39169 1.37671L9.36669 2.5166L10.3417 3.6565L9.0167 4.78983L8.04169 3.64994ZM9.36669 2.5166L8.3928 1.37575C8.88254 0.957679 9.48148 0.797852 10.0052 0.797852C10.53 0.797852 11.1227 0.957905 11.6103 1.36427L10.65 2.5166L9.68975 3.66893C9.82738 3.78363 9.94917 3.79785 10.0052 3.79785C10.0602 3.79785 10.1925 3.78386 10.3406 3.65745L9.36669 2.5166ZM10.65 2.5166L11.6321 1.38283L12.9405 2.51616L11.9584 3.64994L10.9762 4.78371L9.6679 3.65037L10.65 2.5166ZM11.9584 3.64994L12.911 2.4913C13.0302 2.5893 13.3052 2.68327 13.4167 2.68327V4.18327V5.68327C12.5782 5.68327 11.6365 5.32723 11.0057 4.80857L11.9584 3.64994ZM13.4167 4.18327V2.68327H14.8584V4.18327V5.68327H13.4167V4.18327Z" fill="#0C5137" mask="url(#path-1-inside-1_2360_1313)"/>
<path d="M10.0003 13.1416C9.97972 13.1416 9.95909 13.1496 9.94171 13.167C9.92454 13.1842 9.9164 13.2042 9.91632 13.2246C9.91632 13.2736 9.95274 13.3086 10.0003 13.3086C10.0207 13.3085 10.0407 13.3004 10.0579 13.2832C10.0753 13.2658 10.0833 13.2452 10.0833 13.2246C10.0832 13.1759 10.0476 13.1418 10.0003 13.1416Z" fill="#292D32" stroke="#0C5137" stroke-width="1.5"/>
<mask id="path-4-inside-2_2360_1313" fill="white">
<path d="M10 11.4332C10.3417 11.4332 10.625 11.1499 10.625 10.8082V6.7749C10.625 6.43324 10.3417 6.1499 10 6.1499C9.65833 6.1499 9.375 6.43324 9.375 6.7749V10.7999C9.375 11.1499 9.65 11.4332 10 11.4332Z"/>
</mask>
<path d="M10 11.4332C10.3417 11.4332 10.625 11.1499 10.625 10.8082V6.7749C10.625 6.43324 10.3417 6.1499 10 6.1499C9.65833 6.1499 9.375 6.43324 9.375 6.7749V10.7999C9.375 11.1499 9.65 11.4332 10 11.4332Z" fill="#292D32"/>
<path d="M10 11.4332V9.93324C9.51324 9.93324 9.125 10.3215 9.125 10.8082H10.625H12.125C12.125 11.9783 11.1701 12.9332 10 12.9332V11.4332ZM10.625 10.8082H9.125V6.7749H10.625H12.125V10.8082H10.625ZM10.625 6.7749H9.125C9.125 7.26166 9.51324 7.6499 10 7.6499V6.1499V4.6499C11.1701 4.6499 12.125 5.60481 12.125 6.7749H10.625ZM10 6.1499V7.6499C10.4868 7.6499 10.875 7.26166 10.875 6.7749H9.375H7.875C7.875 5.60481 8.82991 4.6499 10 4.6499V6.1499ZM9.375 6.7749H10.875V10.7999H9.375H7.875V6.7749H9.375ZM9.375 10.7999H10.875C10.875 10.3475 10.5043 9.93324 10 9.93324V11.4332V12.9332C8.79574 12.9332 7.875 11.9523 7.875 10.7999H9.375Z" fill="#0C5137" mask="url(#path-4-inside-2_2360_1313)"/>
</svg>
