<svg width="9" height="18" viewBox="0 0 9 18" fill="none" xmlns="http://www.w3.org/2000/svg">
<path d="M8.09039 17.67C8.28039 17.67 8.47039 17.6 8.62039 17.45C8.91039 17.16 8.91039 16.68 8.62039 16.39L2.10039 9.87002C1.62039 9.39002 1.62039 8.61002 2.10039 8.13002L8.62039 1.61002C8.91039 1.32002 8.91039 0.84002 8.62039 0.55002C8.33039 0.26002 7.85039 0.26002 7.56039 0.55002L1.04039 7.07002C0.530391 7.58002 0.240391 8.27002 0.240391 9.00002C0.240391 9.73002 0.520391 10.42 1.04039 10.93L7.56039 17.45C7.71039 17.59 7.90039 17.67 8.09039 17.67Z" fill="#1B1D1C"/>
</svg>
