<svg width="16" height="16" viewBox="0 0 16 16" fill="none" xmlns="http://www.w3.org/2000/svg">
<path d="M7.99992 9.44679C6.57992 9.44679 5.41992 8.29346 5.41992 6.86679C5.41992 5.44012 6.57992 4.29346 7.99992 4.29346C9.41992 4.29346 10.5799 5.44679 10.5799 6.87346C10.5799 8.30012 9.41992 9.44679 7.99992 9.44679ZM7.99992 5.29346C7.13326 5.29346 6.41992 6.00012 6.41992 6.87346C6.41992 7.74679 7.12659 8.45346 7.99992 8.45346C8.87326 8.45346 9.57992 7.74679 9.57992 6.87346C9.57992 6.00012 8.86659 5.29346 7.99992 5.29346Z" fill="#292D32"/>
<path d="M7.99914 15.1735C7.01247 15.1735 6.01914 14.8002 5.24581 14.0602C3.27914 12.1668 1.10581 9.14683 1.92581 5.5535C2.66581 2.2935 5.51247 0.833496 7.99914 0.833496C7.99914 0.833496 7.99914 0.833496 8.00581 0.833496C10.4925 0.833496 13.3391 2.2935 14.0791 5.56016C14.8925 9.1535 12.7191 12.1668 10.7525 14.0602C9.97914 14.8002 8.98581 15.1735 7.99914 15.1735ZM7.99914 1.8335C6.05914 1.8335 3.56581 2.86683 2.90581 5.7735C2.18581 8.9135 4.15914 11.6202 5.94581 13.3335C7.09914 14.4468 8.90581 14.4468 10.0591 13.3335C11.8391 11.6202 13.8125 8.9135 13.1058 5.7735C12.4391 2.86683 9.93914 1.8335 7.99914 1.8335Z" fill="#292D32"/>
</svg>
