<svg width="16" height="17" viewBox="0 0 16 17" fill="none" xmlns="http://www.w3.org/2000/svg">
<path d="M12 7.66671C11.7267 7.66671 11.5 7.44004 11.5 7.16671V5.83337C11.5 3.73337 10.9067 2.33337 8 2.33337C5.09333 2.33337 4.5 3.73337 4.5 5.83337V7.16671C4.5 7.44004 4.27333 7.66671 4 7.66671C3.72667 7.66671 3.5 7.44004 3.5 7.16671V5.83337C3.5 3.90004 3.96667 1.33337 8 1.33337C12.0333 1.33337 12.5 3.90004 12.5 5.83337V7.16671C12.5 7.44004 12.2733 7.66671 12 7.66671Z" fill="#292D32"/>
<path d="M8 13.3333C6.80667 13.3333 5.83334 12.36 5.83334 11.1667C5.83334 9.97333 6.80667 9 8 9C9.19334 9 10.1667 9.97333 10.1667 11.1667C10.1667 12.36 9.19334 13.3333 8 13.3333ZM8 10C7.36 10 6.83334 10.5267 6.83334 11.1667C6.83334 11.8067 7.36 12.3333 8 12.3333C8.64 12.3333 9.16667 11.8067 9.16667 11.1667C9.16667 10.5267 8.64 10 8 10Z" fill="#292D32"/>
<path d="M11.3333 15.6666H4.66667C1.72667 15.6666 0.833336 14.7733 0.833336 11.8333V10.5C0.833336 7.55996 1.72667 6.66663 4.66667 6.66663H11.3333C14.2733 6.66663 15.1667 7.55996 15.1667 10.5V11.8333C15.1667 14.7733 14.2733 15.6666 11.3333 15.6666ZM4.66667 7.66663C2.28 7.66663 1.83334 8.11996 1.83334 10.5V11.8333C1.83334 14.2133 2.28 14.6666 4.66667 14.6666H11.3333C13.72 14.6666 14.1667 14.2133 14.1667 11.8333V10.5C14.1667 8.11996 13.72 7.66663 11.3333 7.66663H4.66667Z" fill="#292D32"/>
</svg>
