<svg width="16" height="16" viewBox="0 0 16 16" fill="none" xmlns="http://www.w3.org/2000/svg">
<g clip-path="url(#clip0_1217_5624)">
<mask id="path-1-inside-1_1217_5624" fill="white">
<path d="M5.56962 15.7024H5.66712C8.99712 15.7024 10.6021 14.3899 10.8796 11.4499C10.9096 11.1424 10.6846 10.8649 10.3696 10.8349C10.0696 10.8049 9.78462 11.0374 9.75462 11.3449C9.53712 13.6999 8.42712 14.5774 5.65962 14.5774H5.56212C2.50962 14.5774 1.42962 13.4974 1.42962 10.4449V5.55486C1.42962 2.50236 2.50962 1.42236 5.56212 1.42236H5.65962C8.44212 1.42236 9.55212 2.31486 9.75462 4.71486C9.79212 5.02236 10.0546 5.25486 10.3696 5.22486C10.6846 5.20236 10.9096 4.92486 10.8871 4.61736C10.6321 1.63236 9.01962 0.297363 5.66712 0.297363H5.56962C1.88712 0.297363 0.312122 1.87236 0.312122 5.55486V10.4449C0.312122 14.1274 1.88712 15.7024 5.56962 15.7024Z"/>
</mask>
<path d="M5.56962 15.7024H5.66712C8.99712 15.7024 10.6021 14.3899 10.8796 11.4499C10.9096 11.1424 10.6846 10.8649 10.3696 10.8349C10.0696 10.8049 9.78462 11.0374 9.75462 11.3449C9.53712 13.6999 8.42712 14.5774 5.65962 14.5774H5.56212C2.50962 14.5774 1.42962 13.4974 1.42962 10.4449V5.55486C1.42962 2.50236 2.50962 1.42236 5.56212 1.42236H5.65962C8.44212 1.42236 9.55212 2.31486 9.75462 4.71486C9.79212 5.02236 10.0546 5.25486 10.3696 5.22486C10.6846 5.20236 10.9096 4.92486 10.8871 4.61736C10.6321 1.63236 9.01962 0.297363 5.66712 0.297363H5.56962C1.88712 0.297363 0.312122 1.87236 0.312122 5.55486V10.4449C0.312122 14.1274 1.88712 15.7024 5.56962 15.7024Z" fill="#292D32"/>
<path d="M10.8796 11.4499L9.38625 11.3089L9.38671 11.3042L10.8796 11.4499ZM10.3696 10.8349L10.2274 12.3281L10.2204 12.3274L10.3696 10.8349ZM9.75462 11.3449L8.26096 11.2069L8.26171 11.1992L9.75462 11.3449ZM9.75462 4.71486L8.26565 4.89645L8.26228 4.86876L8.25993 4.84098L9.75462 4.71486ZM10.3696 5.22486L10.2274 3.73162L10.2451 3.72994L10.2628 3.72868L10.3696 5.22486ZM10.8871 4.61736L12.3817 4.48969L12.3825 4.49879L12.3831 4.5079L10.8871 4.61736ZM5.56962 14.2024H5.66712V17.2024H5.56962V14.2024ZM5.66712 14.2024C7.16861 14.2024 7.99856 13.901 8.46953 13.5166C8.90721 13.1593 9.27046 12.5358 9.38626 11.3089L12.373 11.5908C12.2113 13.3039 11.6333 14.8067 10.3666 15.8406C9.13318 16.8474 7.49564 17.2024 5.66712 17.2024V14.2024ZM9.38671 11.3042C9.33624 11.8215 9.71532 12.2793 10.2274 12.3281L10.5118 9.34162C11.6539 9.45039 12.483 10.4632 12.3725 11.5955L9.38671 11.3042ZM10.2204 12.3274C10.7541 12.3808 11.1977 12.0009 11.2475 11.4905L8.26171 11.1992C8.3715 10.0739 9.3851 9.22893 10.5189 9.34231L10.2204 12.3274ZM11.2483 11.4828C11.1218 12.8517 10.7046 14.1437 9.59295 15.0215C8.5369 15.8554 7.14188 16.0774 5.65962 16.0774V13.0774C6.94486 13.0774 7.48859 12.8606 7.7338 12.667C7.92339 12.5173 8.16991 12.193 8.26098 11.2069L11.2483 11.4828ZM5.65962 16.0774H5.56212V13.0774H5.65962V16.0774ZM5.56212 16.0774C3.93197 16.0774 2.37897 15.8049 1.29052 14.7165C0.202081 13.628 -0.0703773 12.075 -0.0703773 10.4449H2.92962C2.92962 11.8672 3.19716 12.3805 3.41184 12.5951C3.62653 12.8098 4.13977 13.0774 5.56212 13.0774V16.0774ZM-0.0703773 10.4449V5.55486H2.92962V10.4449H-0.0703773ZM-0.0703773 5.55486C-0.0703773 3.92471 0.202081 2.37171 1.29052 1.28327C2.37897 0.194821 3.93197 -0.0776366 5.56212 -0.0776366V2.92236C4.13977 2.92236 3.62653 3.18991 3.41184 3.40459C3.19716 3.61927 2.92962 4.13251 2.92962 5.55486H-0.0703773ZM5.56212 -0.0776366H5.65962V2.92236H5.56212V-0.0776366ZM5.65962 -0.0776366C7.15055 -0.0776366 8.55577 0.148326 9.61454 0.999614C10.7253 1.89274 11.1324 3.20316 11.2493 4.58875L8.25993 4.84098C8.17434 3.82656 7.92515 3.49073 7.73471 3.33761C7.49223 3.14265 6.95119 2.92236 5.65962 2.92236V-0.0776366ZM11.2436 4.53328C11.1912 4.10395 10.7904 3.67801 10.2274 3.73162L10.5118 6.71811C9.31888 6.83172 8.39301 5.94077 8.26565 4.89645L11.2436 4.53328ZM10.2628 3.72868C9.70793 3.76831 9.35625 4.25022 9.39112 4.72683L12.3831 4.5079C12.463 5.5995 11.6613 6.63642 10.4765 6.72105L10.2628 3.72868ZM9.39257 4.74504C9.28568 3.49386 8.92154 2.8571 8.48228 2.49354C8.01111 2.10357 7.17803 1.79736 5.66712 1.79736V-1.20264C7.50872 -1.20264 9.15813 -0.841341 10.3951 0.18244C11.664 1.23263 12.2336 2.75586 12.3817 4.48969L9.39257 4.74504ZM5.66712 1.79736H5.56962V-1.20264H5.66712V1.79736ZM5.56962 1.79736C3.90094 1.79736 3.06644 2.15999 2.62059 2.60584C2.17475 3.05168 1.81212 3.88618 1.81212 5.55486H-1.18788C-1.18788 3.54104 -0.763005 1.7468 0.499275 0.484516C1.76155 -0.777765 3.5558 -1.20264 5.56962 -1.20264V1.79736ZM1.81212 5.55486V10.4449H-1.18788V5.55486H1.81212ZM1.81212 10.4449C1.81212 12.1135 2.17475 12.948 2.62059 13.3939C3.06644 13.8397 3.90094 14.2024 5.56962 14.2024V17.2024C3.5558 17.2024 1.76155 16.7775 0.499275 15.5152C-0.763005 14.2529 -1.18788 12.4587 -1.18788 10.4449H1.81212Z" fill="#0C5137" mask="url(#path-1-inside-1_1217_5624)"/>
<mask id="path-3-inside-2_1217_5624" fill="white">
<path d="M5.75016 8.5625H14.2852C14.5927 8.5625 14.8477 8.3075 14.8477 8C14.8477 7.6925 14.5927 7.4375 14.2852 7.4375H5.75016C5.44266 7.4375 5.18766 7.6925 5.18766 8C5.18766 8.3075 5.44266 8.5625 5.75016 8.5625Z"/>
</mask>
<path d="M5.75016 8.5625H14.2852C14.5927 8.5625 14.8477 8.3075 14.8477 8C14.8477 7.6925 14.5927 7.4375 14.2852 7.4375H5.75016C5.44266 7.4375 5.18766 7.6925 5.18766 8C5.18766 8.3075 5.44266 8.5625 5.75016 8.5625Z" fill="#292D32"/>
<path d="M5.75016 7.0625H14.2852V10.0625H5.75016V7.0625ZM14.2852 7.0625C13.7642 7.0625 13.3477 7.47907 13.3477 8H16.3477C16.3477 9.13593 15.4211 10.0625 14.2852 10.0625V7.0625ZM13.3477 8C13.3477 8.52093 13.7642 8.9375 14.2852 8.9375V5.9375C15.4211 5.9375 16.3477 6.86407 16.3477 8H13.3477ZM14.2852 8.9375H5.75016V5.9375H14.2852V8.9375ZM5.75016 8.9375C6.27108 8.9375 6.68766 8.52093 6.68766 8H3.68766C3.68766 6.86407 4.61423 5.9375 5.75016 5.9375V8.9375ZM6.68766 8C6.68766 7.47907 6.27108 7.0625 5.75016 7.0625V10.0625C4.61423 10.0625 3.68766 9.13593 3.68766 8H6.68766Z" fill="#0C5137" mask="url(#path-3-inside-2_1217_5624)"/>
<mask id="path-5-inside-3_1217_5624" fill="white">
<path d="M12.6124 11.0749C12.7549 11.0749 12.8974 11.0224 13.0099 10.9099L15.5224 8.39738C15.7399 8.17988 15.7399 7.81988 15.5224 7.60238L13.0099 5.08988C12.7924 4.87238 12.4324 4.87238 12.2149 5.08988C11.9974 5.30738 11.9974 5.66738 12.2149 5.88488L14.3299 7.99988L12.2149 10.1149C11.9974 10.3324 11.9974 10.6924 12.2149 10.9099C12.3199 11.0224 12.4699 11.0749 12.6124 11.0749Z"/>
</mask>
<path d="M12.6124 11.0749C12.7549 11.0749 12.8974 11.0224 13.0099 10.9099L15.5224 8.39738C15.7399 8.17988 15.7399 7.81988 15.5224 7.60238L13.0099 5.08988C12.7924 4.87238 12.4324 4.87238 12.2149 5.08988C11.9974 5.30738 11.9974 5.66738 12.2149 5.88488L14.3299 7.99988L12.2149 10.1149C11.9974 10.3324 11.9974 10.6924 12.2149 10.9099C12.3199 11.0224 12.4699 11.0749 12.6124 11.0749Z" fill="#292D32"/>
<path d="M13.0099 10.9099L14.0706 11.9705H14.0706L13.0099 10.9099ZM15.5224 8.39738L14.4618 7.33672L15.5224 8.39738ZM15.5224 7.60238L14.4618 8.66304L15.5224 7.60238ZM13.0099 5.08988L14.0706 4.02922H14.0706L13.0099 5.08988ZM12.2149 5.88488L11.1543 6.94554L12.2149 5.88488ZM14.3299 7.99988L15.3906 6.93922L16.4512 7.99988L15.3906 9.06054L14.3299 7.99988ZM12.2149 10.1149L11.1543 9.05422L12.2149 10.1149ZM12.2149 10.9099L13.2756 9.84922L13.2939 9.8675L13.3115 9.88641L12.2149 10.9099ZM12.6124 9.57488C12.3786 9.57488 12.1329 9.66559 11.9493 9.84922L14.0706 11.9705C13.662 12.3792 13.1313 12.5749 12.6124 12.5749V9.57488ZM11.9493 9.84922L14.4618 7.33672L16.5831 9.45804L14.0706 11.9705L11.9493 9.84922ZM14.4618 7.33672C14.0935 7.70501 14.0935 8.29476 14.4618 8.66304L16.5831 6.54172C17.3864 7.34501 17.3864 8.65476 16.5831 9.45804L14.4618 7.33672ZM14.4618 8.66304L11.9493 6.15054L14.0706 4.02922L16.5831 6.54172L14.4618 8.66304ZM11.9493 6.15054C12.3175 6.51883 12.9073 6.51883 13.2756 6.15054L11.1543 4.02922C11.9575 3.22594 13.2673 3.22594 14.0706 4.02922L11.9493 6.15054ZM13.2756 6.15054C13.6439 5.78226 13.6439 5.19251 13.2756 4.82422L11.1543 6.94554C10.351 6.14226 10.351 4.83251 11.1543 4.02922L13.2756 6.15054ZM13.2756 4.82422L15.3906 6.93922L13.2693 9.06054L11.1543 6.94554L13.2756 4.82422ZM15.3906 9.06054L13.2756 11.1755L11.1543 9.05422L13.2693 6.93922L15.3906 9.06054ZM13.2756 11.1755C13.6439 10.8073 13.6439 10.2175 13.2756 9.84922L11.1543 11.9705C10.351 11.1673 10.351 9.85751 11.1543 9.05422L13.2756 11.1755ZM13.3115 9.88641C13.0872 9.64613 12.8138 9.57488 12.6124 9.57488V12.5749C12.126 12.5749 11.5526 12.3986 11.1183 11.9334L13.3115 9.88641Z" fill="#0C5137" mask="url(#path-5-inside-3_1217_5624)"/>
</g>
<defs>
<clipPath id="clip0_1217_5624">
<rect width="16" height="16" fill="white"/>
</clipPath>
</defs>
</svg>
