<svg width="25" height="24" viewBox="0 0 25 24" fill="none" xmlns="http://www.w3.org/2000/svg">
<path d="M18.147 10.79V14.79C18.147 15.05 18.137 15.3 18.107 15.54C17.877 18.24 16.287 19.58 13.357 19.58H12.957C12.707 19.58 12.467 19.7 12.317 19.9L11.117 21.5C10.587 22.21 9.72699 22.21 9.19699 21.5L7.99698 19.9C7.86698 19.73 7.57699 19.58 7.35699 19.58H6.957C3.767 19.58 2.16699 18.79 2.16699 14.79V10.79C2.16699 7.86001 3.517 6.27001 6.207 6.04001C6.447 6.01001 6.697 6 6.957 6H13.357C16.547 6 18.147 7.60001 18.147 10.79Z" stroke="#292D32" stroke-width="1.5" stroke-miterlimit="10" stroke-linecap="round" stroke-linejoin="round"/>
<path d="M22.147 6.79001V10.79C22.147 13.73 20.797 15.31 18.107 15.54C18.137 15.3 18.147 15.05 18.147 14.79V10.79C18.147 7.60001 16.547 6 13.357 6H6.95703C6.69703 6 6.44703 6.01001 6.20703 6.04001C6.43703 3.35001 8.02703 2 10.957 2H17.357C20.547 2 22.147 3.60001 22.147 6.79001Z" stroke="#292D32" stroke-width="1.5" stroke-miterlimit="10" stroke-linecap="round" stroke-linejoin="round"/>
<path d="M13.6625 13.25H13.6715" stroke="#292D32" stroke-width="1.5" stroke-linecap="round" stroke-linejoin="round"/>
<path d="M10.1625 13.25H10.1715" stroke="#292D32" stroke-width="1.5" stroke-linecap="round" stroke-linejoin="round"/>
<path d="M6.66249 13.25H6.67149" stroke="#292D32" stroke-width="1.5" stroke-linecap="round" stroke-linejoin="round"/>
</svg>
