<svg width="18" height="18" viewBox="0 0 18 18" fill="none" xmlns="http://www.w3.org/2000/svg">
<mask id="path-1-inside-1_1217_5586" fill="white">
<path d="M6.375 8.4375H11.625C11.9325 8.4375 12.1875 8.1825 12.1875 7.875C12.1875 7.5675 11.9325 7.3125 11.625 7.3125H6.375C6.0675 7.3125 5.8125 7.5675 5.8125 7.875C5.8125 8.1825 6.0675 8.4375 6.375 8.4375Z"/>
</mask>
<path d="M6.375 8.4375H11.625C11.9325 8.4375 12.1875 8.1825 12.1875 7.875C12.1875 7.5675 11.9325 7.3125 11.625 7.3125H6.375C6.0675 7.3125 5.8125 7.5675 5.8125 7.875C5.8125 8.1825 6.0675 8.4375 6.375 8.4375Z" fill="#292D32"/>
<path d="M6.375 6.9375H11.625V9.9375H6.375V6.9375ZM11.625 6.9375C11.1041 6.9375 10.6875 7.35407 10.6875 7.875H13.6875C13.6875 9.01093 12.7609 9.9375 11.625 9.9375V6.9375ZM10.6875 7.875C10.6875 8.39593 11.1041 8.8125 11.625 8.8125V5.8125C12.7609 5.8125 13.6875 6.73907 13.6875 7.875H10.6875ZM11.625 8.8125H6.375V5.8125H11.625V8.8125ZM6.375 8.8125C6.89593 8.8125 7.3125 8.39593 7.3125 7.875H4.3125C4.3125 6.73907 5.23907 5.8125 6.375 5.8125V8.8125ZM7.3125 7.875C7.3125 7.35407 6.89593 6.9375 6.375 6.9375V9.9375C5.23907 9.9375 4.3125 9.01093 4.3125 7.875H7.3125Z" fill="#0C5137" mask="url(#path-1-inside-1_1217_5586)"/>
<mask id="path-3-inside-2_1217_5586" fill="white">
<path d="M6 16.7401C6.255 16.7401 6.51 16.6651 6.7275 16.5226L9.92251 14.3926H12.75C15.33 14.3926 17.0625 12.6601 17.0625 10.0801V5.58008C17.0625 3.00008 15.33 1.26758 12.75 1.26758H5.25C2.67 1.26758 0.9375 3.00008 0.9375 5.58008V10.0801C0.9375 12.4651 2.4225 14.1301 4.6875 14.3626V15.4276C4.6875 15.9151 4.95001 16.3576 5.37751 16.5826C5.57251 16.6876 5.79 16.7401 6 16.7401ZM12.75 2.38507C14.685 2.38507 15.9375 3.63757 15.9375 5.57257V10.0726C15.9375 12.0076 14.685 13.2601 12.75 13.2601H9.75C9.6375 13.2601 9.53249 13.2901 9.43499 13.3576L6.0975 15.5776C6.015 15.6301 5.94 15.6076 5.9025 15.5851C5.865 15.5626 5.80499 15.5176 5.80499 15.4201V13.8226C5.80499 13.5151 5.54999 13.2601 5.24249 13.2601C3.30749 13.2601 2.05499 12.0076 2.05499 10.0726V5.57257C2.05499 3.63757 3.30749 2.38507 5.24249 2.38507H12.75Z"/>
</mask>
<path d="M6 16.7401C6.255 16.7401 6.51 16.6651 6.7275 16.5226L9.92251 14.3926H12.75C15.33 14.3926 17.0625 12.6601 17.0625 10.0801V5.58008C17.0625 3.00008 15.33 1.26758 12.75 1.26758H5.25C2.67 1.26758 0.9375 3.00008 0.9375 5.58008V10.0801C0.9375 12.4651 2.4225 14.1301 4.6875 14.3626V15.4276C4.6875 15.9151 4.95001 16.3576 5.37751 16.5826C5.57251 16.6876 5.79 16.7401 6 16.7401ZM12.75 2.38507C14.685 2.38507 15.9375 3.63757 15.9375 5.57257V10.0726C15.9375 12.0076 14.685 13.2601 12.75 13.2601H9.75C9.6375 13.2601 9.53249 13.2901 9.43499 13.3576L6.0975 15.5776C6.015 15.6301 5.94 15.6076 5.9025 15.5851C5.865 15.5626 5.80499 15.5176 5.80499 15.4201V13.8226C5.80499 13.5151 5.54999 13.2601 5.24249 13.2601C3.30749 13.2601 2.05499 12.0076 2.05499 10.0726V5.57257C2.05499 3.63757 3.30749 2.38507 5.24249 2.38507H12.75Z" fill="#292D32"/>
<path d="M6.7275 16.5226L7.55958 17.7707L7.54954 17.7773L6.7275 16.5226ZM9.92251 14.3926L9.09045 13.1445L9.46834 12.8926H9.92251V14.3926ZM4.6875 14.3626L4.84067 12.8704L6.1875 13.0087V14.3626H4.6875ZM5.37751 16.5826L6.07613 15.2552L6.08241 15.2585L6.08866 15.2619L5.37751 16.5826ZM9.43499 13.3576L10.2888 14.5909L10.2774 14.5988L10.2658 14.6065L9.43499 13.3576ZM6.0975 15.5776L6.92826 16.8265L6.91562 16.8349L6.90282 16.8431L6.0975 15.5776ZM6 15.2401C5.96437 15.2401 5.93343 15.2496 5.90546 15.2679L7.54954 17.7773C7.08657 18.0806 6.54563 18.2401 6 18.2401V15.2401ZM5.89545 15.2745L9.09045 13.1445L10.7546 15.6407L7.55956 17.7707L5.89545 15.2745ZM9.92251 12.8926H12.75V15.8926H9.92251V12.8926ZM12.75 12.8926C13.6964 12.8926 14.3749 12.5813 14.8131 12.1432C15.2513 11.705 15.5625 11.0265 15.5625 10.0801H18.5625C18.5625 11.7137 18.0075 13.1914 16.9344 14.2645C15.8613 15.3376 14.3836 15.8926 12.75 15.8926V12.8926ZM15.5625 10.0801V5.58008H18.5625V10.0801H15.5625ZM15.5625 5.58008C15.5625 4.63369 15.2513 3.95516 14.8131 3.51699C14.3749 3.07881 13.6964 2.76758 12.75 2.76758V-0.232422C14.3836 -0.232422 15.8613 0.322593 16.9344 1.39567C18.0075 2.46874 18.5625 3.94646 18.5625 5.58008H15.5625ZM12.75 2.76758H5.25V-0.232422H12.75V2.76758ZM5.25 2.76758C4.30361 2.76758 3.62509 3.07881 3.18691 3.51699C2.74873 3.95516 2.4375 4.63369 2.4375 5.58008H-0.5625C-0.5625 3.94646 -0.00748444 2.46874 1.06559 1.39567C2.13866 0.322593 3.61639 -0.232422 5.25 -0.232422V2.76758ZM2.4375 5.58008V10.0801H-0.5625V5.58008H2.4375ZM2.4375 10.0801C2.4375 10.9558 2.70572 11.6019 3.08909 12.0375C3.47035 12.4706 4.04699 12.789 4.84067 12.8704L4.53433 15.8548C3.06301 15.7037 1.76465 15.0733 0.837164 14.0196C-0.0882225 12.9683 -0.5625 11.5894 -0.5625 10.0801H2.4375ZM6.1875 14.3626V15.4276H3.1875V14.3626H6.1875ZM6.1875 15.4276C6.1875 15.371 6.15275 15.2955 6.07613 15.2552L4.67889 17.9099C3.74727 17.4196 3.1875 16.4591 3.1875 15.4276H6.1875ZM6.08866 15.2619C6.07351 15.2537 6.05963 15.2487 6.047 15.2455C6.03453 15.2424 6.01924 15.2401 6 15.2401V18.2401C5.5458 18.2401 5.08345 18.1279 4.66636 17.9033L6.08866 15.2619ZM12.75 0.885071C14.0472 0.885071 15.2489 1.31145 16.13 2.19254C17.0111 3.07362 17.4375 4.2754 17.4375 5.57257H14.4375C14.4375 4.93475 14.2376 4.54277 14.0087 4.31386C13.7798 4.08494 13.3878 3.88507 12.75 3.88507V0.885071ZM17.4375 5.57257V10.0726H14.4375V5.57257H17.4375ZM17.4375 10.0726C17.4375 11.3697 17.0111 12.5715 16.13 13.4526C15.2489 14.3337 14.0472 14.7601 12.75 14.7601V11.7601C13.3878 11.7601 13.7798 11.5602 14.0087 11.3313C14.2376 11.1024 14.4375 10.7104 14.4375 10.0726H17.4375ZM12.75 14.7601H9.75V11.7601H12.75V14.7601ZM9.75 14.7601C9.82887 14.7601 9.92234 14.7493 10.0226 14.7188C10.1236 14.6882 10.2134 14.643 10.2888 14.5909L8.58117 12.1243C8.9432 11.8737 9.34946 11.7601 9.75 11.7601V14.7601ZM10.2658 14.6065L6.92826 16.8265L5.26674 14.3287L8.60423 12.1086L10.2658 14.6065ZM6.90282 16.8431C6.21257 17.2823 5.50958 17.0986 5.13075 16.8713L6.67424 14.2989C6.51808 14.2052 6.31258 14.1254 6.06624 14.1118C5.79724 14.0968 5.52416 14.1645 5.29219 14.3121L6.90282 16.8431ZM5.13075 16.8713C4.92204 16.7461 4.30499 16.305 4.30499 15.4201H7.30499C7.30499 15.1322 7.20738 14.8544 7.03976 14.6308C6.89093 14.4323 6.72638 14.3301 6.67424 14.2989L5.13075 16.8713ZM4.30499 15.4201V13.8226H7.30499V15.4201H4.30499ZM4.30499 13.8226C4.30499 14.3435 4.72157 14.7601 5.24249 14.7601V11.7601C6.37842 11.7601 7.30499 12.6866 7.30499 13.8226H4.30499ZM5.24249 14.7601C3.94532 14.7601 2.74354 14.3337 1.86246 13.4526C0.981373 12.5715 0.554993 11.3697 0.554993 10.0726H3.55499C3.55499 10.7104 3.75486 11.1024 3.98378 11.3313C4.21269 11.5602 4.60467 11.7601 5.24249 11.7601V14.7601ZM0.554993 10.0726V5.57257H3.55499V10.0726H0.554993ZM0.554993 5.57257C0.554993 4.2754 0.981373 3.07362 1.86246 2.19254C2.74354 1.31145 3.94532 0.885071 5.24249 0.885071V3.88507C4.60467 3.88507 4.21269 4.08494 3.98378 4.31386C3.75486 4.54277 3.55499 4.93475 3.55499 5.57257H0.554993ZM5.24249 0.885071H12.75V3.88507H5.24249V0.885071Z" fill="#0C5137" mask="url(#path-3-inside-2_1217_5586)"/>
</svg>
