<svg width="17" height="16" viewBox="0 0 17 16" fill="none" xmlns="http://www.w3.org/2000/svg">
<path d="M5.73333 13.7792C5.85999 13.7792 5.98666 13.7325 6.08666 13.6325C6.27999 13.4392 6.27999 13.1192 6.08666 12.9258L1.73999 8.57916C1.41999 8.25916 1.41999 7.73916 1.73999 7.41916L6.08666 3.07249C6.27999 2.87916 6.27999 2.55916 6.08666 2.36583C5.89333 2.17249 5.57333 2.17249 5.37999 2.36583L1.03333 6.71249C0.693326 7.05249 0.499993 7.51249 0.499993 7.99916C0.499993 8.48583 0.686659 8.94583 1.03333 9.28583L5.37999 13.6325C5.47999 13.7258 5.60666 13.7792 5.73333 13.7792Z" fill="white"/>
<path d="M10.56 13.78C10.6867 13.78 10.8133 13.7333 10.9133 13.6333C11.1067 13.44 11.1067 13.12 10.9133 12.9267L6.56665 8.58001C6.24665 8.26001 6.24665 7.74001 6.56665 7.42001L10.9133 3.07335C11.1067 2.88001 11.1067 2.56001 10.9133 2.36668C10.72 2.17335 10.4 2.17335 10.2067 2.36668L5.85999 6.71335C5.51999 7.05335 5.32665 7.51335 5.32665 8.00001C5.32665 8.48668 5.51332 8.94668 5.85999 9.28668L10.2067 13.6333C10.3067 13.7267 10.4333 13.78 10.56 13.78Z" fill="white"/>
</svg>
