<svg width="20" height="20" viewBox="0 0 20 20" fill="none" xmlns="http://www.w3.org/2000/svg">
<path d="M10 8.7667C9.65833 8.7667 9.375 8.48337 9.375 8.1417V5.3667C9.375 5.02503 9.65833 4.7417 10 4.7417C10.3417 4.7417 10.625 5.02503 10.625 5.3667V8.1417C10.625 8.4917 10.3417 8.7667 10 8.7667Z" fill="#0C5137"/>
<path d="M10.0167 16.9584C7.86667 16.9584 5.72501 16.6168 3.68334 15.9334C2.92501 15.6834 2.35001 15.1418 2.10001 14.4584C1.85001 13.7751 1.93334 12.9918 2.34167 12.3084L3.40001 10.5418C3.63334 10.1501 3.84167 9.41678 3.84167 8.95845V7.20845C3.84167 3.80011 6.60834 1.03345 10.0167 1.03345C13.425 1.03345 16.1917 3.80011 16.1917 7.20845V8.95845C16.1917 9.40845 16.4 10.1501 16.6333 10.5418L17.6917 12.3084C18.0833 12.9584 18.15 13.7334 17.8917 14.4418C17.6333 15.1501 17.0667 15.6918 16.35 15.9334C14.3083 16.6251 12.1667 16.9584 10.0167 16.9584ZM10.0167 2.29178C7.30001 2.29178 5.09167 4.50011 5.09167 7.21678V8.96678C5.09167 9.64178 4.82501 10.6168 4.47501 11.1918L3.41667 12.9668C3.20001 13.3251 3.15001 13.7084 3.27501 14.0418C3.40001 14.3751 3.68334 14.6251 4.08334 14.7584C7.91667 16.0334 12.1333 16.0334 15.9667 14.7584C16.325 14.6418 16.6 14.3751 16.725 14.0251C16.8583 13.6751 16.8167 13.2918 16.625 12.9668L15.5667 11.2001C15.2167 10.6251 14.95 9.65012 14.95 8.97511V7.22511C14.9417 4.50011 12.7333 2.29178 10.0167 2.29178Z" fill="#0C5137"/>
<path d="M10 19.0833C9.10834 19.0833 8.23334 18.7167 7.60001 18.0833C6.96667 17.45 6.60001 16.575 6.60001 15.6833H7.85001C7.85001 16.25 8.08334 16.8 8.48334 17.2C8.88334 17.6 9.43334 17.8333 10 17.8333C11.1833 17.8333 12.15 16.8667 12.15 15.6833H13.4C13.4 17.5583 11.875 19.0833 10 19.0833Z" fill="#0C5137"/>
</svg>
