<svg width="25" height="24" viewBox="0 0 25 24" fill="none" xmlns="http://www.w3.org/2000/svg">
<mask id="path-1-inside-1_2225_1438" fill="white">
<path d="M8.83301 5.75C8.42301 5.75 8.08301 5.41 8.08301 5V2C8.08301 1.59 8.42301 1.25 8.83301 1.25C9.24301 1.25 9.58301 1.59 9.58301 2V5C9.58301 5.41 9.24301 5.75 8.83301 5.75Z"/>
</mask>
<path d="M8.83301 5.75C8.42301 5.75 8.08301 5.41 8.08301 5V2C8.08301 1.59 8.42301 1.25 8.83301 1.25C9.24301 1.25 9.58301 1.59 9.58301 2V5C9.58301 5.41 9.24301 5.75 8.83301 5.75Z" fill="#231F20"/>
<path d="M8.83301 4.25C9.25143 4.25 9.58301 4.58157 9.58301 5H6.58301C6.58301 6.23843 7.59458 7.25 8.83301 7.25V4.25ZM9.58301 5V2H6.58301V5H9.58301ZM9.58301 2C9.58301 2.41843 9.25143 2.75 8.83301 2.75V-0.25C7.59458 -0.25 6.58301 0.761573 6.58301 2H9.58301ZM8.83301 2.75C8.41458 2.75 8.08301 2.41843 8.08301 2H11.083C11.083 0.761573 10.0714 -0.25 8.83301 -0.25V2.75ZM8.08301 2V5H11.083V2H8.08301ZM8.08301 5C8.08301 4.58157 8.41458 4.25 8.83301 4.25V7.25C10.0714 7.25 11.083 6.23843 11.083 5H8.08301Z" fill="#231F20" mask="url(#path-1-inside-1_2225_1438)"/>
<mask id="path-3-inside-2_2225_1438" fill="white">
<path d="M16.833 5.75C16.423 5.75 16.083 5.41 16.083 5V2C16.083 1.59 16.423 1.25 16.833 1.25C17.243 1.25 17.583 1.59 17.583 2V5C17.583 5.41 17.243 5.75 16.833 5.75Z"/>
</mask>
<path d="M16.833 5.75C16.423 5.75 16.083 5.41 16.083 5V2C16.083 1.59 16.423 1.25 16.833 1.25C17.243 1.25 17.583 1.59 17.583 2V5C17.583 5.41 17.243 5.75 16.833 5.75Z" fill="#231F20"/>
<path d="M16.833 4.25C17.2514 4.25 17.583 4.58157 17.583 5H14.583C14.583 6.23843 15.5946 7.25 16.833 7.25V4.25ZM17.583 5V2H14.583V5H17.583ZM17.583 2C17.583 2.41843 17.2514 2.75 16.833 2.75V-0.25C15.5946 -0.25 14.583 0.761573 14.583 2H17.583ZM16.833 2.75C16.4146 2.75 16.083 2.41843 16.083 2H19.083C19.083 0.761573 18.0714 -0.25 16.833 -0.25V2.75ZM16.083 2V5H19.083V2H16.083ZM16.083 5C16.083 4.58157 16.4146 4.25 16.833 4.25V7.25C18.0714 7.25 19.083 6.23843 19.083 5H16.083Z" fill="#231F20" mask="url(#path-3-inside-2_2225_1438)"/>
<mask id="path-5-inside-3_2225_1438" fill="white">
<path d="M15.833 13.75H7.83301C7.42301 13.75 7.08301 13.41 7.08301 13C7.08301 12.59 7.42301 12.25 7.83301 12.25H15.833C16.243 12.25 16.583 12.59 16.583 13C16.583 13.41 16.243 13.75 15.833 13.75Z"/>
</mask>
<path d="M15.833 13.75H7.83301C7.42301 13.75 7.08301 13.41 7.08301 13C7.08301 12.59 7.42301 12.25 7.83301 12.25H15.833C16.243 12.25 16.583 12.59 16.583 13C16.583 13.41 16.243 13.75 15.833 13.75Z" fill="#231F20"/>
<path d="M15.833 12.25H7.83301V15.25H15.833V12.25ZM7.83301 12.25C8.25143 12.25 8.58301 12.5816 8.58301 13H5.58301C5.58301 14.2384 6.59458 15.25 7.83301 15.25V12.25ZM8.58301 13C8.58301 13.4184 8.25143 13.75 7.83301 13.75V10.75C6.59458 10.75 5.58301 11.7616 5.58301 13H8.58301ZM7.83301 13.75H15.833V10.75H7.83301V13.75ZM15.833 13.75C15.4146 13.75 15.083 13.4184 15.083 13H18.083C18.083 11.7616 17.0714 10.75 15.833 10.75V13.75ZM15.083 13C15.083 12.5816 15.4146 12.25 15.833 12.25V15.25C17.0714 15.25 18.083 14.2384 18.083 13H15.083Z" fill="#231F20" mask="url(#path-5-inside-3_2225_1438)"/>
<mask id="path-7-inside-4_2225_1438" fill="white">
<path d="M12.833 17.75H7.83301C7.42301 17.75 7.08301 17.41 7.08301 17C7.08301 16.59 7.42301 16.25 7.83301 16.25H12.833C13.243 16.25 13.583 16.59 13.583 17C13.583 17.41 13.243 17.75 12.833 17.75Z"/>
</mask>
<path d="M12.833 17.75H7.83301C7.42301 17.75 7.08301 17.41 7.08301 17C7.08301 16.59 7.42301 16.25 7.83301 16.25H12.833C13.243 16.25 13.583 16.59 13.583 17C13.583 17.41 13.243 17.75 12.833 17.75Z" fill="#292D32"/>
<path d="M12.833 16.25H7.83301V19.25H12.833V16.25ZM7.83301 16.25C8.25143 16.25 8.58301 16.5816 8.58301 17H5.58301C5.58301 18.2384 6.59458 19.25 7.83301 19.25V16.25ZM8.58301 17C8.58301 17.4184 8.25143 17.75 7.83301 17.75V14.75C6.59458 14.75 5.58301 15.7616 5.58301 17H8.58301ZM7.83301 17.75H12.833V14.75H7.83301V17.75ZM12.833 17.75C12.4146 17.75 12.083 17.4184 12.083 17H15.083C15.083 15.7616 14.0714 14.75 12.833 14.75V17.75ZM12.083 17C12.083 16.5816 12.4146 16.25 12.833 16.25V19.25C14.0714 19.25 15.083 18.2384 15.083 17H12.083Z" fill="#231F20" mask="url(#path-7-inside-4_2225_1438)"/>
<path d="M15.833 22.75H9.83301C4.21301 22.75 3.08301 20.1 3.08301 15.82V9.65C3.08301 4.91 4.68301 2.98 8.79301 2.75H16.833C16.843 2.75 16.863 2.75 16.873 2.75C20.983 2.98 22.583 4.91 22.583 9.65V15.82C22.583 20.1 21.453 22.75 15.833 22.75ZM8.83301 4.25C6.03301 4.41 4.58301 5.29 4.58301 9.65V15.82C4.58301 19.65 5.31301 21.25 9.83301 21.25H15.833C20.353 21.25 21.083 19.65 21.083 15.82V9.65C21.083 5.3 19.643 4.41 16.813 4.25H8.83301Z" fill="#292D32"/>
</svg>
