<svg width="16" height="17" viewBox="0 0 16 17" fill="none" xmlns="http://www.w3.org/2000/svg">
<path d="M8.10641 8.24665C8.08641 8.24665 8.07308 8.24665 8.05307 8.24665C8.01974 8.23998 7.97307 8.23998 7.93307 8.24665C5.99974 8.18665 4.53974 6.66665 4.53974 4.79331C4.53974 2.88665 6.09308 1.33331 7.99974 1.33331C9.90641 1.33331 11.4597 2.88665 11.4597 4.79331C11.4531 6.66665 9.98641 8.18665 8.12641 8.24665C8.11974 8.24665 8.11307 8.24665 8.10641 8.24665ZM7.99974 2.33331C6.64641 2.33331 5.53974 3.43998 5.53974 4.79331C5.53974 6.12665 6.57974 7.19998 7.90641 7.24665C7.93974 7.23998 8.03308 7.23998 8.11974 7.24665C9.42641 7.18665 10.4531 6.11331 10.4597 4.79331C10.4597 3.43998 9.35308 2.33331 7.99974 2.33331Z" fill="#292D32"/>
<path d="M8.11307 15.5334C6.80641 15.5334 5.49307 15.2 4.49974 14.5334C3.57307 13.92 3.06641 13.08 3.06641 12.1667C3.06641 11.2534 3.57307 10.4067 4.49974 9.78669C6.49974 8.46002 9.73974 8.46002 11.7264 9.78669C12.6464 10.4 13.1597 11.24 13.1597 12.1534C13.1597 13.0667 12.6531 13.9134 11.7264 14.5334C10.7264 15.2 9.41974 15.5334 8.11307 15.5334ZM5.05307 10.6267C4.41307 11.0534 4.06641 11.6 4.06641 12.1734C4.06641 12.74 4.41974 13.2867 5.05307 13.7067C6.71307 14.82 9.51307 14.82 11.1731 13.7067C11.8131 13.28 12.1597 12.7334 12.1597 12.16C12.1597 11.5934 11.8064 11.0467 11.1731 10.6267C9.51307 9.52002 6.71307 9.52002 5.05307 10.6267Z" fill="#292D32"/>
</svg>
