<svg width="18" height="18" viewBox="0 0 18 18" fill="none" xmlns="http://www.w3.org/2000/svg">
<path d="M2.47517 17.0623C2.20517 17.0623 1.94267 16.9949 1.71767 16.8599C1.21517 16.5674 0.930176 15.9823 0.930176 15.2548V6.73486C0.930176 5.13736 2.22766 3.83984 3.82516 3.83984H9.66019C11.2577 3.83984 12.5552 5.13736 12.5552 6.73486V15.2548C12.5552 15.9823 12.2702 16.5599 11.7677 16.8599C11.2652 17.1524 10.6202 17.1223 9.98268 16.7698L7.03519 15.1274C6.89269 15.0449 6.59266 15.0449 6.45016 15.1274L3.50267 16.7698C3.15767 16.9648 2.80517 17.0623 2.47517 17.0623ZM3.83267 4.97235C2.85767 4.97235 2.06268 5.76734 2.06268 6.74234V15.2624C2.06268 15.5699 2.15268 15.8098 2.29518 15.8923C2.43768 15.9748 2.69269 15.9373 2.96269 15.7873L5.91019 14.1448C6.39019 13.8823 7.11018 13.8823 7.59018 14.1448L10.5377 15.7873C10.8077 15.9373 11.0552 15.9748 11.2052 15.8923C11.3477 15.8098 11.4377 15.5699 11.4377 15.2624V6.74234C11.4377 5.76734 10.6427 4.97235 9.66769 4.97235H3.83267Z" fill="#0C5137"/>
<path d="M11.0175 17.0625C10.6875 17.0625 10.3425 16.965 9.99001 16.7775L7.04251 15.135C6.90001 15.06 6.59248 15.06 6.44998 15.135L3.50999 16.7775C2.87249 17.13 2.21999 17.16 1.72499 16.8675C1.22249 16.575 0.9375 15.99 0.9375 15.27V6.74997C0.9375 5.15247 2.23499 3.85498 3.83249 3.85498H9.66751C11.265 3.85498 12.5625 5.15247 12.5625 6.74997V15.27C12.5625 15.99 12.2775 16.575 11.775 16.8675C11.55 16.995 11.295 17.0625 11.0175 17.0625ZM6.75 13.95C7.05 13.95 7.3425 14.0175 7.59 14.1525L10.5375 15.795C10.8075 15.945 11.0625 15.9825 11.205 15.8925C11.3475 15.81 11.4375 15.57 11.4375 15.2625V6.74246C11.4375 5.76746 10.6425 4.97247 9.66751 4.97247H3.83249C2.85749 4.97247 2.0625 5.76746 2.0625 6.74246V15.2625C2.0625 15.57 2.1525 15.81 2.295 15.8925C2.4375 15.975 2.69251 15.9375 2.96251 15.7875L5.91 14.145C6.15 14.0175 6.45 13.95 6.75 13.95Z" fill="#0C5137"/>
<path d="M15.5175 14.1523C15.1875 14.1523 14.8425 14.0548 14.49 13.8673L11.7225 12.3223C11.5425 12.2248 11.4375 12.0373 11.4375 11.8348V6.74982C11.4375 5.77482 10.6425 4.97983 9.66751 4.97983H6C5.6925 4.97983 5.4375 4.72483 5.4375 4.41733V3.83981C5.4375 2.24231 6.73499 0.944824 8.33249 0.944824H14.1675C15.765 0.944824 17.0625 2.24231 17.0625 3.83981V12.3598C17.0625 13.0798 16.7775 13.6648 16.275 13.9573C16.05 14.0848 15.795 14.1523 15.5175 14.1523ZM12.5625 11.4973L15.0375 12.8848C15.3075 13.0348 15.555 13.0723 15.705 12.9823C15.855 12.8923 15.9375 12.6598 15.9375 12.3523V3.83231C15.9375 2.85731 15.1425 2.06232 14.1675 2.06232H8.33249C7.35749 2.06232 6.5625 2.85731 6.5625 3.83231V3.84732H9.66751C11.265 3.84732 12.5625 5.14481 12.5625 6.74231V11.4973Z" fill="#0C5137"/>
</svg>
