<svg width="16" height="16" viewBox="0 0 16 16" fill="none" xmlns="http://www.w3.org/2000/svg">
<mask id="path-1-inside-1_2316_1424" fill="white">
<path d="M8.33332 14.5002C12.1 14.5002 15.1667 11.4335 15.1667 7.66683C15.1667 3.90016 12.1 0.833496 8.33332 0.833496C4.56666 0.833496 1.49999 3.90016 1.49999 7.66683C1.49999 11.4335 4.56666 14.5002 8.33332 14.5002ZM8.33332 1.8335C11.5533 1.8335 14.1667 4.4535 14.1667 7.66683C14.1667 10.8802 11.5533 13.5002 8.33332 13.5002C5.11332 13.5002 2.49999 10.8802 2.49999 7.66683C2.49999 4.4535 5.11332 1.8335 8.33332 1.8335Z"/>
</mask>
<path d="M8.33332 14.5002C12.1 14.5002 15.1667 11.4335 15.1667 7.66683C15.1667 3.90016 12.1 0.833496 8.33332 0.833496C4.56666 0.833496 1.49999 3.90016 1.49999 7.66683C1.49999 11.4335 4.56666 14.5002 8.33332 14.5002ZM8.33332 1.8335C11.5533 1.8335 14.1667 4.4535 14.1667 7.66683C14.1667 10.8802 11.5533 13.5002 8.33332 13.5002C5.11332 13.5002 2.49999 10.8802 2.49999 7.66683C2.49999 4.4535 5.11332 1.8335 8.33332 1.8335Z" fill="#292D32"/>
<path d="M8.33332 13.0002C11.2716 13.0002 13.6667 10.6051 13.6667 7.66683H16.6667C16.6667 12.2619 12.9284 16.0002 8.33332 16.0002V13.0002ZM13.6667 7.66683C13.6667 4.72859 11.2716 2.3335 8.33332 2.3335V-0.666504C12.9284 -0.666504 16.6667 3.07174 16.6667 7.66683H13.6667ZM8.33332 2.3335C5.39508 2.3335 2.99999 4.72859 2.99999 7.66683H-1.04904e-05C-1.04904e-05 3.07174 3.73823 -0.666504 8.33332 -0.666504V2.3335ZM2.99999 7.66683C2.99999 10.6051 5.39508 13.0002 8.33332 13.0002V16.0002C3.73823 16.0002 -1.04904e-05 12.2619 -1.04904e-05 7.66683H2.99999ZM8.33332 0.333496C12.3829 0.333496 15.6667 3.62618 15.6667 7.66683H12.6667C12.6667 5.28081 10.7238 3.3335 8.33332 3.3335V0.333496ZM15.6667 7.66683C15.6667 11.7075 12.3829 15.0002 8.33332 15.0002V12.0002C10.7238 12.0002 12.6667 10.0529 12.6667 7.66683H15.6667ZM8.33332 15.0002C4.28378 15.0002 0.99999 11.7075 0.99999 7.66683H3.99999C3.99999 10.0529 5.94287 12.0002 8.33332 12.0002V15.0002ZM0.99999 7.66683C0.99999 3.62618 4.28378 0.333496 8.33332 0.333496V3.3335C5.94287 3.3335 3.99999 5.28081 3.99999 7.66683H0.99999Z" fill="#0C5137" mask="url(#path-1-inside-1_2316_1424)"/>
<mask id="path-3-inside-2_2316_1424" fill="white">
<path d="M1.33334 15.1666C1.46001 15.1666 1.58668 15.12 1.68668 15.02L3.02001 13.6866C3.21334 13.4933 3.21334 13.1733 3.02001 12.98C2.82668 12.7866 2.50667 12.7866 2.31334 12.98L0.980008 14.3133C0.786674 14.5066 0.786674 14.8266 0.980008 15.02C1.08001 15.12 1.20667 15.1666 1.33334 15.1666Z"/>
</mask>
<path d="M1.33334 15.1666C1.46001 15.1666 1.58668 15.12 1.68668 15.02L3.02001 13.6866C3.21334 13.4933 3.21334 13.1733 3.02001 12.98C2.82668 12.7866 2.50667 12.7866 2.31334 12.98L0.980008 14.3133C0.786674 14.5066 0.786674 14.8266 0.980008 15.02C1.08001 15.12 1.20667 15.1666 1.33334 15.1666Z" fill="#292D32"/>
<path d="M1.68668 15.02L2.74734 16.0806L1.68668 15.02ZM3.02001 13.6866L1.95935 12.626L3.02001 13.6866ZM2.31334 12.98L3.374 14.0406L2.31334 12.98ZM0.980008 14.3133L-0.0806525 13.2526L0.980008 14.3133ZM1.33334 13.6666C1.08365 13.6666 0.822147 13.7632 0.626015 13.9593L2.74734 16.0806C2.3512 16.4768 1.83636 16.6666 1.33334 16.6666V13.6666ZM0.626015 13.9593L1.95935 12.626L4.08067 14.7473L2.74734 16.0806L0.626015 13.9593ZM1.95935 12.626C1.5669 13.0184 1.5669 13.6482 1.95935 14.0406L4.08067 11.9193C4.85979 12.6984 4.85979 13.9682 4.08067 14.7473L1.95935 12.626ZM1.95935 14.0406C2.3518 14.4331 2.98155 14.4331 3.374 14.0406L1.25268 11.9193C2.0318 11.1402 3.30155 11.1402 4.08067 11.9193L1.95935 14.0406ZM3.374 14.0406L2.04067 15.374L-0.0806525 13.2526L1.25268 11.9193L3.374 14.0406ZM2.04067 15.374C2.43312 14.9815 2.43312 14.3518 2.04067 13.9593L-0.0806525 16.0806C-0.859772 15.3015 -0.859772 14.0318 -0.0806525 13.2526L2.04067 15.374ZM2.04067 13.9593C1.84454 13.7632 1.58303 13.6666 1.33334 13.6666V16.6666C0.830322 16.6666 0.31548 16.4768 -0.0806525 16.0806L2.04067 13.9593Z" fill="#0C5137" mask="url(#path-3-inside-2_2316_1424)"/>
</svg>
