<svg width="18" height="18" viewBox="0 0 18 18" fill="none" xmlns="http://www.w3.org/2000/svg">
<mask id="path-1-inside-1_1217_5591" fill="white">
<path d="M9.00011 17.0626C9.18011 17.0626 9.36011 17.0401 9.53261 16.9876C13.4251 15.9151 16.2451 12.2776 16.2451 8.33259V5.04008C16.2451 4.20008 15.6376 3.29262 14.8576 2.97012L10.6801 1.2601C9.59261 0.817598 8.40012 0.817598 7.32012 1.2601L3.14262 2.97012C2.36262 3.29262 1.75511 4.20008 1.75511 5.04008V8.33259C1.75511 12.2701 4.58262 15.9076 8.46762 16.9876C8.64012 17.0401 8.82011 17.0626 9.00011 17.0626ZM9.00011 2.0626C9.42761 2.0626 9.84762 2.14512 10.2526 2.31012L14.4301 4.02009C14.7901 4.17009 15.1201 4.65759 15.1201 5.04759V8.3401C15.1201 11.7826 12.6451 14.9626 9.23261 15.9076C9.08261 15.9526 8.91762 15.9526 8.76762 15.9076C5.35512 14.9626 2.88011 11.7826 2.88011 8.3401V5.04759C2.88011 4.65759 3.21012 4.17009 3.57012 4.02009L7.7476 2.31012C8.1526 2.14512 8.57261 2.0626 9.00011 2.0626Z"/>
</mask>
<path d="M9.00011 17.0626C9.18011 17.0626 9.36011 17.0401 9.53261 16.9876C13.4251 15.9151 16.2451 12.2776 16.2451 8.33259V5.04008C16.2451 4.20008 15.6376 3.29262 14.8576 2.97012L10.6801 1.2601C9.59261 0.817598 8.40012 0.817598 7.32012 1.2601L3.14262 2.97012C2.36262 3.29262 1.75511 4.20008 1.75511 5.04008V8.33259C1.75511 12.2701 4.58262 15.9076 8.46762 16.9876C8.64012 17.0401 8.82011 17.0626 9.00011 17.0626ZM9.00011 2.0626C9.42761 2.0626 9.84762 2.14512 10.2526 2.31012L14.4301 4.02009C14.7901 4.17009 15.1201 4.65759 15.1201 5.04759V8.3401C15.1201 11.7826 12.6451 14.9626 9.23261 15.9076C9.08261 15.9526 8.91762 15.9526 8.76762 15.9076C5.35512 14.9626 2.88011 11.7826 2.88011 8.3401V5.04759C2.88011 4.65759 3.21012 4.17009 3.57012 4.02009L7.7476 2.31012C8.1526 2.14512 8.57261 2.0626 9.00011 2.0626Z" fill="#292D32"/>
<path d="M9.53261 16.9876L9.09587 15.5526L9.11494 15.5468L9.13416 15.5415L9.53261 16.9876ZM14.8576 2.97012L15.4259 1.58191L15.4307 1.58393L14.8576 2.97012ZM10.6801 1.2601L11.2454 -0.129292L11.2484 -0.128101L10.6801 1.2601ZM7.32012 1.2601L7.88882 2.64811L7.88837 2.6483L7.32012 1.2601ZM3.14262 2.97012L2.56948 1.58392L2.57437 1.58192L3.14262 2.97012ZM8.46762 16.9876L8.86937 15.5424L8.88693 15.5473L8.90436 15.5526L8.46762 16.9876ZM10.2526 2.31012L10.8186 0.920976L10.8209 0.921913L10.2526 2.31012ZM14.4301 4.02009L14.9984 2.63186L15.007 2.63548L14.4301 4.02009ZM9.23261 15.9076L8.80159 14.4709L8.8169 14.4663L8.83229 14.462L9.23261 15.9076ZM8.76762 15.9076L9.16793 14.462L9.18333 14.4663L9.19864 14.4709L8.76762 15.9076ZM3.57012 4.02009L2.99319 2.63545L3.00189 2.63189L3.57012 4.02009ZM7.7476 2.31012L7.17937 0.921911L7.18166 0.920977L7.7476 2.31012ZM9.00011 15.5626C9.05687 15.5626 9.08681 15.5554 9.09587 15.5526L9.96935 18.4226C9.6334 18.5249 9.30336 18.5626 9.00011 18.5626V15.5626ZM9.13416 15.5415C12.397 14.6425 14.7451 11.581 14.7451 8.33259H17.7451C17.7451 12.9742 14.4532 17.1877 9.93106 18.4337L9.13416 15.5415ZM14.7451 8.33259V5.04008H17.7451V8.33259H14.7451ZM14.7451 5.04008C14.7451 4.80945 14.5056 4.44775 14.2845 4.35631L15.4307 1.58393C16.7696 2.13749 17.7451 3.59071 17.7451 5.04008H14.7451ZM14.2894 4.35832L10.1119 2.6483L11.2484 -0.128101L15.4259 1.58192L14.2894 4.35832ZM10.1148 2.64948C9.38847 2.35396 8.60314 2.35544 7.88882 2.64811L6.75142 -0.127916C8.19711 -0.720245 9.79674 -0.71876 11.2454 -0.129289L10.1148 2.64948ZM7.88837 2.6483L3.71086 4.35832L2.57437 1.58192L6.75188 -0.128101L7.88837 2.6483ZM3.71575 4.35631C3.49458 4.44775 3.25511 4.80945 3.25511 5.04008H0.255112C0.255112 3.59071 1.23065 2.13749 2.56948 1.58393L3.71575 4.35631ZM3.25511 5.04008V8.33259H0.255112V5.04008H3.25511ZM3.25511 8.33259C3.25511 11.571 5.60871 14.636 8.86937 15.5424L8.06587 18.4328C3.55653 17.1793 0.255112 12.9691 0.255112 8.33259H3.25511ZM8.90436 15.5526C8.91342 15.5554 8.94336 15.5626 9.00011 15.5626V18.5626C8.69687 18.5626 8.36683 18.5249 8.03088 18.4226L8.90436 15.5526ZM9.00011 0.562603C9.62446 0.562603 10.2365 0.683832 10.8186 0.920977L9.68668 3.69925C9.45876 3.6064 9.23076 3.5626 9.00011 3.5626V0.562603ZM10.8209 0.921913L14.9983 2.63189L13.8619 5.4083L9.68439 3.69832L10.8209 0.921913ZM15.007 2.63548C15.5348 2.85539 15.9162 3.2524 16.1544 3.6061C16.3919 3.95896 16.6201 4.4667 16.6201 5.04759H13.6201C13.6201 5.15572 13.6416 5.22357 13.6495 5.24588C13.6585 5.27121 13.6654 5.28093 13.6658 5.28158C13.6663 5.2823 13.672 5.29121 13.6903 5.30753C13.7061 5.3217 13.7576 5.36489 13.8532 5.40471L15.007 2.63548ZM16.6201 5.04759V8.3401H13.6201V5.04759H16.6201ZM16.6201 8.3401C16.6201 12.4841 13.6686 16.2356 9.63293 17.3532L8.83229 14.462C11.6216 13.6896 13.6201 11.0811 13.6201 8.3401H16.6201ZM9.66363 17.3444C9.23248 17.4737 8.76775 17.4737 8.33659 17.3444L9.19864 14.4709C9.06748 14.4315 8.93275 14.4315 8.80159 14.4709L9.66363 17.3444ZM8.3673 17.3532C4.33162 16.2356 1.38011 12.4841 1.38011 8.3401H4.38011C4.38011 11.0811 6.37861 13.6896 9.16793 14.462L8.3673 17.3532ZM1.38011 8.3401V5.04759H4.38011V8.3401H1.38011ZM1.38011 5.04759C1.38011 4.4667 1.60828 3.95896 1.84585 3.6061C2.08399 3.2524 2.46541 2.85539 2.9932 2.63548L4.14705 5.40471C4.24261 5.36489 4.2941 5.3217 4.30996 5.30753C4.32822 5.29121 4.3339 5.2823 4.33438 5.28158C4.33482 5.28093 4.34171 5.27121 4.35071 5.24588C4.35863 5.22357 4.38011 5.15572 4.38011 5.04759H1.38011ZM3.00189 2.63189L7.17937 0.921913L8.31584 3.69832L4.13836 5.4083L3.00189 2.63189ZM7.18166 0.920977C7.76374 0.683832 8.37576 0.562603 9.00011 0.562603V3.5626C8.76946 3.5626 8.54146 3.6064 8.31355 3.69925L7.18166 0.920977Z" fill="#0C5137" mask="url(#path-1-inside-1_1217_5591)"/>
<mask id="path-3-inside-2_1217_5591" fill="white">
<path d="M9 9.9375C10.14 9.9375 11.0625 9.015 11.0625 7.875C11.0625 6.735 10.14 5.8125 9 5.8125C7.86 5.8125 6.9375 6.735 6.9375 7.875C6.9375 9.015 7.86 9.9375 9 9.9375ZM9 6.9375C9.5175 6.9375 9.9375 7.3575 9.9375 7.875C9.9375 8.3925 9.5175 8.8125 9 8.8125C8.4825 8.8125 8.0625 8.3925 8.0625 7.875C8.0625 7.3575 8.4825 6.9375 9 6.9375Z"/>
</mask>
<path d="M9 9.9375C10.14 9.9375 11.0625 9.015 11.0625 7.875C11.0625 6.735 10.14 5.8125 9 5.8125C7.86 5.8125 6.9375 6.735 6.9375 7.875C6.9375 9.015 7.86 9.9375 9 9.9375ZM9 6.9375C9.5175 6.9375 9.9375 7.3575 9.9375 7.875C9.9375 8.3925 9.5175 8.8125 9 8.8125C8.4825 8.8125 8.0625 8.3925 8.0625 7.875C8.0625 7.3575 8.4825 6.9375 9 6.9375Z" fill="#292D32"/>
<path d="M9 8.4375C9.31157 8.4375 9.5625 8.18657 9.5625 7.875H12.5625C12.5625 9.84343 10.9684 11.4375 9 11.4375V8.4375ZM9.5625 7.875C9.5625 7.56343 9.31157 7.3125 9 7.3125V4.3125C10.9684 4.3125 12.5625 5.90657 12.5625 7.875H9.5625ZM9 7.3125C8.68843 7.3125 8.4375 7.56343 8.4375 7.875H5.4375C5.4375 5.90657 7.03157 4.3125 9 4.3125V7.3125ZM8.4375 7.875C8.4375 8.18657 8.68843 8.4375 9 8.4375V11.4375C7.03157 11.4375 5.4375 9.84343 5.4375 7.875H8.4375ZM9 5.4375C10.3459 5.4375 11.4375 6.52907 11.4375 7.875H8.4375C8.4375 8.18593 8.68907 8.4375 9 8.4375V5.4375ZM11.4375 7.875C11.4375 9.22093 10.3459 10.3125 9 10.3125V7.3125C8.68907 7.3125 8.4375 7.56407 8.4375 7.875H11.4375ZM9 10.3125C7.65407 10.3125 6.5625 9.22093 6.5625 7.875H9.5625C9.5625 7.56407 9.31093 7.3125 9 7.3125V10.3125ZM6.5625 7.875C6.5625 6.52907 7.65407 5.4375 9 5.4375V8.4375C9.31093 8.4375 9.5625 8.18593 9.5625 7.875H6.5625Z" fill="#0C5137" mask="url(#path-3-inside-2_1217_5591)"/>
<mask id="path-5-inside-3_1217_5591" fill="white">
<path d="M9 12.1875C9.3075 12.1875 9.5625 11.9325 9.5625 11.625V9.375C9.5625 9.0675 9.3075 8.8125 9 8.8125C8.6925 8.8125 8.4375 9.0675 8.4375 9.375V11.625C8.4375 11.9325 8.6925 12.1875 9 12.1875Z"/>
</mask>
<path d="M9 12.1875C9.3075 12.1875 9.5625 11.9325 9.5625 11.625V9.375C9.5625 9.0675 9.3075 8.8125 9 8.8125C8.6925 8.8125 8.4375 9.0675 8.4375 9.375V11.625C8.4375 11.9325 8.6925 12.1875 9 12.1875Z" fill="#292D32"/>
<path d="M9 10.6875C8.47907 10.6875 8.0625 11.1041 8.0625 11.625H11.0625C11.0625 12.7609 10.1359 13.6875 9 13.6875V10.6875ZM8.0625 11.625V9.375H11.0625V11.625H8.0625ZM8.0625 9.375C8.0625 9.89593 8.47907 10.3125 9 10.3125V7.3125C10.1359 7.3125 11.0625 8.23907 11.0625 9.375H8.0625ZM9 10.3125C9.52093 10.3125 9.9375 9.89593 9.9375 9.375H6.9375C6.9375 8.23907 7.86407 7.3125 9 7.3125V10.3125ZM9.9375 9.375V11.625H6.9375V9.375H9.9375ZM9.9375 11.625C9.9375 11.1041 9.52093 10.6875 9 10.6875V13.6875C7.86407 13.6875 6.9375 12.7609 6.9375 11.625H9.9375Z" fill="#0C5137" mask="url(#path-5-inside-3_1217_5591)"/>
</svg>
