<svg width="18" height="18" viewBox="0 0 18 18" fill="none" xmlns="http://www.w3.org/2000/svg">
<mask id="path-1-inside-1_1217_5601" fill="white">
<path d="M2.53478 9.80227C2.81978 9.80227 3.05978 9.58477 3.09728 9.29977C3.27728 7.60477 4.19228 6.06727 5.60228 5.09227C5.85728 4.91227 5.91728 4.56727 5.74478 4.31227C5.56478 4.05727 5.21228 3.99727 4.96478 4.16977C3.28478 5.33227 2.20478 7.16227 1.98728 9.17977C1.95728 9.48727 2.17478 9.76477 2.48978 9.80227C2.49728 9.80227 2.51978 9.80227 2.53478 9.80227Z"/>
</mask>
<path d="M2.53478 9.80227C2.81978 9.80227 3.05978 9.58477 3.09728 9.29977C3.27728 7.60477 4.19228 6.06727 5.60228 5.09227C5.85728 4.91227 5.91728 4.56727 5.74478 4.31227C5.56478 4.05727 5.21228 3.99727 4.96478 4.16977C3.28478 5.33227 2.20478 7.16227 1.98728 9.17977C1.95728 9.48727 2.17478 9.76477 2.48978 9.80227C2.49728 9.80227 2.51978 9.80227 2.53478 9.80227Z" fill="#292D32"/>
<path d="M3.09728 9.29977L4.58889 9.45817L4.58691 9.47684L4.58446 9.49545L3.09728 9.29977ZM5.60228 5.09227L6.4673 6.31772L6.46138 6.32191L6.45541 6.32603L5.60228 5.09227ZM5.74478 4.31227L6.97023 3.44725L6.97884 3.45944L6.9872 3.47181L5.74478 4.31227ZM4.96478 4.16977L5.82247 5.40038L5.81831 5.40326L4.96478 4.16977ZM1.98728 9.17977L0.494368 9.03412L0.495106 9.02655L0.495921 9.01899L1.98728 9.17977ZM2.48978 9.80227V11.3023H2.40081L2.31246 11.2918L2.48978 9.80227ZM2.53478 8.30227C2.03718 8.30227 1.66686 8.67267 1.6101 9.10409L4.58446 9.49545C4.4527 10.4969 3.60238 11.3023 2.53478 11.3023V8.30227ZM1.60567 9.14137C1.83206 7.00953 2.98201 5.08047 4.74915 3.85851L6.45541 6.32603C5.40255 7.05407 4.7225 8.20001 4.58889 9.45817L1.60567 9.14137ZM4.73725 3.86682C4.31904 4.16203 4.22127 4.73722 4.50235 5.15274L6.9872 3.47181C7.61329 4.39732 7.39552 5.66251 6.4673 6.31772L4.73725 3.86682ZM4.51933 5.1773C4.80981 5.58882 5.38577 5.70474 5.82247 5.40037L4.10709 2.93917C5.03879 2.28981 6.31975 2.52573 6.97023 3.44725L4.51933 5.1773ZM5.81831 5.40326C4.4985 6.31652 3.64968 7.75403 3.47864 9.34055L0.495921 9.01899C0.759884 6.57051 2.07106 4.34803 4.11125 2.93628L5.81831 5.40326ZM3.48019 9.32542C3.52867 8.82853 3.17012 8.37267 2.6671 8.31279L2.31246 11.2918C1.17944 11.1569 0.385891 10.146 0.494368 9.03412L3.48019 9.32542ZM2.48978 8.30227C2.49978 8.30227 2.51728 8.30227 2.53478 8.30227V11.3023C2.51728 11.3023 2.49978 11.3023 2.48978 11.3023V8.30227Z" fill="#0C5137" mask="url(#path-1-inside-1_1217_5601)"/>
<mask id="path-3-inside-2_1217_5601" fill="white">
<path d="M15.3821 9.83995C15.4046 9.83995 15.4196 9.83995 15.4421 9.83995C15.7496 9.80245 15.9746 9.52495 15.9446 9.21745C15.7421 7.19995 14.6696 5.37745 13.0121 4.19995C12.7571 4.01995 12.4046 4.07995 12.2246 4.33495C12.0446 4.58995 12.1046 4.94245 12.3596 5.12245C13.7546 6.10495 14.6546 7.64245 14.8271 9.33745C14.8496 9.62245 15.0971 9.83995 15.3821 9.83995Z"/>
</mask>
<path d="M15.3821 9.83995C15.4046 9.83995 15.4196 9.83995 15.4421 9.83995C15.7496 9.80245 15.9746 9.52495 15.9446 9.21745C15.7421 7.19995 14.6696 5.37745 13.0121 4.19995C12.7571 4.01995 12.4046 4.07995 12.2246 4.33495C12.0446 4.58995 12.1046 4.94245 12.3596 5.12245C13.7546 6.10495 14.6546 7.64245 14.8271 9.33745C14.8496 9.62245 15.0971 9.83995 15.3821 9.83995Z" fill="#292D32"/>
<path d="M15.4421 9.83995L15.6237 11.3289L15.5332 11.3399H15.4421V9.83995ZM15.9446 9.21745L17.4371 9.06764L17.4375 9.0718L15.9446 9.21745ZM13.0121 4.19995L13.8771 2.97449L13.8808 2.97711L13.0121 4.19995ZM12.3596 5.12245L11.4959 6.34881L11.4946 6.3479L12.3596 5.12245ZM14.8271 9.33745L16.3194 9.18558L16.3211 9.20247L16.3224 9.2194L14.8271 9.33745ZM15.3821 8.33995C15.3821 8.33995 15.3822 8.33995 15.3822 8.33995C15.3823 8.33995 15.3823 8.33995 15.3823 8.33995C15.3824 8.33995 15.3824 8.33995 15.3825 8.33995C15.3825 8.33995 15.3826 8.33995 15.3826 8.33995C15.3827 8.33995 15.3827 8.33995 15.3827 8.33995C15.3828 8.33995 15.3828 8.33995 15.3829 8.33995C15.3829 8.33995 15.383 8.33995 15.383 8.33995C15.383 8.33995 15.3831 8.33995 15.3831 8.33995C15.3832 8.33995 15.3832 8.33995 15.3833 8.33995C15.3833 8.33995 15.3833 8.33995 15.3834 8.33995C15.3834 8.33995 15.3835 8.33995 15.3835 8.33995C15.3836 8.33995 15.3836 8.33995 15.3837 8.33995C15.3837 8.33995 15.3837 8.33995 15.3838 8.33995C15.3838 8.33995 15.3839 8.33995 15.3839 8.33995C15.384 8.33995 15.384 8.33995 15.384 8.33995C15.3841 8.33995 15.3841 8.33995 15.3842 8.33995C15.3842 8.33995 15.3843 8.33995 15.3843 8.33995C15.3843 8.33995 15.3844 8.33995 15.3844 8.33995C15.3845 8.33995 15.3845 8.33995 15.3846 8.33995C15.3846 8.33995 15.3846 8.33995 15.3847 8.33995C15.3847 8.33995 15.3848 8.33995 15.3848 8.33995C15.3849 8.33995 15.3849 8.33995 15.3849 8.33995C15.385 8.33995 15.385 8.33995 15.3851 8.33995C15.3851 8.33995 15.3852 8.33995 15.3852 8.33995C15.3852 8.33995 15.3853 8.33995 15.3853 8.33995C15.3854 8.33995 15.3854 8.33995 15.3855 8.33995C15.3855 8.33995 15.3855 8.33995 15.3856 8.33995C15.3856 8.33995 15.3857 8.33995 15.3857 8.33995C15.3858 8.33995 15.3858 8.33995 15.3858 8.33995C15.3859 8.33995 15.3859 8.33995 15.386 8.33995C15.386 8.33995 15.386 8.33995 15.3861 8.33995C15.3861 8.33995 15.3862 8.33995 15.3862 8.33995C15.3863 8.33995 15.3863 8.33995 15.3863 8.33995C15.3864 8.33995 15.3864 8.33995 15.3865 8.33995C15.3865 8.33995 15.3866 8.33995 15.3866 8.33995C15.3866 8.33995 15.3867 8.33995 15.3867 8.33995C15.3868 8.33995 15.3868 8.33995 15.3868 8.33995C15.3869 8.33995 15.3869 8.33995 15.387 8.33995C15.387 8.33995 15.3871 8.33995 15.3871 8.33995C15.3871 8.33995 15.3872 8.33995 15.3872 8.33995C15.3873 8.33995 15.3873 8.33995 15.3874 8.33995C15.3874 8.33995 15.3874 8.33995 15.3875 8.33995C15.3875 8.33995 15.3876 8.33995 15.3876 8.33995C15.3876 8.33995 15.3877 8.33995 15.3877 8.33995C15.3878 8.33995 15.3878 8.33995 15.3879 8.33995C15.3879 8.33995 15.3879 8.33995 15.388 8.33995C15.388 8.33995 15.3881 8.33995 15.3881 8.33995C15.3881 8.33995 15.3882 8.33995 15.3882 8.33995C15.3883 8.33995 15.3883 8.33995 15.3883 8.33995C15.3884 8.33995 15.3884 8.33995 15.3885 8.33995C15.3885 8.33995 15.3886 8.33995 15.3886 8.33995C15.3886 8.33995 15.3887 8.33995 15.3887 8.33995C15.3888 8.33995 15.3888 8.33995 15.3888 8.33995C15.3889 8.33995 15.3889 8.33995 15.389 8.33995C15.389 8.33995 15.3891 8.33995 15.3891 8.33995C15.3891 8.33995 15.3892 8.33995 15.3892 8.33995C15.3893 8.33995 15.3893 8.33995 15.3893 8.33995C15.3894 8.33995 15.3894 8.33995 15.3895 8.33995C15.3895 8.33995 15.3895 8.33995 15.3896 8.33995C15.3896 8.33995 15.3897 8.33995 15.3897 8.33995C15.3897 8.33995 15.3898 8.33995 15.3898 8.33995C15.3899 8.33995 15.3899 8.33995 15.39 8.33995C15.39 8.33995 15.39 8.33995 15.3901 8.33995C15.3901 8.33995 15.3902 8.33995 15.3902 8.33995C15.3902 8.33995 15.3903 8.33995 15.3903 8.33995C15.3904 8.33995 15.3904 8.33995 15.3904 8.33995C15.3905 8.33995 15.3905 8.33995 15.3906 8.33995C15.3906 8.33995 15.3906 8.33995 15.3907 8.33995C15.3907 8.33995 15.3908 8.33995 15.3908 8.33995C15.3908 8.33995 15.3909 8.33995 15.3909 8.33995C15.391 8.33995 15.391 8.33995 15.3911 8.33995C15.3911 8.33995 15.3911 8.33995 15.3912 8.33995C15.3912 8.33995 15.3913 8.33995 15.3913 8.33995C15.3913 8.33995 15.3914 8.33995 15.3914 8.33995C15.3915 8.33995 15.3915 8.33995 15.3915 8.33995C15.3916 8.33995 15.3916 8.33995 15.3917 8.33995C15.3917 8.33995 15.3917 8.33995 15.3918 8.33995C15.3918 8.33995 15.3919 8.33995 15.3919 8.33995C15.3919 8.33995 15.392 8.33995 15.392 8.33995C15.3921 8.33995 15.3921 8.33995 15.3921 8.33995C15.3922 8.33995 15.3922 8.33995 15.3923 8.33995C15.3923 8.33995 15.3923 8.33995 15.3924 8.33995C15.3924 8.33995 15.3925 8.33995 15.3925 8.33995C15.3925 8.33995 15.3926 8.33995 15.3926 8.33995C15.3927 8.33995 15.3927 8.33995 15.3927 8.33995C15.3928 8.33995 15.3928 8.33995 15.3929 8.33995C15.3929 8.33995 15.3929 8.33995 15.393 8.33995C15.393 8.33995 15.3931 8.33995 15.3931 8.33995C15.3931 8.33995 15.3932 8.33995 15.3932 8.33995C15.3933 8.33995 15.3933 8.33995 15.3933 8.33995C15.3934 8.33995 15.3934 8.33995 15.3935 8.33995C15.3935 8.33995 15.3935 8.33995 15.3936 8.33995C15.3936 8.33995 15.3937 8.33995 15.3937 8.33995C15.3937 8.33995 15.3938 8.33995 15.3938 8.33995C15.3938 8.33995 15.3939 8.33995 15.3939 8.33995C15.394 8.33995 15.394 8.33995 15.394 8.33995C15.3941 8.33995 15.3941 8.33995 15.3942 8.33995C15.3942 8.33995 15.3942 8.33995 15.3943 8.33995C15.3943 8.33995 15.3944 8.33995 15.3944 8.33995C15.3944 8.33995 15.3945 8.33995 15.3945 8.33995C15.3946 8.33995 15.3946 8.33995 15.3946 8.33995C15.3947 8.33995 15.3947 8.33995 15.3948 8.33995C15.3948 8.33995 15.3948 8.33995 15.3949 8.33995C15.3949 8.33995 15.395 8.33995 15.395 8.33995C15.395 8.33995 15.3951 8.33995 15.3951 8.33995C15.3951 8.33995 15.3952 8.33995 15.3952 8.33995C15.3953 8.33995 15.3953 8.33995 15.3953 8.33995C15.3954 8.33995 15.3954 8.33995 15.3955 8.33995C15.3955 8.33995 15.3955 8.33995 15.3956 8.33995C15.3956 8.33995 15.3957 8.33995 15.3957 8.33995C15.3957 8.33995 15.3958 8.33995 15.3958 8.33995C15.3959 8.33995 15.3959 8.33995 15.3959 8.33995C15.396 8.33995 15.396 8.33995 15.396 8.33995C15.3961 8.33995 15.3961 8.33995 15.3962 8.33995C15.3962 8.33995 15.3962 8.33995 15.3963 8.33995C15.3963 8.33995 15.3964 8.33995 15.3964 8.33995C15.3964 8.33995 15.3965 8.33995 15.3965 8.33995C15.3965 8.33995 15.3966 8.33995 15.3966 8.33995C15.3967 8.33995 15.3967 8.33995 15.3967 8.33995C15.3968 8.33995 15.3968 8.33995 15.3969 8.33995C15.3969 8.33995 15.3969 8.33995 15.397 8.33995C15.397 8.33995 15.3971 8.33995 15.3971 8.33995C15.3971 8.33995 15.3972 8.33995 15.3972 8.33995C15.3972 8.33995 15.3973 8.33995 15.3973 8.33995C15.3974 8.33995 15.3974 8.33995 15.3974 8.33995C15.3975 8.33995 15.3975 8.33995 15.3976 8.33995C15.3976 8.33995 15.3976 8.33995 15.3977 8.33995C15.3977 8.33995 15.3977 8.33995 15.3978 8.33995C15.3978 8.33995 15.3979 8.33995 15.3979 8.33995C15.3979 8.33995 15.398 8.33995 15.398 8.33995C15.3981 8.33995 15.3981 8.33995 15.3981 8.33995C15.3982 8.33995 15.3982 8.33995 15.3982 8.33995C15.3983 8.33995 15.3983 8.33995 15.3984 8.33995C15.3984 8.33995 15.3984 8.33995 15.3985 8.33995C15.3985 8.33995 15.3986 8.33995 15.3986 8.33995C15.3986 8.33995 15.3987 8.33995 15.3987 8.33995C15.3987 8.33995 15.3988 8.33995 15.3988 8.33995C15.3989 8.33995 15.3989 8.33995 15.3989 8.33995C15.399 8.33995 15.399 8.33995 15.399 8.33995C15.3991 8.33995 15.3991 8.33995 15.3992 8.33995C15.3992 8.33995 15.3992 8.33995 15.3993 8.33995C15.3993 8.33995 15.3994 8.33995 15.3994 8.33995C15.3994 8.33995 15.3995 8.33995 15.3995 8.33995C15.3995 8.33995 15.3996 8.33995 15.3996 8.33995C15.3997 8.33995 15.3997 8.33995 15.3997 8.33995C15.3998 8.33995 15.3998 8.33995 15.3998 8.33995C15.3999 8.33995 15.3999 8.33995 15.4 8.33995C15.4 8.33995 15.4 8.33995 15.4001 8.33995C15.4001 8.33995 15.4002 8.33995 15.4002 8.33995C15.4002 8.33995 15.4003 8.33995 15.4003 8.33995C15.4003 8.33995 15.4004 8.33995 15.4004 8.33995C15.4005 8.33995 15.4005 8.33995 15.4005 8.33995C15.4006 8.33995 15.4006 8.33995 15.4006 8.33995C15.4007 8.33995 15.4007 8.33995 15.4008 8.33995C15.4008 8.33995 15.4008 8.33995 15.4009 8.33995C15.4009 8.33995 15.4009 8.33995 15.401 8.33995C15.401 8.33995 15.4011 8.33995 15.4011 8.33995C15.4011 8.33995 15.4012 8.33995 15.4012 8.33995C15.4012 8.33995 15.4013 8.33995 15.4013 8.33995C15.4014 8.33995 15.4014 8.33995 15.4014 8.33995C15.4015 8.33995 15.4015 8.33995 15.4015 8.33995C15.4016 8.33995 15.4016 8.33995 15.4017 8.33995C15.4017 8.33995 15.4017 8.33995 15.4018 8.33995C15.4018 8.33995 15.4019 8.33995 15.4019 8.33995C15.4019 8.33995 15.402 8.33995 15.402 8.33995C15.402 8.33995 15.4021 8.33995 15.4021 8.33995C15.4022 8.33995 15.4022 8.33995 15.4022 8.33995C15.4023 8.33995 15.4023 8.33995 15.4023 8.33995C15.4024 8.33995 15.4024 8.33995 15.4025 8.33995C15.4025 8.33995 15.4025 8.33995 15.4026 8.33995C15.4026 8.33995 15.4026 8.33995 15.4027 8.33995C15.4027 8.33995 15.4028 8.33995 15.4028 8.33995C15.4028 8.33995 15.4029 8.33995 15.4029 8.33995C15.4029 8.33995 15.403 8.33995 15.403 8.33995C15.403 8.33995 15.4031 8.33995 15.4031 8.33995C15.4032 8.33995 15.4032 8.33995 15.4032 8.33995C15.4033 8.33995 15.4033 8.33995 15.4033 8.33995C15.4034 8.33995 15.4034 8.33995 15.4035 8.33995C15.4035 8.33995 15.4035 8.33995 15.4036 8.33995C15.4036 8.33995 15.4036 8.33995 15.4037 8.33995C15.4037 8.33995 15.4038 8.33995 15.4038 8.33995C15.4038 8.33995 15.4039 8.33995 15.4039 8.33995C15.4039 8.33995 15.404 8.33995 15.404 8.33995C15.4041 8.33995 15.4041 8.33995 15.4041 8.33995C15.4042 8.33995 15.4042 8.33995 15.4042 8.33995C15.4043 8.33995 15.4043 8.33995 15.4044 8.33995C15.4044 8.33995 15.4044 8.33995 15.4045 8.33995C15.4045 8.33995 15.4045 8.33995 15.4046 8.33995C15.4046 8.33995 15.4047 8.33995 15.4047 8.33995C15.4047 8.33995 15.4048 8.33995 15.4048 8.33995C15.4048 8.33995 15.4049 8.33995 15.4049 8.33995C15.4049 8.33995 15.405 8.33995 15.405 8.33995C15.4051 8.33995 15.4051 8.33995 15.4051 8.33995C15.4052 8.33995 15.4052 8.33995 15.4052 8.33995C15.4053 8.33995 15.4053 8.33995 15.4054 8.33995C15.4054 8.33995 15.4054 8.33995 15.4055 8.33995C15.4055 8.33995 15.4055 8.33995 15.4056 8.33995C15.4056 8.33995 15.4057 8.33995 15.4057 8.33995C15.4057 8.33995 15.4058 8.33995 15.4058 8.33995C15.4058 8.33995 15.4059 8.33995 15.4059 8.33995C15.4059 8.33995 15.406 8.33995 15.406 8.33995C15.4061 8.33995 15.4061 8.33995 15.4061 8.33995C15.4062 8.33995 15.4062 8.33995 15.4062 8.33995C15.4063 8.33995 15.4063 8.33995 15.4064 8.33995C15.4064 8.33995 15.4064 8.33995 15.4065 8.33995C15.4065 8.33995 15.4065 8.33995 15.4066 8.33995C15.4066 8.33995 15.4066 8.33995 15.4067 8.33995C15.4067 8.33995 15.4068 8.33995 15.4068 8.33995C15.4068 8.33995 15.4069 8.33995 15.4069 8.33995C15.4069 8.33995 15.407 8.33995 15.407 8.33995C15.4071 8.33995 15.4071 8.33995 15.4071 8.33995C15.4072 8.33995 15.4072 8.33995 15.4072 8.33995C15.4073 8.33995 15.4073 8.33995 15.4073 8.33995C15.4074 8.33995 15.4074 8.33995 15.4075 8.33995C15.4075 8.33995 15.4075 8.33995 15.4076 8.33995C15.4076 8.33995 15.4076 8.33995 15.4077 8.33995C15.4077 8.33995 15.4078 8.33995 15.4078 8.33995C15.4078 8.33995 15.4079 8.33995 15.4079 8.33995C15.4079 8.33995 15.408 8.33995 15.408 8.33995C15.408 8.33995 15.4081 8.33995 15.4081 8.33995C15.4082 8.33995 15.4082 8.33995 15.4082 8.33995C15.4083 8.33995 15.4083 8.33995 15.4083 8.33995C15.4084 8.33995 15.4084 8.33995 15.4085 8.33995C15.4085 8.33995 15.4085 8.33995 15.4086 8.33995C15.4086 8.33995 15.4086 8.33995 15.4087 8.33995C15.4087 8.33995 15.4087 8.33995 15.4088 8.33995C15.4088 8.33995 15.4089 8.33995 15.4089 8.33995C15.4089 8.33995 15.409 8.33995 15.409 8.33995C15.409 8.33995 15.4091 8.33995 15.4091 8.33995C15.4092 8.33995 15.4092 8.33995 15.4092 8.33995C15.4093 8.33995 15.4093 8.33995 15.4093 8.33995C15.4094 8.33995 15.4094 8.33995 15.4094 8.33995C15.4095 8.33995 15.4095 8.33995 15.4096 8.33995C15.4096 8.33995 15.4096 8.33995 15.4097 8.33995C15.4097 8.33995 15.4097 8.33995 15.4098 8.33995C15.4098 8.33995 15.4098 8.33995 15.4099 8.33995C15.4099 8.33995 15.41 8.33995 15.41 8.33995C15.41 8.33995 15.4101 8.33995 15.4101 8.33995C15.4101 8.33995 15.4102 8.33995 15.4102 8.33995C15.4103 8.33995 15.4103 8.33995 15.4103 8.33995C15.4104 8.33995 15.4104 8.33995 15.4104 8.33995C15.4105 8.33995 15.4105 8.33995 15.4105 8.33995C15.4106 8.33995 15.4106 8.33995 15.4107 8.33995C15.4107 8.33995 15.4107 8.33995 15.4108 8.33995C15.4108 8.33995 15.4108 8.33995 15.4109 8.33995C15.4109 8.33995 15.4109 8.33995 15.411 8.33995C15.411 8.33995 15.4111 8.33995 15.4111 8.33995C15.4111 8.33995 15.4112 8.33995 15.4112 8.33995C15.4112 8.33995 15.4113 8.33995 15.4113 8.33995C15.4113 8.33995 15.4114 8.33995 15.4114 8.33995C15.4115 8.33995 15.4115 8.33995 15.4115 8.33995C15.4116 8.33995 15.4116 8.33995 15.4116 8.33995C15.4117 8.33995 15.4117 8.33995 15.4118 8.33995C15.4118 8.33995 15.4118 8.33995 15.4119 8.33995C15.4119 8.33995 15.4119 8.33995 15.412 8.33995C15.412 8.33995 15.412 8.33995 15.4121 8.33995C15.4121 8.33995 15.4122 8.33995 15.4122 8.33995C15.4122 8.33995 15.4123 8.33995 15.4123 8.33995C15.4123 8.33995 15.4124 8.33995 15.4124 8.33995C15.4124 8.33995 15.4125 8.33995 15.4125 8.33995C15.4126 8.33995 15.4126 8.33995 15.4126 8.33995C15.4127 8.33995 15.4127 8.33995 15.4127 8.33995C15.4128 8.33995 15.4128 8.33995 15.4129 8.33995C15.4129 8.33995 15.4129 8.33995 15.413 8.33995C15.413 8.33995 15.413 8.33995 15.4131 8.33995C15.4131 8.33995 15.4131 8.33995 15.4132 8.33995C15.4132 8.33995 15.4133 8.33995 15.4133 8.33995C15.4133 8.33995 15.4134 8.33995 15.4134 8.33995C15.4134 8.33995 15.4135 8.33995 15.4135 8.33995C15.4135 8.33995 15.4136 8.33995 15.4136 8.33995C15.4137 8.33995 15.4137 8.33995 15.4137 8.33995C15.4138 8.33995 15.4138 8.33995 15.4138 8.33995C15.4139 8.33995 15.4139 8.33995 15.414 8.33995C15.414 8.33995 15.414 8.33995 15.4141 8.33995C15.4141 8.33995 15.4141 8.33995 15.4142 8.33995C15.4142 8.33995 15.4142 8.33995 15.4143 8.33995C15.4143 8.33995 15.4144 8.33995 15.4144 8.33995C15.4144 8.33995 15.4145 8.33995 15.4145 8.33995C15.4145 8.33995 15.4146 8.33995 15.4146 8.33995C15.4146 8.33995 15.4147 8.33995 15.4147 8.33995C15.4148 8.33995 15.4148 8.33995 15.4148 8.33995C15.4149 8.33995 15.4149 8.33995 15.4149 8.33995C15.415 8.33995 15.415 8.33995 15.4151 8.33995C15.4151 8.33995 15.4151 8.33995 15.4152 8.33995C15.4152 8.33995 15.4152 8.33995 15.4153 8.33995C15.4153 8.33995 15.4153 8.33995 15.4154 8.33995C15.4154 8.33995 15.4155 8.33995 15.4155 8.33995C15.4155 8.33995 15.4156 8.33995 15.4156 8.33995C15.4156 8.33995 15.4157 8.33995 15.4157 8.33995C15.4157 8.33995 15.4158 8.33995 15.4158 8.33995C15.4159 8.33995 15.4159 8.33995 15.4159 8.33995C15.416 8.33995 15.416 8.33995 15.416 8.33995C15.4161 8.33995 15.4161 8.33995 15.4162 8.33995C15.4162 8.33995 15.4162 8.33995 15.4163 8.33995C15.4163 8.33995 15.4163 8.33995 15.4164 8.33995C15.4164 8.33995 15.4164 8.33995 15.4165 8.33995C15.4165 8.33995 15.4166 8.33995 15.4166 8.33995C15.4166 8.33995 15.4167 8.33995 15.4167 8.33995C15.4167 8.33995 15.4168 8.33995 15.4168 8.33995C15.4169 8.33995 15.4169 8.33995 15.4169 8.33995C15.417 8.33995 15.417 8.33995 15.417 8.33995C15.4171 8.33995 15.4171 8.33995 15.4171 8.33995C15.4172 8.33995 15.4172 8.33995 15.4173 8.33995C15.4173 8.33995 15.4173 8.33995 15.4174 8.33995C15.4174 8.33995 15.4174 8.33995 15.4175 8.33995C15.4175 8.33995 15.4176 8.33995 15.4176 8.33995C15.4176 8.33995 15.4177 8.33995 15.4177 8.33995C15.4177 8.33995 15.4178 8.33995 15.4178 8.33995C15.4178 8.33995 15.4179 8.33995 15.4179 8.33995C15.418 8.33995 15.418 8.33995 15.418 8.33995C15.4181 8.33995 15.4181 8.33995 15.4181 8.33995C15.4182 8.33995 15.4182 8.33995 15.4183 8.33995C15.4183 8.33995 15.4183 8.33995 15.4184 8.33995C15.4184 8.33995 15.4184 8.33995 15.4185 8.33995C15.4185 8.33995 15.4186 8.33995 15.4186 8.33995C15.4186 8.33995 15.4187 8.33995 15.4187 8.33995C15.4187 8.33995 15.4188 8.33995 15.4188 8.33995C15.4188 8.33995 15.4189 8.33995 15.4189 8.33995C15.419 8.33995 15.419 8.33995 15.419 8.33995C15.4191 8.33995 15.4191 8.33995 15.4191 8.33995C15.4192 8.33995 15.4192 8.33995 15.4193 8.33995C15.4193 8.33995 15.4193 8.33995 15.4194 8.33995C15.4194 8.33995 15.4194 8.33995 15.4195 8.33995C15.4195 8.33995 15.4196 8.33995 15.4196 8.33995C15.4196 8.33995 15.4197 8.33995 15.4197 8.33995C15.4197 8.33995 15.4198 8.33995 15.4198 8.33995C15.4198 8.33995 15.4199 8.33995 15.4199 8.33995C15.42 8.33995 15.42 8.33995 15.42 8.33995C15.4201 8.33995 15.4201 8.33995 15.4201 8.33995C15.4202 8.33995 15.4202 8.33995 15.4203 8.33995C15.4203 8.33995 15.4203 8.33995 15.4204 8.33995C15.4204 8.33995 15.4204 8.33995 15.4205 8.33995C15.4205 8.33995 15.4206 8.33995 15.4206 8.33995C15.4206 8.33995 15.4207 8.33995 15.4207 8.33995C15.4207 8.33995 15.4208 8.33995 15.4208 8.33995C15.4209 8.33995 15.4209 8.33995 15.4209 8.33995C15.421 8.33995 15.421 8.33995 15.421 8.33995C15.4211 8.33995 15.4211 8.33995 15.4212 8.33995C15.4212 8.33995 15.4212 8.33995 15.4213 8.33995C15.4213 8.33995 15.4213 8.33995 15.4214 8.33995C15.4214 8.33995 15.4215 8.33995 15.4215 8.33995C15.4215 8.33995 15.4216 8.33995 15.4216 8.33995C15.4216 8.33995 15.4217 8.33995 15.4217 8.33995C15.4218 8.33995 15.4218 8.33995 15.4218 8.33995C15.4219 8.33995 15.4219 8.33995 15.4219 8.33995C15.422 8.33995 15.422 8.33995 15.4221 8.33995C15.4221 8.33995 15.4221 8.33995 15.4222 8.33995C15.4222 8.33995 15.4222 8.33995 15.4223 8.33995C15.4223 8.33995 15.4224 8.33995 15.4224 8.33995C15.4224 8.33995 15.4225 8.33995 15.4225 8.33995C15.4225 8.33995 15.4226 8.33995 15.4226 8.33995C15.4227 8.33995 15.4227 8.33995 15.4227 8.33995C15.4228 8.33995 15.4228 8.33995 15.4228 8.33995C15.4229 8.33995 15.4229 8.33995 15.423 8.33995C15.423 8.33995 15.423 8.33995 15.4231 8.33995C15.4231 8.33995 15.4231 8.33995 15.4232 8.33995C15.4232 8.33995 15.4233 8.33995 15.4233 8.33995C15.4233 8.33995 15.4234 8.33995 15.4234 8.33995C15.4234 8.33995 15.4235 8.33995 15.4235 8.33995C15.4236 8.33995 15.4236 8.33995 15.4236 8.33995C15.4237 8.33995 15.4237 8.33995 15.4237 8.33995C15.4238 8.33995 15.4238 8.33995 15.4239 8.33995C15.4239 8.33995 15.4239 8.33995 15.424 8.33995C15.424 8.33995 15.4241 8.33995 15.4241 8.33995C15.4241 8.33995 15.4242 8.33995 15.4242 8.33995C15.4242 8.33995 15.4243 8.33995 15.4243 8.33995C15.4244 8.33995 15.4244 8.33995 15.4244 8.33995C15.4245 8.33995 15.4245 8.33995 15.4245 8.33995C15.4246 8.33995 15.4246 8.33995 15.4247 8.33995C15.4247 8.33995 15.4247 8.33995 15.4248 8.33995C15.4248 8.33995 15.4248 8.33995 15.4249 8.33995C15.4249 8.33995 15.425 8.33995 15.425 8.33995C15.425 8.33995 15.4251 8.33995 15.4251 8.33995C15.4252 8.33995 15.4252 8.33995 15.4252 8.33995C15.4253 8.33995 15.4253 8.33995 15.4253 8.33995C15.4254 8.33995 15.4254 8.33995 15.4255 8.33995C15.4255 8.33995 15.4255 8.33995 15.4256 8.33995C15.4256 8.33995 15.4257 8.33995 15.4257 8.33995C15.4257 8.33995 15.4258 8.33995 15.4258 8.33995C15.4258 8.33995 15.4259 8.33995 15.4259 8.33995C15.426 8.33995 15.426 8.33995 15.426 8.33995C15.4261 8.33995 15.4261 8.33995 15.4261 8.33995C15.4262 8.33995 15.4262 8.33995 15.4263 8.33995C15.4263 8.33995 15.4263 8.33995 15.4264 8.33995C15.4264 8.33995 15.4265 8.33995 15.4265 8.33995C15.4265 8.33995 15.4266 8.33995 15.4266 8.33995C15.4266 8.33995 15.4267 8.33995 15.4267 8.33995C15.4268 8.33995 15.4268 8.33995 15.4268 8.33995C15.4269 8.33995 15.4269 8.33995 15.427 8.33995C15.427 8.33995 15.427 8.33995 15.4271 8.33995C15.4271 8.33995 15.4272 8.33995 15.4272 8.33995C15.4272 8.33995 15.4273 8.33995 15.4273 8.33995C15.4273 8.33995 15.4274 8.33995 15.4274 8.33995C15.4275 8.33995 15.4275 8.33995 15.4275 8.33995C15.4276 8.33995 15.4276 8.33995 15.4277 8.33995C15.4277 8.33995 15.4277 8.33995 15.4278 8.33995C15.4278 8.33995 15.4278 8.33995 15.4279 8.33995C15.4279 8.33995 15.428 8.33995 15.428 8.33995C15.428 8.33995 15.4281 8.33995 15.4281 8.33995C15.4282 8.33995 15.4282 8.33995 15.4282 8.33995C15.4283 8.33995 15.4283 8.33995 15.4284 8.33995C15.4284 8.33995 15.4284 8.33995 15.4285 8.33995C15.4285 8.33995 15.4285 8.33995 15.4286 8.33995C15.4286 8.33995 15.4287 8.33995 15.4287 8.33995C15.4287 8.33995 15.4288 8.33995 15.4288 8.33995C15.4289 8.33995 15.4289 8.33995 15.4289 8.33995C15.429 8.33995 15.429 8.33995 15.4291 8.33995C15.4291 8.33995 15.4291 8.33995 15.4292 8.33995C15.4292 8.33995 15.4293 8.33995 15.4293 8.33995C15.4293 8.33995 15.4294 8.33995 15.4294 8.33995C15.4294 8.33995 15.4295 8.33995 15.4295 8.33995C15.4296 8.33995 15.4296 8.33995 15.4296 8.33995C15.4297 8.33995 15.4297 8.33995 15.4298 8.33995C15.4298 8.33995 15.4298 8.33995 15.4299 8.33995C15.4299 8.33995 15.43 8.33995 15.43 8.33995C15.43 8.33995 15.4301 8.33995 15.4301 8.33995C15.4302 8.33995 15.4302 8.33995 15.4302 8.33995C15.4303 8.33995 15.4303 8.33995 15.4304 8.33995C15.4304 8.33995 15.4304 8.33995 15.4305 8.33995C15.4305 8.33995 15.4306 8.33995 15.4306 8.33995C15.4306 8.33995 15.4307 8.33995 15.4307 8.33995C15.4308 8.33995 15.4308 8.33995 15.4308 8.33995C15.4309 8.33995 15.4309 8.33995 15.4309 8.33995C15.431 8.33995 15.431 8.33995 15.4311 8.33995C15.4311 8.33995 15.4311 8.33995 15.4312 8.33995C15.4312 8.33995 15.4313 8.33995 15.4313 8.33995C15.4313 8.33995 15.4314 8.33995 15.4314 8.33995C15.4315 8.33995 15.4315 8.33995 15.4315 8.33995C15.4316 8.33995 15.4316 8.33995 15.4317 8.33995C15.4317 8.33995 15.4317 8.33995 15.4318 8.33995C15.4318 8.33995 15.4319 8.33995 15.4319 8.33995C15.4319 8.33995 15.432 8.33995 15.432 8.33995C15.4321 8.33995 15.4321 8.33995 15.4321 8.33995C15.4322 8.33995 15.4322 8.33995 15.4323 8.33995C15.4323 8.33995 15.4323 8.33995 15.4324 8.33995C15.4324 8.33995 15.4325 8.33995 15.4325 8.33995C15.4325 8.33995 15.4326 8.33995 15.4326 8.33995C15.4327 8.33995 15.4327 8.33995 15.4328 8.33995C15.4328 8.33995 15.4328 8.33995 15.4329 8.33995C15.4329 8.33995 15.433 8.33995 15.433 8.33995C15.433 8.33995 15.4331 8.33995 15.4331 8.33995C15.4332 8.33995 15.4332 8.33995 15.4332 8.33995C15.4333 8.33995 15.4333 8.33995 15.4334 8.33995C15.4334 8.33995 15.4334 8.33995 15.4335 8.33995C15.4335 8.33995 15.4336 8.33995 15.4336 8.33995C15.4336 8.33995 15.4337 8.33995 15.4337 8.33995C15.4338 8.33995 15.4338 8.33995 15.4338 8.33995C15.4339 8.33995 15.4339 8.33995 15.434 8.33995C15.434 8.33995 15.434 8.33995 15.4341 8.33995C15.4341 8.33995 15.4342 8.33995 15.4342 8.33995C15.4343 8.33995 15.4343 8.33995 15.4343 8.33995C15.4344 8.33995 15.4344 8.33995 15.4345 8.33995C15.4345 8.33995 15.4345 8.33995 15.4346 8.33995C15.4346 8.33995 15.4347 8.33995 15.4347 8.33995C15.4347 8.33995 15.4348 8.33995 15.4348 8.33995C15.4349 8.33995 15.4349 8.33995 15.4349 8.33995C15.435 8.33995 15.435 8.33995 15.4351 8.33995C15.4351 8.33995 15.4352 8.33995 15.4352 8.33995C15.4352 8.33995 15.4353 8.33995 15.4353 8.33995C15.4354 8.33995 15.4354 8.33995 15.4354 8.33995C15.4355 8.33995 15.4355 8.33995 15.4356 8.33995C15.4356 8.33995 15.4356 8.33995 15.4357 8.33995C15.4357 8.33995 15.4358 8.33995 15.4358 8.33995C15.4359 8.33995 15.4359 8.33995 15.4359 8.33995C15.436 8.33995 15.436 8.33995 15.4361 8.33995C15.4361 8.33995 15.4361 8.33995 15.4362 8.33995C15.4362 8.33995 15.4363 8.33995 15.4363 8.33995C15.4364 8.33995 15.4364 8.33995 15.4364 8.33995C15.4365 8.33995 15.4365 8.33995 15.4366 8.33995C15.4366 8.33995 15.4366 8.33995 15.4367 8.33995C15.4367 8.33995 15.4368 8.33995 15.4368 8.33995C15.4369 8.33995 15.4369 8.33995 15.4369 8.33995C15.437 8.33995 15.437 8.33995 15.4371 8.33995C15.4371 8.33995 15.4371 8.33995 15.4372 8.33995C15.4372 8.33995 15.4373 8.33995 15.4373 8.33995C15.4374 8.33995 15.4374 8.33995 15.4374 8.33995C15.4375 8.33995 15.4375 8.33995 15.4376 8.33995C15.4376 8.33995 15.4377 8.33995 15.4377 8.33995C15.4377 8.33995 15.4378 8.33995 15.4378 8.33995C15.4379 8.33995 15.4379 8.33995 15.4379 8.33995C15.438 8.33995 15.438 8.33995 15.4381 8.33995C15.4381 8.33995 15.4382 8.33995 15.4382 8.33995C15.4382 8.33995 15.4383 8.33995 15.4383 8.33995C15.4384 8.33995 15.4384 8.33995 15.4385 8.33995C15.4385 8.33995 15.4385 8.33995 15.4386 8.33995C15.4386 8.33995 15.4387 8.33995 15.4387 8.33995C15.4388 8.33995 15.4388 8.33995 15.4388 8.33995C15.4389 8.33995 15.4389 8.33995 15.439 8.33995C15.439 8.33995 15.4391 8.33995 15.4391 8.33995C15.4391 8.33995 15.4392 8.33995 15.4392 8.33995C15.4393 8.33995 15.4393 8.33995 15.4394 8.33995C15.4394 8.33995 15.4394 8.33995 15.4395 8.33995C15.4395 8.33995 15.4396 8.33995 15.4396 8.33995C15.4397 8.33995 15.4397 8.33995 15.4397 8.33995C15.4398 8.33995 15.4398 8.33995 15.4399 8.33995C15.4399 8.33995 15.44 8.33995 15.44 8.33995C15.44 8.33995 15.4401 8.33995 15.4401 8.33995C15.4402 8.33995 15.4402 8.33995 15.4403 8.33995C15.4403 8.33995 15.4403 8.33995 15.4404 8.33995C15.4404 8.33995 15.4405 8.33995 15.4405 8.33995C15.4406 8.33995 15.4406 8.33995 15.4406 8.33995C15.4407 8.33995 15.4407 8.33995 15.4408 8.33995C15.4408 8.33995 15.4409 8.33995 15.4409 8.33995C15.4409 8.33995 15.441 8.33995 15.441 8.33995C15.4411 8.33995 15.4411 8.33995 15.4412 8.33995C15.4412 8.33995 15.4413 8.33995 15.4413 8.33995C15.4413 8.33995 15.4414 8.33995 15.4414 8.33995C15.4415 8.33995 15.4415 8.33995 15.4416 8.33995C15.4416 8.33995 15.4416 8.33995 15.4417 8.33995C15.4417 8.33995 15.4418 8.33995 15.4418 8.33995C15.4419 8.33995 15.4419 8.33995 15.442 8.33995C15.442 8.33995 15.442 8.33995 15.4421 8.33995V11.3399C15.442 11.3399 15.442 11.3399 15.442 11.3399C15.4419 11.3399 15.4419 11.3399 15.4418 11.3399C15.4418 11.3399 15.4417 11.3399 15.4417 11.3399C15.4416 11.3399 15.4416 11.3399 15.4416 11.3399C15.4415 11.3399 15.4415 11.3399 15.4414 11.3399C15.4414 11.3399 15.4413 11.3399 15.4413 11.3399C15.4413 11.3399 15.4412 11.3399 15.4412 11.3399C15.4411 11.3399 15.4411 11.3399 15.441 11.3399C15.441 11.3399 15.4409 11.3399 15.4409 11.3399C15.4409 11.3399 15.4408 11.3399 15.4408 11.3399C15.4407 11.3399 15.4407 11.3399 15.4406 11.3399C15.4406 11.3399 15.4406 11.3399 15.4405 11.3399C15.4405 11.3399 15.4404 11.3399 15.4404 11.3399C15.4403 11.3399 15.4403 11.3399 15.4403 11.3399C15.4402 11.3399 15.4402 11.3399 15.4401 11.3399C15.4401 11.3399 15.44 11.3399 15.44 11.3399C15.44 11.3399 15.4399 11.3399 15.4399 11.3399C15.4398 11.3399 15.4398 11.3399 15.4397 11.3399C15.4397 11.3399 15.4397 11.3399 15.4396 11.3399C15.4396 11.3399 15.4395 11.3399 15.4395 11.3399C15.4394 11.3399 15.4394 11.3399 15.4394 11.3399C15.4393 11.3399 15.4393 11.3399 15.4392 11.3399C15.4392 11.3399 15.4391 11.3399 15.4391 11.3399C15.4391 11.3399 15.439 11.3399 15.439 11.3399C15.4389 11.3399 15.4389 11.3399 15.4388 11.3399C15.4388 11.3399 15.4388 11.3399 15.4387 11.3399C15.4387 11.3399 15.4386 11.3399 15.4386 11.3399C15.4385 11.3399 15.4385 11.3399 15.4385 11.3399C15.4384 11.3399 15.4384 11.3399 15.4383 11.3399C15.4383 11.3399 15.4382 11.3399 15.4382 11.3399C15.4382 11.3399 15.4381 11.3399 15.4381 11.3399C15.438 11.3399 15.438 11.3399 15.4379 11.3399C15.4379 11.3399 15.4379 11.3399 15.4378 11.3399C15.4378 11.3399 15.4377 11.3399 15.4377 11.3399C15.4377 11.3399 15.4376 11.3399 15.4376 11.3399C15.4375 11.3399 15.4375 11.3399 15.4374 11.3399C15.4374 11.3399 15.4374 11.3399 15.4373 11.3399C15.4373 11.3399 15.4372 11.3399 15.4372 11.3399C15.4371 11.3399 15.4371 11.3399 15.4371 11.3399C15.437 11.3399 15.437 11.3399 15.4369 11.3399C15.4369 11.3399 15.4369 11.3399 15.4368 11.3399C15.4368 11.3399 15.4367 11.3399 15.4367 11.3399C15.4366 11.3399 15.4366 11.3399 15.4366 11.3399C15.4365 11.3399 15.4365 11.3399 15.4364 11.3399C15.4364 11.3399 15.4364 11.3399 15.4363 11.3399C15.4363 11.3399 15.4362 11.3399 15.4362 11.3399C15.4361 11.3399 15.4361 11.3399 15.4361 11.3399C15.436 11.3399 15.436 11.3399 15.4359 11.3399C15.4359 11.3399 15.4359 11.3399 15.4358 11.3399C15.4358 11.3399 15.4357 11.3399 15.4357 11.3399C15.4356 11.3399 15.4356 11.3399 15.4356 11.3399C15.4355 11.3399 15.4355 11.3399 15.4354 11.3399C15.4354 11.3399 15.4354 11.3399 15.4353 11.3399C15.4353 11.3399 15.4352 11.3399 15.4352 11.3399C15.4352 11.3399 15.4351 11.3399 15.4351 11.3399C15.435 11.3399 15.435 11.3399 15.4349 11.3399C15.4349 11.3399 15.4349 11.3399 15.4348 11.3399C15.4348 11.3399 15.4347 11.3399 15.4347 11.3399C15.4347 11.3399 15.4346 11.3399 15.4346 11.3399C15.4345 11.3399 15.4345 11.3399 15.4345 11.3399C15.4344 11.3399 15.4344 11.3399 15.4343 11.3399C15.4343 11.3399 15.4343 11.3399 15.4342 11.3399C15.4342 11.3399 15.4341 11.3399 15.4341 11.3399C15.434 11.3399 15.434 11.3399 15.434 11.3399C15.4339 11.3399 15.4339 11.3399 15.4338 11.3399C15.4338 11.3399 15.4338 11.3399 15.4337 11.3399C15.4337 11.3399 15.4336 11.3399 15.4336 11.3399C15.4336 11.3399 15.4335 11.3399 15.4335 11.3399C15.4334 11.3399 15.4334 11.3399 15.4334 11.3399C15.4333 11.3399 15.4333 11.3399 15.4332 11.3399C15.4332 11.3399 15.4332 11.3399 15.4331 11.3399C15.4331 11.3399 15.433 11.3399 15.433 11.3399C15.433 11.3399 15.4329 11.3399 15.4329 11.3399C15.4328 11.3399 15.4328 11.3399 15.4328 11.3399C15.4327 11.3399 15.4327 11.3399 15.4326 11.3399C15.4326 11.3399 15.4325 11.3399 15.4325 11.3399C15.4325 11.3399 15.4324 11.3399 15.4324 11.3399C15.4323 11.3399 15.4323 11.3399 15.4323 11.3399C15.4322 11.3399 15.4322 11.3399 15.4321 11.3399C15.4321 11.3399 15.4321 11.3399 15.432 11.3399C15.432 11.3399 15.4319 11.3399 15.4319 11.3399C15.4319 11.3399 15.4318 11.3399 15.4318 11.3399C15.4317 11.3399 15.4317 11.3399 15.4317 11.3399C15.4316 11.3399 15.4316 11.3399 15.4315 11.3399C15.4315 11.3399 15.4315 11.3399 15.4314 11.3399C15.4314 11.3399 15.4313 11.3399 15.4313 11.3399C15.4313 11.3399 15.4312 11.3399 15.4312 11.3399C15.4311 11.3399 15.4311 11.3399 15.4311 11.3399C15.431 11.3399 15.431 11.3399 15.4309 11.3399C15.4309 11.3399 15.4309 11.3399 15.4308 11.3399C15.4308 11.3399 15.4308 11.3399 15.4307 11.3399C15.4307 11.3399 15.4306 11.3399 15.4306 11.3399C15.4306 11.3399 15.4305 11.3399 15.4305 11.3399C15.4304 11.3399 15.4304 11.3399 15.4304 11.3399C15.4303 11.3399 15.4303 11.3399 15.4302 11.3399C15.4302 11.3399 15.4302 11.3399 15.4301 11.3399C15.4301 11.3399 15.43 11.3399 15.43 11.3399C15.43 11.3399 15.4299 11.3399 15.4299 11.3399C15.4298 11.3399 15.4298 11.3399 15.4298 11.3399C15.4297 11.3399 15.4297 11.3399 15.4296 11.3399C15.4296 11.3399 15.4296 11.3399 15.4295 11.3399C15.4295 11.3399 15.4294 11.3399 15.4294 11.3399C15.4294 11.3399 15.4293 11.3399 15.4293 11.3399C15.4293 11.3399 15.4292 11.3399 15.4292 11.3399C15.4291 11.3399 15.4291 11.3399 15.4291 11.3399C15.429 11.3399 15.429 11.3399 15.4289 11.3399C15.4289 11.3399 15.4289 11.3399 15.4288 11.3399C15.4288 11.3399 15.4287 11.3399 15.4287 11.3399C15.4287 11.3399 15.4286 11.3399 15.4286 11.3399C15.4285 11.3399 15.4285 11.3399 15.4285 11.3399C15.4284 11.3399 15.4284 11.3399 15.4284 11.3399C15.4283 11.3399 15.4283 11.3399 15.4282 11.3399C15.4282 11.3399 15.4282 11.3399 15.4281 11.3399C15.4281 11.3399 15.428 11.3399 15.428 11.3399C15.428 11.3399 15.4279 11.3399 15.4279 11.3399C15.4278 11.3399 15.4278 11.3399 15.4278 11.3399C15.4277 11.3399 15.4277 11.3399 15.4277 11.3399C15.4276 11.3399 15.4276 11.3399 15.4275 11.3399C15.4275 11.3399 15.4275 11.3399 15.4274 11.3399C15.4274 11.3399 15.4273 11.3399 15.4273 11.3399C15.4273 11.3399 15.4272 11.3399 15.4272 11.3399C15.4272 11.3399 15.4271 11.3399 15.4271 11.3399C15.427 11.3399 15.427 11.3399 15.427 11.3399C15.4269 11.3399 15.4269 11.3399 15.4268 11.3399C15.4268 11.3399 15.4268 11.3399 15.4267 11.3399C15.4267 11.3399 15.4266 11.3399 15.4266 11.3399C15.4266 11.3399 15.4265 11.3399 15.4265 11.3399C15.4265 11.3399 15.4264 11.3399 15.4264 11.3399C15.4263 11.3399 15.4263 11.3399 15.4263 11.3399C15.4262 11.3399 15.4262 11.3399 15.4261 11.3399C15.4261 11.3399 15.4261 11.3399 15.426 11.3399C15.426 11.3399 15.426 11.3399 15.4259 11.3399C15.4259 11.3399 15.4258 11.3399 15.4258 11.3399C15.4258 11.3399 15.4257 11.3399 15.4257 11.3399C15.4257 11.3399 15.4256 11.3399 15.4256 11.3399C15.4255 11.3399 15.4255 11.3399 15.4255 11.3399C15.4254 11.3399 15.4254 11.3399 15.4253 11.3399C15.4253 11.3399 15.4253 11.3399 15.4252 11.3399C15.4252 11.3399 15.4252 11.3399 15.4251 11.3399C15.4251 11.3399 15.425 11.3399 15.425 11.3399C15.425 11.3399 15.4249 11.3399 15.4249 11.3399C15.4248 11.3399 15.4248 11.3399 15.4248 11.3399C15.4247 11.3399 15.4247 11.3399 15.4247 11.3399C15.4246 11.3399 15.4246 11.3399 15.4245 11.3399C15.4245 11.3399 15.4245 11.3399 15.4244 11.3399C15.4244 11.3399 15.4244 11.3399 15.4243 11.3399C15.4243 11.3399 15.4242 11.3399 15.4242 11.3399C15.4242 11.3399 15.4241 11.3399 15.4241 11.3399C15.4241 11.3399 15.424 11.3399 15.424 11.3399C15.4239 11.3399 15.4239 11.3399 15.4239 11.3399C15.4238 11.3399 15.4238 11.3399 15.4237 11.3399C15.4237 11.3399 15.4237 11.3399 15.4236 11.3399C15.4236 11.3399 15.4236 11.3399 15.4235 11.3399C15.4235 11.3399 15.4234 11.3399 15.4234 11.3399C15.4234 11.3399 15.4233 11.3399 15.4233 11.3399C15.4233 11.3399 15.4232 11.3399 15.4232 11.3399C15.4231 11.3399 15.4231 11.3399 15.4231 11.3399C15.423 11.3399 15.423 11.3399 15.423 11.3399C15.4229 11.3399 15.4229 11.3399 15.4228 11.3399C15.4228 11.3399 15.4228 11.3399 15.4227 11.3399C15.4227 11.3399 15.4227 11.3399 15.4226 11.3399C15.4226 11.3399 15.4225 11.3399 15.4225 11.3399C15.4225 11.3399 15.4224 11.3399 15.4224 11.3399C15.4224 11.3399 15.4223 11.3399 15.4223 11.3399C15.4222 11.3399 15.4222 11.3399 15.4222 11.3399C15.4221 11.3399 15.4221 11.3399 15.4221 11.3399C15.422 11.3399 15.422 11.3399 15.4219 11.3399C15.4219 11.3399 15.4219 11.3399 15.4218 11.3399C15.4218 11.3399 15.4218 11.3399 15.4217 11.3399C15.4217 11.3399 15.4216 11.3399 15.4216 11.3399C15.4216 11.3399 15.4215 11.3399 15.4215 11.3399C15.4215 11.3399 15.4214 11.3399 15.4214 11.3399C15.4213 11.3399 15.4213 11.3399 15.4213 11.3399C15.4212 11.3399 15.4212 11.3399 15.4212 11.3399C15.4211 11.3399 15.4211 11.3399 15.421 11.3399C15.421 11.3399 15.421 11.3399 15.4209 11.3399C15.4209 11.3399 15.4209 11.3399 15.4208 11.3399C15.4208 11.3399 15.4207 11.3399 15.4207 11.3399C15.4207 11.3399 15.4206 11.3399 15.4206 11.3399C15.4206 11.3399 15.4205 11.3399 15.4205 11.3399C15.4204 11.3399 15.4204 11.3399 15.4204 11.3399C15.4203 11.3399 15.4203 11.3399 15.4203 11.3399C15.4202 11.3399 15.4202 11.3399 15.4201 11.3399C15.4201 11.3399 15.4201 11.3399 15.42 11.3399C15.42 11.3399 15.42 11.3399 15.4199 11.3399C15.4199 11.3399 15.4198 11.3399 15.4198 11.3399C15.4198 11.3399 15.4197 11.3399 15.4197 11.3399C15.4197 11.3399 15.4196 11.3399 15.4196 11.3399C15.4196 11.3399 15.4195 11.3399 15.4195 11.3399C15.4194 11.3399 15.4194 11.3399 15.4194 11.3399C15.4193 11.3399 15.4193 11.3399 15.4193 11.3399C15.4192 11.3399 15.4192 11.3399 15.4191 11.3399C15.4191 11.3399 15.4191 11.3399 15.419 11.3399C15.419 11.3399 15.419 11.3399 15.4189 11.3399C15.4189 11.3399 15.4188 11.3399 15.4188 11.3399C15.4188 11.3399 15.4187 11.3399 15.4187 11.3399C15.4187 11.3399 15.4186 11.3399 15.4186 11.3399C15.4186 11.3399 15.4185 11.3399 15.4185 11.3399C15.4184 11.3399 15.4184 11.3399 15.4184 11.3399C15.4183 11.3399 15.4183 11.3399 15.4183 11.3399C15.4182 11.3399 15.4182 11.3399 15.4181 11.3399C15.4181 11.3399 15.4181 11.3399 15.418 11.3399C15.418 11.3399 15.418 11.3399 15.4179 11.3399C15.4179 11.3399 15.4178 11.3399 15.4178 11.3399C15.4178 11.3399 15.4177 11.3399 15.4177 11.3399C15.4177 11.3399 15.4176 11.3399 15.4176 11.3399C15.4176 11.3399 15.4175 11.3399 15.4175 11.3399C15.4174 11.3399 15.4174 11.3399 15.4174 11.3399C15.4173 11.3399 15.4173 11.3399 15.4173 11.3399C15.4172 11.3399 15.4172 11.3399 15.4171 11.3399C15.4171 11.3399 15.4171 11.3399 15.417 11.3399C15.417 11.3399 15.417 11.3399 15.4169 11.3399C15.4169 11.3399 15.4169 11.3399 15.4168 11.3399C15.4168 11.3399 15.4167 11.3399 15.4167 11.3399C15.4167 11.3399 15.4166 11.3399 15.4166 11.3399C15.4166 11.3399 15.4165 11.3399 15.4165 11.3399C15.4164 11.3399 15.4164 11.3399 15.4164 11.3399C15.4163 11.3399 15.4163 11.3399 15.4163 11.3399C15.4162 11.3399 15.4162 11.3399 15.4162 11.3399C15.4161 11.3399 15.4161 11.3399 15.416 11.3399C15.416 11.3399 15.416 11.3399 15.4159 11.3399C15.4159 11.3399 15.4159 11.3399 15.4158 11.3399C15.4158 11.3399 15.4157 11.3399 15.4157 11.3399C15.4157 11.3399 15.4156 11.3399 15.4156 11.3399C15.4156 11.3399 15.4155 11.3399 15.4155 11.3399C15.4155 11.3399 15.4154 11.3399 15.4154 11.3399C15.4153 11.3399 15.4153 11.3399 15.4153 11.3399C15.4152 11.3399 15.4152 11.3399 15.4152 11.3399C15.4151 11.3399 15.4151 11.3399 15.4151 11.3399C15.415 11.3399 15.415 11.3399 15.4149 11.3399C15.4149 11.3399 15.4149 11.3399 15.4148 11.3399C15.4148 11.3399 15.4148 11.3399 15.4147 11.3399C15.4147 11.3399 15.4146 11.3399 15.4146 11.3399C15.4146 11.3399 15.4145 11.3399 15.4145 11.3399C15.4145 11.3399 15.4144 11.3399 15.4144 11.3399C15.4144 11.3399 15.4143 11.3399 15.4143 11.3399C15.4142 11.3399 15.4142 11.3399 15.4142 11.3399C15.4141 11.3399 15.4141 11.3399 15.4141 11.3399C15.414 11.3399 15.414 11.3399 15.414 11.3399C15.4139 11.3399 15.4139 11.3399 15.4138 11.3399C15.4138 11.3399 15.4138 11.3399 15.4137 11.3399C15.4137 11.3399 15.4137 11.3399 15.4136 11.3399C15.4136 11.3399 15.4135 11.3399 15.4135 11.3399C15.4135 11.3399 15.4134 11.3399 15.4134 11.3399C15.4134 11.3399 15.4133 11.3399 15.4133 11.3399C15.4133 11.3399 15.4132 11.3399 15.4132 11.3399C15.4131 11.3399 15.4131 11.3399 15.4131 11.3399C15.413 11.3399 15.413 11.3399 15.413 11.3399C15.4129 11.3399 15.4129 11.3399 15.4129 11.3399C15.4128 11.3399 15.4128 11.3399 15.4127 11.3399C15.4127 11.3399 15.4127 11.3399 15.4126 11.3399C15.4126 11.3399 15.4126 11.3399 15.4125 11.3399C15.4125 11.3399 15.4124 11.3399 15.4124 11.3399C15.4124 11.3399 15.4123 11.3399 15.4123 11.3399C15.4123 11.3399 15.4122 11.3399 15.4122 11.3399C15.4122 11.3399 15.4121 11.3399 15.4121 11.3399C15.412 11.3399 15.412 11.3399 15.412 11.3399C15.4119 11.3399 15.4119 11.3399 15.4119 11.3399C15.4118 11.3399 15.4118 11.3399 15.4118 11.3399C15.4117 11.3399 15.4117 11.3399 15.4116 11.3399C15.4116 11.3399 15.4116 11.3399 15.4115 11.3399C15.4115 11.3399 15.4115 11.3399 15.4114 11.3399C15.4114 11.3399 15.4113 11.3399 15.4113 11.3399C15.4113 11.3399 15.4112 11.3399 15.4112 11.3399C15.4112 11.3399 15.4111 11.3399 15.4111 11.3399C15.4111 11.3399 15.411 11.3399 15.411 11.3399C15.4109 11.3399 15.4109 11.3399 15.4109 11.3399C15.4108 11.3399 15.4108 11.3399 15.4108 11.3399C15.4107 11.3399 15.4107 11.3399 15.4107 11.3399C15.4106 11.3399 15.4106 11.3399 15.4105 11.3399C15.4105 11.3399 15.4105 11.3399 15.4104 11.3399C15.4104 11.3399 15.4104 11.3399 15.4103 11.3399C15.4103 11.3399 15.4103 11.3399 15.4102 11.3399C15.4102 11.3399 15.4101 11.3399 15.4101 11.3399C15.4101 11.3399 15.41 11.3399 15.41 11.3399C15.41 11.3399 15.4099 11.3399 15.4099 11.3399C15.4098 11.3399 15.4098 11.3399 15.4098 11.3399C15.4097 11.3399 15.4097 11.3399 15.4097 11.3399C15.4096 11.3399 15.4096 11.3399 15.4096 11.3399C15.4095 11.3399 15.4095 11.3399 15.4094 11.3399C15.4094 11.3399 15.4094 11.3399 15.4093 11.3399C15.4093 11.3399 15.4093 11.3399 15.4092 11.3399C15.4092 11.3399 15.4092 11.3399 15.4091 11.3399C15.4091 11.3399 15.409 11.3399 15.409 11.3399C15.409 11.3399 15.4089 11.3399 15.4089 11.3399C15.4089 11.3399 15.4088 11.3399 15.4088 11.3399C15.4087 11.3399 15.4087 11.3399 15.4087 11.3399C15.4086 11.3399 15.4086 11.3399 15.4086 11.3399C15.4085 11.3399 15.4085 11.3399 15.4085 11.3399C15.4084 11.3399 15.4084 11.3399 15.4083 11.3399C15.4083 11.3399 15.4083 11.3399 15.4082 11.3399C15.4082 11.3399 15.4082 11.3399 15.4081 11.3399C15.4081 11.3399 15.408 11.3399 15.408 11.3399C15.408 11.3399 15.4079 11.3399 15.4079 11.3399C15.4079 11.3399 15.4078 11.3399 15.4078 11.3399C15.4078 11.3399 15.4077 11.3399 15.4077 11.3399C15.4076 11.3399 15.4076 11.3399 15.4076 11.3399C15.4075 11.3399 15.4075 11.3399 15.4075 11.3399C15.4074 11.3399 15.4074 11.3399 15.4073 11.3399C15.4073 11.3399 15.4073 11.3399 15.4072 11.3399C15.4072 11.3399 15.4072 11.3399 15.4071 11.3399C15.4071 11.3399 15.4071 11.3399 15.407 11.3399C15.407 11.3399 15.4069 11.3399 15.4069 11.3399C15.4069 11.3399 15.4068 11.3399 15.4068 11.3399C15.4068 11.3399 15.4067 11.3399 15.4067 11.3399C15.4066 11.3399 15.4066 11.3399 15.4066 11.3399C15.4065 11.3399 15.4065 11.3399 15.4065 11.3399C15.4064 11.3399 15.4064 11.3399 15.4064 11.3399C15.4063 11.3399 15.4063 11.3399 15.4062 11.3399C15.4062 11.3399 15.4062 11.3399 15.4061 11.3399C15.4061 11.3399 15.4061 11.3399 15.406 11.3399C15.406 11.3399 15.4059 11.3399 15.4059 11.3399C15.4059 11.3399 15.4058 11.3399 15.4058 11.3399C15.4058 11.3399 15.4057 11.3399 15.4057 11.3399C15.4057 11.3399 15.4056 11.3399 15.4056 11.3399C15.4055 11.3399 15.4055 11.3399 15.4055 11.3399C15.4054 11.3399 15.4054 11.3399 15.4054 11.3399C15.4053 11.3399 15.4053 11.3399 15.4052 11.3399C15.4052 11.3399 15.4052 11.3399 15.4051 11.3399C15.4051 11.3399 15.4051 11.3399 15.405 11.3399C15.405 11.3399 15.4049 11.3399 15.4049 11.3399C15.4049 11.3399 15.4048 11.3399 15.4048 11.3399C15.4048 11.3399 15.4047 11.3399 15.4047 11.3399C15.4047 11.3399 15.4046 11.3399 15.4046 11.3399C15.4045 11.3399 15.4045 11.3399 15.4045 11.3399C15.4044 11.3399 15.4044 11.3399 15.4044 11.3399C15.4043 11.3399 15.4043 11.3399 15.4042 11.3399C15.4042 11.3399 15.4042 11.3399 15.4041 11.3399C15.4041 11.3399 15.4041 11.3399 15.404 11.3399C15.404 11.3399 15.4039 11.3399 15.4039 11.3399C15.4039 11.3399 15.4038 11.3399 15.4038 11.3399C15.4038 11.3399 15.4037 11.3399 15.4037 11.3399C15.4036 11.3399 15.4036 11.3399 15.4036 11.3399C15.4035 11.3399 15.4035 11.3399 15.4035 11.3399C15.4034 11.3399 15.4034 11.3399 15.4033 11.3399C15.4033 11.3399 15.4033 11.3399 15.4032 11.3399C15.4032 11.3399 15.4032 11.3399 15.4031 11.3399C15.4031 11.3399 15.403 11.3399 15.403 11.3399C15.403 11.3399 15.4029 11.3399 15.4029 11.3399C15.4029 11.3399 15.4028 11.3399 15.4028 11.3399C15.4028 11.3399 15.4027 11.3399 15.4027 11.3399C15.4026 11.3399 15.4026 11.3399 15.4026 11.3399C15.4025 11.3399 15.4025 11.3399 15.4025 11.3399C15.4024 11.3399 15.4024 11.3399 15.4023 11.3399C15.4023 11.3399 15.4023 11.3399 15.4022 11.3399C15.4022 11.3399 15.4022 11.3399 15.4021 11.3399C15.4021 11.3399 15.402 11.3399 15.402 11.3399C15.402 11.3399 15.4019 11.3399 15.4019 11.3399C15.4019 11.3399 15.4018 11.3399 15.4018 11.3399C15.4017 11.3399 15.4017 11.3399 15.4017 11.3399C15.4016 11.3399 15.4016 11.3399 15.4015 11.3399C15.4015 11.3399 15.4015 11.3399 15.4014 11.3399C15.4014 11.3399 15.4014 11.3399 15.4013 11.3399C15.4013 11.3399 15.4012 11.3399 15.4012 11.3399C15.4012 11.3399 15.4011 11.3399 15.4011 11.3399C15.4011 11.3399 15.401 11.3399 15.401 11.3399C15.4009 11.3399 15.4009 11.3399 15.4009 11.3399C15.4008 11.3399 15.4008 11.3399 15.4008 11.3399C15.4007 11.3399 15.4007 11.3399 15.4006 11.3399C15.4006 11.3399 15.4006 11.3399 15.4005 11.3399C15.4005 11.3399 15.4005 11.3399 15.4004 11.3399C15.4004 11.3399 15.4003 11.3399 15.4003 11.3399C15.4003 11.3399 15.4002 11.3399 15.4002 11.3399C15.4002 11.3399 15.4001 11.3399 15.4001 11.3399C15.4 11.3399 15.4 11.3399 15.4 11.3399C15.3999 11.3399 15.3999 11.3399 15.3998 11.3399C15.3998 11.3399 15.3998 11.3399 15.3997 11.3399C15.3997 11.3399 15.3997 11.3399 15.3996 11.3399C15.3996 11.3399 15.3995 11.3399 15.3995 11.3399C15.3995 11.3399 15.3994 11.3399 15.3994 11.3399C15.3994 11.3399 15.3993 11.3399 15.3993 11.3399C15.3992 11.3399 15.3992 11.3399 15.3992 11.3399C15.3991 11.3399 15.3991 11.3399 15.399 11.3399C15.399 11.3399 15.399 11.3399 15.3989 11.3399C15.3989 11.3399 15.3989 11.3399 15.3988 11.3399C15.3988 11.3399 15.3987 11.3399 15.3987 11.3399C15.3987 11.3399 15.3986 11.3399 15.3986 11.3399C15.3986 11.3399 15.3985 11.3399 15.3985 11.3399C15.3984 11.3399 15.3984 11.3399 15.3984 11.3399C15.3983 11.3399 15.3983 11.3399 15.3982 11.3399C15.3982 11.3399 15.3982 11.3399 15.3981 11.3399C15.3981 11.3399 15.3981 11.3399 15.398 11.3399C15.398 11.3399 15.3979 11.3399 15.3979 11.3399C15.3979 11.3399 15.3978 11.3399 15.3978 11.3399C15.3977 11.3399 15.3977 11.3399 15.3977 11.3399C15.3976 11.3399 15.3976 11.3399 15.3976 11.3399C15.3975 11.3399 15.3975 11.3399 15.3974 11.3399C15.3974 11.3399 15.3974 11.3399 15.3973 11.3399C15.3973 11.3399 15.3972 11.3399 15.3972 11.3399C15.3972 11.3399 15.3971 11.3399 15.3971 11.3399C15.3971 11.3399 15.397 11.3399 15.397 11.3399C15.3969 11.3399 15.3969 11.3399 15.3969 11.3399C15.3968 11.3399 15.3968 11.3399 15.3967 11.3399C15.3967 11.3399 15.3967 11.3399 15.3966 11.3399C15.3966 11.3399 15.3965 11.3399 15.3965 11.3399C15.3965 11.3399 15.3964 11.3399 15.3964 11.3399C15.3964 11.3399 15.3963 11.3399 15.3963 11.3399C15.3962 11.3399 15.3962 11.3399 15.3962 11.3399C15.3961 11.3399 15.3961 11.3399 15.396 11.3399C15.396 11.3399 15.396 11.3399 15.3959 11.3399C15.3959 11.3399 15.3959 11.3399 15.3958 11.3399C15.3958 11.3399 15.3957 11.3399 15.3957 11.3399C15.3957 11.3399 15.3956 11.3399 15.3956 11.3399C15.3955 11.3399 15.3955 11.3399 15.3955 11.3399C15.3954 11.3399 15.3954 11.3399 15.3953 11.3399C15.3953 11.3399 15.3953 11.3399 15.3952 11.3399C15.3952 11.3399 15.3951 11.3399 15.3951 11.3399C15.3951 11.3399 15.395 11.3399 15.395 11.3399C15.395 11.3399 15.3949 11.3399 15.3949 11.3399C15.3948 11.3399 15.3948 11.3399 15.3948 11.3399C15.3947 11.3399 15.3947 11.3399 15.3946 11.3399C15.3946 11.3399 15.3946 11.3399 15.3945 11.3399C15.3945 11.3399 15.3944 11.3399 15.3944 11.3399C15.3944 11.3399 15.3943 11.3399 15.3943 11.3399C15.3942 11.3399 15.3942 11.3399 15.3942 11.3399C15.3941 11.3399 15.3941 11.3399 15.394 11.3399C15.394 11.3399 15.394 11.3399 15.3939 11.3399C15.3939 11.3399 15.3938 11.3399 15.3938 11.3399C15.3938 11.3399 15.3937 11.3399 15.3937 11.3399C15.3937 11.3399 15.3936 11.3399 15.3936 11.3399C15.3935 11.3399 15.3935 11.3399 15.3935 11.3399C15.3934 11.3399 15.3934 11.3399 15.3933 11.3399C15.3933 11.3399 15.3933 11.3399 15.3932 11.3399C15.3932 11.3399 15.3931 11.3399 15.3931 11.3399C15.3931 11.3399 15.393 11.3399 15.393 11.3399C15.3929 11.3399 15.3929 11.3399 15.3929 11.3399C15.3928 11.3399 15.3928 11.3399 15.3927 11.3399C15.3927 11.3399 15.3927 11.3399 15.3926 11.3399C15.3926 11.3399 15.3925 11.3399 15.3925 11.3399C15.3925 11.3399 15.3924 11.3399 15.3924 11.3399C15.3923 11.3399 15.3923 11.3399 15.3923 11.3399C15.3922 11.3399 15.3922 11.3399 15.3921 11.3399C15.3921 11.3399 15.3921 11.3399 15.392 11.3399C15.392 11.3399 15.3919 11.3399 15.3919 11.3399C15.3919 11.3399 15.3918 11.3399 15.3918 11.3399C15.3917 11.3399 15.3917 11.3399 15.3917 11.3399C15.3916 11.3399 15.3916 11.3399 15.3915 11.3399C15.3915 11.3399 15.3915 11.3399 15.3914 11.3399C15.3914 11.3399 15.3913 11.3399 15.3913 11.3399C15.3913 11.3399 15.3912 11.3399 15.3912 11.3399C15.3911 11.3399 15.3911 11.3399 15.3911 11.3399C15.391 11.3399 15.391 11.3399 15.3909 11.3399C15.3909 11.3399 15.3908 11.3399 15.3908 11.3399C15.3908 11.3399 15.3907 11.3399 15.3907 11.3399C15.3906 11.3399 15.3906 11.3399 15.3906 11.3399C15.3905 11.3399 15.3905 11.3399 15.3904 11.3399C15.3904 11.3399 15.3904 11.3399 15.3903 11.3399C15.3903 11.3399 15.3902 11.3399 15.3902 11.3399C15.3902 11.3399 15.3901 11.3399 15.3901 11.3399C15.39 11.3399 15.39 11.3399 15.39 11.3399C15.3899 11.3399 15.3899 11.3399 15.3898 11.3399C15.3898 11.3399 15.3897 11.3399 15.3897 11.3399C15.3897 11.3399 15.3896 11.3399 15.3896 11.3399C15.3895 11.3399 15.3895 11.3399 15.3895 11.3399C15.3894 11.3399 15.3894 11.3399 15.3893 11.3399C15.3893 11.3399 15.3893 11.3399 15.3892 11.3399C15.3892 11.3399 15.3891 11.3399 15.3891 11.3399C15.3891 11.3399 15.389 11.3399 15.389 11.3399C15.3889 11.3399 15.3889 11.3399 15.3888 11.3399C15.3888 11.3399 15.3888 11.3399 15.3887 11.3399C15.3887 11.3399 15.3886 11.3399 15.3886 11.3399C15.3886 11.3399 15.3885 11.3399 15.3885 11.3399C15.3884 11.3399 15.3884 11.3399 15.3883 11.3399C15.3883 11.3399 15.3883 11.3399 15.3882 11.3399C15.3882 11.3399 15.3881 11.3399 15.3881 11.3399C15.3881 11.3399 15.388 11.3399 15.388 11.3399C15.3879 11.3399 15.3879 11.3399 15.3879 11.3399C15.3878 11.3399 15.3878 11.3399 15.3877 11.3399C15.3877 11.3399 15.3876 11.3399 15.3876 11.3399C15.3876 11.3399 15.3875 11.3399 15.3875 11.3399C15.3874 11.3399 15.3874 11.3399 15.3874 11.3399C15.3873 11.3399 15.3873 11.3399 15.3872 11.3399C15.3872 11.3399 15.3871 11.3399 15.3871 11.3399C15.3871 11.3399 15.387 11.3399 15.387 11.3399C15.3869 11.3399 15.3869 11.3399 15.3868 11.3399C15.3868 11.3399 15.3868 11.3399 15.3867 11.3399C15.3867 11.3399 15.3866 11.3399 15.3866 11.3399C15.3866 11.3399 15.3865 11.3399 15.3865 11.3399C15.3864 11.3399 15.3864 11.3399 15.3863 11.3399C15.3863 11.3399 15.3863 11.3399 15.3862 11.3399C15.3862 11.3399 15.3861 11.3399 15.3861 11.3399C15.386 11.3399 15.386 11.3399 15.386 11.3399C15.3859 11.3399 15.3859 11.3399 15.3858 11.3399C15.3858 11.3399 15.3858 11.3399 15.3857 11.3399C15.3857 11.3399 15.3856 11.3399 15.3856 11.3399C15.3855 11.3399 15.3855 11.3399 15.3855 11.3399C15.3854 11.3399 15.3854 11.3399 15.3853 11.3399C15.3853 11.3399 15.3852 11.3399 15.3852 11.3399C15.3852 11.3399 15.3851 11.3399 15.3851 11.3399C15.385 11.3399 15.385 11.3399 15.3849 11.3399C15.3849 11.3399 15.3849 11.3399 15.3848 11.3399C15.3848 11.3399 15.3847 11.3399 15.3847 11.3399C15.3846 11.3399 15.3846 11.3399 15.3846 11.3399C15.3845 11.3399 15.3845 11.3399 15.3844 11.3399C15.3844 11.3399 15.3843 11.3399 15.3843 11.3399C15.3843 11.3399 15.3842 11.3399 15.3842 11.3399C15.3841 11.3399 15.3841 11.3399 15.384 11.3399C15.384 11.3399 15.384 11.3399 15.3839 11.3399C15.3839 11.3399 15.3838 11.3399 15.3838 11.3399C15.3837 11.3399 15.3837 11.3399 15.3837 11.3399C15.3836 11.3399 15.3836 11.3399 15.3835 11.3399C15.3835 11.3399 15.3834 11.3399 15.3834 11.3399C15.3833 11.3399 15.3833 11.3399 15.3833 11.3399C15.3832 11.3399 15.3832 11.3399 15.3831 11.3399C15.3831 11.3399 15.383 11.3399 15.383 11.3399C15.383 11.3399 15.3829 11.3399 15.3829 11.3399C15.3828 11.3399 15.3828 11.3399 15.3827 11.3399C15.3827 11.3399 15.3827 11.3399 15.3826 11.3399C15.3826 11.3399 15.3825 11.3399 15.3825 11.3399C15.3824 11.3399 15.3824 11.3399 15.3823 11.3399C15.3823 11.3399 15.3823 11.3399 15.3822 11.3399C15.3822 11.3399 15.3821 11.3399 15.3821 11.3399V8.33995ZM15.2605 8.35098C14.7699 8.4108 14.4016 8.84981 14.4517 9.3631L17.4375 9.0718C17.5476 10.2001 16.7292 11.1941 15.6237 11.3289L15.2605 8.35098ZM14.4521 9.36725C14.2935 7.78754 13.4534 6.35344 12.1434 5.42279L13.8808 2.97711C15.8858 4.40146 17.1906 6.61236 17.4371 9.06764L14.4521 9.36725ZM12.1471 5.4254C12.5658 5.72098 13.1501 5.62482 13.45 5.19997L10.9991 3.46992C11.659 2.53507 12.9484 2.31891 13.8771 2.9745L12.1471 5.4254ZM13.45 5.19997C13.7456 4.78123 13.6495 4.19689 13.2246 3.897L11.4946 6.3479C10.5597 5.68801 10.3435 4.39867 10.9991 3.46992L13.45 5.19997ZM13.2233 3.89608C14.973 5.12841 16.1028 7.0576 16.3194 9.18558L13.3348 9.48932C13.2064 8.22729 12.5361 7.08149 11.4959 6.34881L13.2233 3.89608ZM16.3224 9.2194C16.2802 8.68448 15.8393 8.33995 15.3821 8.33995V11.3399C14.3549 11.3399 13.419 10.5604 13.3317 9.4555L16.3224 9.2194Z" fill="#0C5137" mask="url(#path-3-inside-2_1217_5601)"/>
<mask id="path-5-inside-3_1217_5601" fill="white">
<path d="M8.95503 16.9575C10.065 16.9575 11.1225 16.7025 12.1125 16.2075C12.39 16.065 12.5025 15.7275 12.36 15.45C12.2175 15.1725 11.88 15.06 11.6025 15.2025C9.98253 16.02 8.03253 16.035 6.39753 15.2475C6.12003 15.1125 5.78253 15.2325 5.64753 15.51C5.51253 15.7875 5.63252 16.125 5.91003 16.26C6.87003 16.725 7.89003 16.9575 8.95503 16.9575Z"/>
</mask>
<path d="M8.95503 16.9575C10.065 16.9575 11.1225 16.7025 12.1125 16.2075C12.39 16.065 12.5025 15.7275 12.36 15.45C12.2175 15.1725 11.88 15.06 11.6025 15.2025C9.98253 16.02 8.03253 16.035 6.39753 15.2475C6.12003 15.1125 5.78253 15.2325 5.64753 15.51C5.51253 15.7875 5.63252 16.125 5.91003 16.26C6.87003 16.725 7.89003 16.9575 8.95503 16.9575Z" fill="#292D32"/>
<path d="M12.1125 16.2075L12.7977 17.5418L12.7906 17.5455L12.7833 17.5491L12.1125 16.2075ZM11.6025 15.2025L12.2878 16.5369L12.2783 16.5416L11.6025 15.2025ZM6.39753 15.2475L5.74661 16.5989L5.74133 16.5963L6.39753 15.2475ZM5.91003 16.26L5.25613 17.6099L5.25383 17.6088L5.91003 16.26ZM8.95503 15.4575C9.82758 15.4575 10.6559 15.2588 11.4417 14.8658L12.7833 17.5491C11.5892 18.1462 10.3025 18.4575 8.95503 18.4575V15.4575ZM11.4273 14.8731C10.9846 15.1005 10.7812 15.6591 11.0257 16.1352L13.6944 14.7648C14.2239 15.7959 13.7954 17.0295 12.7977 17.5418L11.4273 14.8731ZM11.0257 16.1352C11.253 16.5779 11.8116 16.7813 12.2877 16.5368L10.9173 13.8681C11.9484 13.3386 13.1821 13.7671 13.6944 14.7648L11.0257 16.1352ZM12.2783 16.5416C10.2403 17.5701 7.79999 17.5879 5.74662 16.5989L7.04844 13.8961C8.26506 14.4821 9.72474 14.4699 10.9268 13.8633L12.2783 16.5416ZM5.74133 16.5963C6.22296 16.8306 6.77591 16.6194 6.99638 16.1662L4.29867 14.8538C4.78914 13.8456 6.01709 13.3943 7.05372 13.8986L5.74133 16.5963ZM6.99638 16.1662C7.23068 15.6845 7.01942 15.1316 6.56622 14.9111L5.25383 17.6088C4.24563 17.1184 3.79437 15.8904 4.29867 14.8538L6.99638 16.1662ZM6.56392 14.91C7.31893 15.2757 8.11524 15.4575 8.95503 15.4575V18.4575C7.66481 18.4575 6.42112 18.1742 5.25613 17.6099L6.56392 14.91Z" fill="#0C5137" mask="url(#path-5-inside-3_1217_5601)"/>
<path d="M8.95504 6.33016C10.4175 6.33016 11.6025 5.14516 11.6025 3.68266C11.6025 2.22016 10.4175 1.03516 8.95504 1.03516C7.49254 1.03516 6.30754 2.22016 6.30754 3.68266C6.30754 5.14516 7.50004 6.33016 8.95504 6.33016ZM8.95504 2.16766C9.79504 2.16766 10.4775 2.85016 10.4775 3.69016C10.4775 4.53016 9.79504 5.21266 8.95504 5.21266C8.11504 5.21266 7.43254 4.53016 7.43254 3.69016C7.43254 2.85016 8.12254 2.16766 8.95504 2.16766Z" fill="#292D32"/>
<path d="M14.3779 15.5025C15.8404 15.5025 17.0254 14.3175 17.0254 12.855C17.0254 11.4 15.8404 10.2075 14.3779 10.2075C12.9154 10.2075 11.7304 11.3925 11.7304 12.855C11.7304 14.31 12.9154 15.5025 14.3779 15.5025ZM14.3779 11.3325C15.2179 11.3325 15.9004 12.015 15.9004 12.855C15.9004 13.695 15.2179 14.3775 14.3779 14.3775C13.5379 14.3775 12.8554 13.695 12.8554 12.855C12.8554 12.015 13.5379 11.3325 14.3779 11.3325Z" fill="#292D32"/>
<path d="M3.62203 15.5025C5.08453 15.5025 6.26953 14.3175 6.26953 12.855C6.26953 11.4 5.08453 10.2075 3.62203 10.2075C2.15953 10.2075 0.97453 11.3925 0.97453 12.855C0.98203 14.31 2.16703 15.5025 3.62203 15.5025ZM3.62203 11.3325C4.46203 11.3325 5.14453 12.015 5.14453 12.855C5.14453 13.695 4.46203 14.3775 3.62203 14.3775C2.78203 14.3775 2.09953 13.695 2.09953 12.855C2.10703 12.015 2.78203 11.3325 3.62203 11.3325Z" fill="#292D32"/>
</svg>
