<svg width="16" height="17" viewBox="0 0 16 17" fill="none" xmlns="http://www.w3.org/2000/svg">
<path d="M11.3333 14.6666H4.66667C2.23334 14.6666 0.833336 13.2666 0.833336 10.8333V6.16665C0.833336 3.73331 2.23334 2.33331 4.66667 2.33331H11.3333C13.7667 2.33331 15.1667 3.73331 15.1667 6.16665V10.8333C15.1667 13.2666 13.7667 14.6666 11.3333 14.6666ZM4.66667 3.33331C2.76 3.33331 1.83334 4.25998 1.83334 6.16665V10.8333C1.83334 12.74 2.76 13.6666 4.66667 13.6666H11.3333C13.24 13.6666 14.1667 12.74 14.1667 10.8333V6.16665C14.1667 4.25998 13.24 3.33331 11.3333 3.33331H4.66667Z" fill="#292D32"/>
<path d="M7.99985 9.07998C7.43985 9.07998 6.87319 8.90665 6.43985 8.55331L4.35318 6.88665C4.13985 6.71331 4.09985 6.39998 4.27319 6.18665C4.44652 5.97331 4.75985 5.93332 4.97319 6.10665L7.05985 7.77332C7.56651 8.17998 8.42651 8.17998 8.93318 7.77332L11.0198 6.10665C11.2332 5.93332 11.5532 5.96665 11.7199 6.18665C11.8932 6.39998 11.8599 6.71998 11.6399 6.88665L9.55318 8.55331C9.12652 8.90665 8.55985 9.07998 7.99985 9.07998Z" fill="#292D32"/>
</svg>
