<svg width="16" height="17" viewBox="0 0 16 17" fill="none" xmlns="http://www.w3.org/2000/svg">
<path d="M10 15.6667H6C2.38 15.6667 0.833336 14.12 0.833336 10.5V6.50004C0.833336 2.88004 2.38 1.33337 6 1.33337H10C13.62 1.33337 15.1667 2.88004 15.1667 6.50004V10.5C15.1667 14.12 13.62 15.6667 10 15.6667ZM6 2.33337C2.92667 2.33337 1.83334 3.42671 1.83334 6.50004V10.5C1.83334 13.5734 2.92667 14.6667 6 14.6667H10C13.0733 14.6667 14.1667 13.5734 14.1667 10.5V6.50004C14.1667 3.42671 13.0733 2.33337 10 2.33337H6Z" fill="#4F4C4D"/>
<path d="M7.05334 10.8866C6.92 10.8866 6.79334 10.8333 6.7 10.7399L4.81333 8.85328C4.62 8.65994 4.62 8.33994 4.81333 8.14661C5.00667 7.95328 5.32667 7.95328 5.52 8.14661L7.05334 9.67994L10.48 6.25328C10.6733 6.05994 10.9933 6.05994 11.1867 6.25328C11.38 6.44661 11.38 6.76661 11.1867 6.95994L7.40667 10.7399C7.31334 10.8333 7.18667 10.8866 7.05334 10.8866Z" fill="#4F4C4D"/>
</svg>
