<svg width="18" height="20" viewBox="0 0 18 20" fill="none" xmlns="http://www.w3.org/2000/svg">
<path d="M17.7626 5.01514C16.6212 5.01514 15.5681 4.63701 14.7224 3.99912C13.7524 3.26787 13.0556 2.19521 12.8095 0.958887C12.7485 0.653418 12.7157 0.338184 12.7126 0.0151367H9.45204V8.92451L9.44814 13.8046C9.44814 15.1093 8.59853 16.2155 7.42079 16.6046C7.079 16.7175 6.70986 16.771 6.32548 16.7499C5.83486 16.7229 5.37509 16.5749 4.97548 16.3358C4.12509 15.8272 3.54853 14.9046 3.5329 13.8491C3.50829 12.1995 4.84189 10.8546 6.49032 10.8546C6.81571 10.8546 7.12822 10.9077 7.42079 11.0042V8.56904V7.69365C7.1122 7.64795 6.79814 7.62412 6.48056 7.62412C4.67626 7.62412 2.98876 8.37412 1.78251 9.72529C0.870793 10.7464 0.323918 12.0491 0.239543 13.4151C0.128996 15.2097 0.785636 16.9155 2.05907 18.1741C2.24618 18.3589 2.44267 18.5304 2.64814 18.6886C3.73993 19.5288 5.0747 19.9843 6.48056 19.9843C6.79814 19.9843 7.1122 19.9608 7.42079 19.9151C8.73407 19.7206 9.94579 19.1194 10.902 18.1741C12.077 17.0128 12.7263 15.471 12.7333 13.83L12.7165 6.54248C13.277 6.9749 13.8899 7.33272 14.5477 7.61045C15.5708 8.04209 16.6556 8.26084 17.772 8.26045V5.89287V5.01436C17.7727 5.01514 17.7634 5.01514 17.7626 5.01514Z" fill="black"/>
</svg>
